<svg width="337" height="337" viewBox="0 0 337 337" fill="none" xmlns="http://www.w3.org/2000/svg">
<path d="M177.821 214.622C124.11 198.729 59.3121 213.126 46.2971 137.031C30.7884 46.2229 118.348 16.176 185.876 38.782C222.366 51.0016 248.511 119.298 261.087 163.822C267.43 186.28 264.808 233.366 248.416 242.91C222.703 257.886 204.397 222.487 177.821 214.622Z" fill="#3E64FF"/>
<path opacity="0.9" d="M177.821 214.622C124.11 198.729 59.3121 213.126 46.2971 137.031C30.7884 46.2229 118.348 16.176 185.876 38.782C222.366 51.0016 248.511 119.298 261.087 163.822C267.43 186.28 264.808 233.366 248.416 242.91C222.703 257.886 204.397 222.487 177.821 214.622Z" fill="white"/>
<path d="M168.5 288.175C240.674 288.175 299.182 284.759 299.182 280.546C299.182 276.332 240.674 272.916 168.5 272.916C96.3264 272.916 37.8181 276.332 37.8181 280.546C37.8181 284.759 96.3264 288.175 168.5 288.175Z" fill="#F5F5F5"/>
<path d="M281.018 69.8262H200.96V280.546H281.018V69.8262Z" fill="#3E64FF"/>
<path opacity="0.8" d="M281.018 69.8262H200.96V280.546H281.018V69.8262Z" fill="white"/>
<g opacity="0.4">
<path opacity="0.4" d="M282.925 97.1507C280 97.4337 278.726 97.8651 277.533 96.1734C276.34 94.4816 271.919 94.1177 270.443 95.9712C268.966 97.8247 268.421 99.0446 265.125 98.5593C261.829 98.074 260.717 98.9435 260.204 100.312C259.692 101.68 252.116 102.172 254.287 103.682L282.406 99.5501C282.406 99.5501 285.85 96.8676 282.925 97.1507Z" fill="white"/>
<path opacity="0.4" d="M257.643 82.4439C256.74 81.4936 254.078 81.5273 251.672 82.7202C249.265 83.9132 250.998 78.3999 246.529 79.9434C240.119 82.1473 241.811 85.6589 239.155 85.7061C236.5 85.7532 228.702 87.8292 232.773 89.0761L256.363 85.605C256.363 85.605 258.553 83.3875 257.643 82.4439Z" fill="white"/>
<path opacity="0.4" d="M226.707 119.453C226.066 118.779 224.179 118.779 222.467 119.655C220.755 120.532 222.002 116.589 218.821 117.681C214.271 119.244 215.451 121.725 213.591 121.772C211.73 121.819 206.177 123.275 209.061 124.185L225.79 121.718C225.79 121.718 227.354 120.127 226.707 119.453Z" fill="white"/>
</g>
<path opacity="0.07" d="M271.676 238.596V246.549C271.676 246.87 271.549 247.177 271.323 247.405C271.097 247.632 270.79 247.761 270.47 247.762H268.293C268.134 247.762 267.976 247.792 267.829 247.852C267.682 247.913 267.548 248.001 267.435 248.113C267.322 248.226 267.233 248.359 267.172 248.506C267.111 248.652 267.079 248.81 267.079 248.969V250.492C267.079 250.814 266.951 251.122 266.724 251.35C266.496 251.578 266.188 251.705 265.866 251.705H257.778C257.457 251.704 257.149 251.575 256.922 251.348C256.695 251.121 256.567 250.813 256.565 250.492V238.596C256.565 238.276 256.438 237.969 256.212 237.743C255.985 237.517 255.678 237.39 255.358 237.39H254.098C253.777 237.388 253.469 237.259 253.242 237.032C253.015 236.805 252.887 236.498 252.885 236.176V222.487C252.885 222.167 252.758 221.861 252.532 221.634C252.305 221.408 251.998 221.281 251.678 221.281H249.313C248.992 221.281 248.685 221.408 248.457 221.634C248.23 221.86 248.101 222.167 248.099 222.487V230.987C248.084 231.243 247.967 231.484 247.776 231.655C247.584 231.827 247.332 231.916 247.075 231.903V231.903C246.819 231.916 246.568 231.827 246.377 231.655C246.186 231.483 246.071 231.243 246.057 230.987V205.685C246.057 205.363 245.929 205.054 245.702 204.827C245.474 204.599 245.166 204.471 244.844 204.471H242.458C242.299 204.471 242.142 204.503 241.995 204.564C241.848 204.625 241.715 204.714 241.603 204.827C241.49 204.94 241.402 205.074 241.342 205.221C241.281 205.368 241.251 205.526 241.252 205.685V230.69C241.252 231.012 241.124 231.32 240.896 231.548C240.669 231.775 240.36 231.903 240.038 231.903H239.749C239.589 231.903 239.432 231.872 239.284 231.811C239.137 231.75 239.003 231.661 238.891 231.548C238.778 231.435 238.689 231.301 238.628 231.154C238.567 231.007 238.535 230.849 238.535 230.69V217.763C238.537 217.573 238.493 217.386 238.407 217.217L231.216 202.82C231.131 202.653 231.087 202.468 231.088 202.281V184.117C231.088 183.958 231.056 183.8 230.995 183.653C230.934 183.507 230.845 183.373 230.732 183.261C230.619 183.149 230.485 183.06 230.338 183C230.191 182.94 230.034 182.909 229.875 182.91H222.872C222.551 182.91 222.244 183.037 222.016 183.263C221.789 183.489 221.66 183.796 221.658 184.117V230.69C221.659 230.849 221.629 231.007 221.569 231.154C221.508 231.301 221.42 231.435 221.308 231.547C221.195 231.66 221.062 231.75 220.915 231.811C220.768 231.872 220.611 231.903 220.452 231.903H219.96C219.801 231.903 219.644 231.872 219.497 231.811C219.35 231.75 219.217 231.66 219.104 231.547C218.992 231.435 218.904 231.301 218.843 231.154C218.783 231.007 218.753 230.849 218.754 230.69V212.984C218.752 212.663 218.623 212.355 218.396 212.128C218.169 211.901 217.862 211.773 217.54 211.771H210.537C210.216 211.773 209.909 211.901 209.682 212.128C209.454 212.355 209.326 212.663 209.324 212.984V230.697C209.325 230.856 209.295 231.013 209.234 231.161C209.174 231.308 209.085 231.441 208.973 231.554C208.861 231.667 208.728 231.756 208.581 231.817C208.434 231.879 208.277 231.91 208.118 231.91H207.167C206.846 231.91 206.537 232.038 206.31 232.265C206.082 232.493 205.954 232.801 205.954 233.123V236.17C205.954 236.49 205.827 236.798 205.601 237.025C205.375 237.252 205.068 237.381 204.748 237.383H204.411C204.252 237.382 204.094 237.413 203.947 237.473C203.8 237.533 203.666 237.622 203.553 237.734C203.441 237.846 203.351 237.979 203.29 238.126C203.229 238.273 203.198 238.43 203.198 238.589V262.806C203.198 262.965 203.229 263.123 203.29 263.269C203.351 263.416 203.441 263.549 203.553 263.662C203.666 263.774 203.8 263.862 203.947 263.923C204.094 263.983 204.252 264.013 204.411 264.013H275.275C275.595 264.013 275.902 263.885 276.128 263.659C276.354 263.433 276.482 263.126 276.482 262.806V238.596C276.482 238.276 276.354 237.969 276.128 237.743C275.902 237.517 275.595 237.39 275.275 237.39H272.889C272.569 237.39 272.261 237.516 272.034 237.743C271.806 237.969 271.678 238.275 271.676 238.596V238.596Z" fill="#3E64FF"/>
<path opacity="0.07" d="M280.789 266.237H200.96V273.3H280.789V266.237Z" fill="#3E64FF"/>
<path d="M288.688 63.9761V280.546H279.912V73.6412H209.567V280.546H200.798V63.9761H288.688Z" fill="#263238"/>
<path d="M284.785 63.9761V280.546H276.016V73.6412H205.671V280.546H196.896V63.9761H284.785Z" fill="#3E64FF"/>
<path d="M219.05 90.0058C216.037 90.2485 212.108 92.3176 220.897 94.7238C229.686 97.13 230.872 94.5284 230.872 94.5284C230.872 94.5284 227.138 89.352 219.05 90.0058Z" fill="#3E64FF"/>
<path opacity="0.4" d="M219.05 90.0058C216.037 90.2485 212.108 92.3176 220.897 94.7238C229.686 97.13 230.872 94.5284 230.872 94.5284C230.872 94.5284 227.138 89.352 219.05 90.0058Z" fill="black"/>
<path d="M235.106 112.075C237.089 111.775 238.4 109.577 238.035 107.167C237.67 104.757 235.766 103.047 233.784 103.347C231.801 103.648 230.49 105.845 230.855 108.255C231.22 110.665 233.123 112.375 235.106 112.075Z" fill="#263238"/>
<path d="M223.484 101.734C225.466 101.434 226.777 99.2364 226.412 96.8263C226.047 94.4162 224.144 92.706 222.161 93.0064C220.179 93.3068 218.867 95.5041 219.232 97.9142C219.598 100.324 221.501 102.035 223.484 101.734Z" fill="#263238"/>
<path d="M276.017 232.941V251.678C266.277 243.988 256.316 235.381 254.246 230.899C246.751 214.615 232.368 171.917 232.368 171.917L255.015 162.656L255.116 163.115C255.709 165.871 258.883 180.955 262.611 204.06C263.608 210.227 264.633 216.974 265.677 224.206C267.47 225.379 271.346 228.715 276.017 232.941Z" fill="#263238"/>
<path opacity="0.2" d="M263.575 210.153C262.395 202.584 261.256 195.756 260.205 189.785L255.028 185.808C256.832 194.253 259.703 202.434 263.575 210.153V210.153Z" fill="black"/>
<path d="M276.016 186.482V225.521C274.668 223.269 273.408 221.241 272.303 219.522C269.742 215.532 266.291 210.005 262.611 204.06C252.561 187.851 240.813 168.5 240.813 168.5L255.116 163.108L261.809 160.587C267.612 168.217 271.46 176.157 276.016 186.482Z" fill="#263238"/>
<path d="M225.392 133.493C224.921 133.836 224.563 134.086 224.159 134.355C223.755 134.625 223.37 134.867 222.979 135.117C222.184 135.609 221.389 136.081 220.58 136.539C218.966 137.447 217.306 138.271 215.606 139.006C214.763 139.39 213.894 139.727 213.031 140.077C212.169 140.428 211.286 140.751 210.389 141.001C208.599 141.586 206.776 142.067 204.93 142.443L204.667 142.497C204.175 142.605 203.665 142.61 203.171 142.512C202.677 142.413 202.209 142.213 201.796 141.924C200.029 140.659 198.396 139.215 196.923 137.617C195.533 136.131 194.224 134.572 193 132.947C191.8 131.342 190.677 129.707 189.63 128.04C188.572 126.355 187.574 124.67 186.651 122.877C186.413 122.4 186.355 121.853 186.487 121.337C186.618 120.82 186.931 120.368 187.368 120.063C187.805 119.758 188.336 119.619 188.867 119.673C189.397 119.727 189.89 119.969 190.257 120.356L190.304 120.403C191.558 121.751 192.852 123.18 194.146 124.535C195.44 125.89 196.741 127.231 198.068 128.532C199.396 129.833 200.764 131.073 202.112 132.219C203.375 133.313 204.728 134.298 206.156 135.164L203.016 134.645C204.525 134.153 206.022 133.634 207.504 133.014C208.987 132.394 210.457 131.74 211.906 130.992C213.355 130.244 214.784 129.509 216.192 128.7C216.866 128.303 217.594 127.892 218.275 127.474L219.286 126.833L220.216 126.24L220.405 126.119C221.38 125.505 222.554 125.293 223.682 125.527C224.81 125.762 225.803 126.425 226.452 127.377C227.101 128.329 227.355 129.495 227.162 130.631C226.968 131.767 226.341 132.783 225.413 133.466L225.392 133.493Z" fill="#B55B52"/>
<path d="M227.037 122.553C221.756 124.781 216.629 127.357 211.69 130.264C213.26 134.8 215.444 140.199 218.969 143.353C222.116 141.347 225.098 139.093 227.886 136.613C234.04 131.315 233.467 119.972 227.037 122.553Z" fill="#3E64FF"/>
<path d="M231.364 171.809C232.537 175.853 233.386 180.497 235.219 181.393C237.053 182.29 241.231 176.15 242.815 173.838C247.122 174.161 259.712 172.456 263.568 169.976C267.423 167.496 266.21 164.456 263.123 160.189C254.671 159.34 236.358 168.722 231.364 171.809Z" fill="white"/>
<path d="M244.952 117.357C238.841 118.412 232.853 120.09 227.084 122.365C220.863 124.879 217.648 129.941 218.767 136.559C220.115 144.512 226.181 163.034 231.89 175.651C232.88 177.822 262.739 164.261 264.181 161.275C261.829 153.018 255.709 145.153 253.336 125.432C252.851 121.367 248.935 116.67 244.952 117.357Z" fill="#3E64FF"/>
<path d="M239 132.967C240.942 132.058 242.961 131.325 245.033 130.776C245.187 130.733 245.353 130.75 245.495 130.823C245.638 130.897 245.747 131.022 245.801 131.174C246.03 131.794 246.435 132.839 246.839 133.762C246.877 133.844 246.896 133.934 246.896 134.025C246.896 134.115 246.876 134.205 246.838 134.287C246.801 134.37 246.746 134.443 246.677 134.502C246.609 134.562 246.528 134.606 246.441 134.631C244.864 135.11 242.29 136.053 240.645 136.768C240.503 136.821 240.347 136.824 240.203 136.778C240.059 136.732 239.934 136.638 239.85 136.512C239.304 135.64 238.907 134.683 238.677 133.681C238.643 133.543 238.656 133.397 238.715 133.268C238.774 133.138 238.874 133.032 239 132.967V132.967Z" fill="white"/>
<path d="M230.933 130.574C231.027 131.134 230.872 131.626 230.575 131.68C230.279 131.733 229.955 131.322 229.854 130.763C229.753 130.204 229.915 129.712 230.211 129.658C230.508 129.604 230.832 130.015 230.933 130.574Z" fill="white"/>
<path d="M253.876 122.755C255.513 123.712 257.016 124.676 258.546 125.694C260.076 126.712 261.559 127.716 263.029 128.828C264.498 129.94 265.96 131.005 267.396 132.151C268.832 133.297 270.234 134.469 271.629 135.676L271.871 135.885C272.247 136.209 272.552 136.607 272.769 137.053C272.985 137.499 273.109 137.984 273.132 138.48C273.201 140.522 272.985 142.563 272.492 144.546C272.043 146.377 271.434 148.166 270.672 149.891C269.941 151.552 269.104 153.164 268.164 154.716C267.234 156.268 266.195 157.752 265.057 159.158C264.721 159.564 264.251 159.837 263.731 159.928C263.212 160.019 262.677 159.923 262.222 159.657C261.767 159.39 261.422 158.971 261.247 158.474C261.073 157.976 261.081 157.433 261.269 156.941L261.323 156.819C261.889 155.377 262.489 153.8 262.995 152.283C263.5 150.767 263.979 149.223 264.343 147.7C264.716 146.229 264.989 144.733 265.158 143.225C265.309 141.88 265.297 140.523 265.125 139.181L266.628 141.985C263.804 139.963 260.912 138.015 257.994 136.087L249.232 130.372H249.185C248.181 129.751 247.465 128.758 247.194 127.609C246.922 126.461 247.119 125.252 247.739 124.248C248.359 123.245 249.353 122.528 250.501 122.257C251.649 121.986 252.858 122.182 253.862 122.803L253.876 122.755Z" fill="#B55B52"/>
<path d="M249.117 118.071C254.101 120.893 258.89 124.046 263.453 127.507C261.358 131.708 258.209 135.294 254.314 137.914C254.314 137.914 251.537 137.24 246.623 131.915C241.137 125.95 243.031 114.755 249.117 118.071Z" fill="#3E64FF"/>
<path d="M261.829 155.606L257.94 160.055L264.296 163.236C264.296 163.236 267.335 158.761 265.26 156.685L261.829 155.606Z" fill="#B55B52"/>
<path d="M258.257 166.303L260.663 167.038C261.125 167.179 261.624 167.146 262.063 166.945C262.503 166.744 262.854 166.388 263.049 165.946L264.296 163.25L257.94 160.068L256.861 163.681C256.705 164.214 256.764 164.786 257.024 165.276C257.285 165.767 257.727 166.135 258.257 166.303V166.303Z" fill="#B55B52"/>
<path d="M230.508 126.995C230.508 126.995 233.75 129.078 234.06 131.808C241.791 126.112 243.024 120.525 241.339 118.065C240.582 117.777 239.745 117.777 238.987 118.065C238.987 118.065 236.614 122.931 230.508 126.995Z" fill="white"/>
<path d="M230.508 126.995C230.508 126.995 228.264 129.61 228.021 132.326C223.074 130.102 224.867 124.299 226.201 122.756C227.05 122.139 227.995 121.667 228.998 121.36C228.998 121.36 227.212 123.591 230.508 126.995Z" fill="white"/>
<path d="M234.485 104.875C234.869 108.683 236.042 115.119 238.832 117.923C239.169 118.26 239.383 118.701 239.439 119.174C239.495 119.647 239.39 120.125 239.142 120.532C237.459 123.484 234.748 125.713 231.526 126.793C227.893 128.006 226.895 126.281 226.943 124.434C226.96 123.965 227.083 123.507 227.303 123.093C227.522 122.678 227.832 122.319 228.21 122.041C231.364 119.662 230.232 116.602 228.634 113.879L234.485 104.875Z" fill="#B55B52"/>
<path opacity="0.2" d="M232.105 108.548L228.641 113.906C229.063 114.59 229.424 115.309 229.72 116.056C231.405 115.281 233.238 112.653 232.867 110.765C232.751 109.986 232.493 109.234 232.105 108.548V108.548Z" fill="black"/>
<path d="M235.435 98.5592C235.94 104.396 236.534 107.786 234.087 111.237C230.407 116.434 222.973 114.978 220.749 109.438C218.727 104.45 218.261 95.7352 223.512 92.4932C224.652 91.7691 225.96 91.3545 227.309 91.2901C228.658 91.2257 230 91.5139 231.203 92.1261C232.407 92.7384 233.43 93.6536 234.172 94.7817C234.914 95.9098 235.349 97.2117 235.435 98.5592V98.5592Z" fill="#B55B52"/>
<path d="M225.318 90.6462C222.036 90.9697 220.472 92.9176 221.328 93.8882C218.437 94.4071 221.065 97.9321 224.186 96.4831C224.456 97.6086 230.663 97.2312 230.724 95.5395C232.132 99.1993 233.898 98.9634 233.898 98.9634C233.898 98.9634 232.065 103.007 234.694 103.533C234.694 105.818 236.345 107.82 238.064 107.476C239.971 107.085 239.364 103.857 239.364 103.857C242.842 102.313 240.503 98.8151 240.503 98.8151C240.45 94.9329 232.375 86.3596 225.318 90.6462Z" fill="#263238"/>
<path d="M221.072 105.926C220.676 105.894 220.294 105.765 219.96 105.55C219.626 105.335 219.35 105.04 219.158 104.692C218.576 103.759 218.246 102.691 218.201 101.592C218.105 100.499 218.298 99.3995 218.76 98.404C218.879 97.9976 219.12 97.6376 219.45 97.3728C219.781 97.1081 220.185 96.9514 220.607 96.9242C221.03 96.897 221.45 97.0004 221.812 97.2206C222.174 97.4407 222.459 97.7668 222.629 98.1547C223.212 99.0853 223.544 100.151 223.593 101.248V101.248C223.748 103.729 222.669 105.825 221.18 105.919L221.072 105.926ZM220.715 97.2852H220.634C220.287 97.3443 219.962 97.4929 219.69 97.7163C219.418 97.9397 219.209 98.2302 219.084 98.5591C218.677 99.5056 218.499 100.535 218.565 101.563C218.63 102.591 218.937 103.59 219.461 104.477C219.626 104.788 219.87 105.05 220.168 105.238C220.466 105.426 220.808 105.533 221.16 105.548C222.447 105.468 223.37 103.526 223.229 101.269C223.184 100.234 222.873 99.2291 222.326 98.3501C222.167 98.0524 221.937 97.7989 221.656 97.6129C221.374 97.4269 221.051 97.3143 220.715 97.2852Z" fill="white"/>
<path d="M227.509 105.515C227.076 105.495 226.654 105.376 226.276 105.167C225.897 104.958 225.572 104.664 225.325 104.308C224.652 103.41 224.267 102.329 224.22 101.208C224.058 98.7344 225.345 96.6248 227.084 96.49C228.823 96.3552 230.367 98.3098 230.522 100.79C230.627 101.905 230.392 103.026 229.848 104.005C229.638 104.412 229.331 104.761 228.953 105.02C228.575 105.278 228.139 105.439 227.684 105.488L227.509 105.515ZM227.232 96.8741H227.138C225.601 96.9752 224.442 98.8962 224.611 101.188C224.659 102.234 225.016 103.242 225.635 104.086C225.844 104.431 226.143 104.712 226.5 104.899C226.858 105.086 227.259 105.171 227.662 105.146C228.064 105.12 228.452 104.984 228.783 104.753C229.114 104.523 229.375 104.205 229.538 103.837C230.059 102.925 230.294 101.878 230.212 100.831C230.016 98.6131 228.715 96.8741 227.232 96.8741V96.8741Z" fill="white"/>
<path d="M223.411 101.444C223.374 101.444 223.338 101.432 223.308 101.411C223.278 101.391 223.255 101.361 223.242 101.327C223.229 101.293 223.226 101.255 223.235 101.219C223.243 101.184 223.262 101.152 223.289 101.127C223.458 100.998 223.661 100.921 223.872 100.904C224.084 100.888 224.296 100.932 224.482 101.033C224.526 101.056 224.558 101.094 224.573 101.141C224.588 101.187 224.585 101.238 224.563 101.282C224.542 101.325 224.504 101.357 224.459 101.372C224.413 101.387 224.364 101.384 224.321 101.363C224.198 101.294 224.058 101.261 223.917 101.268C223.777 101.276 223.641 101.322 223.525 101.403C223.493 101.429 223.452 101.444 223.411 101.444V101.444Z" fill="white"/>
<path d="M235.603 101.942H235.563C231.64 101.059 230.4 101.268 230.393 101.268C230.346 101.279 230.296 101.271 230.255 101.245C230.214 101.219 230.185 101.178 230.174 101.13C230.164 101.083 230.172 101.033 230.198 100.992C230.224 100.951 230.265 100.922 230.313 100.911C230.367 100.911 231.613 100.655 235.644 101.585C235.667 101.59 235.689 101.599 235.709 101.613C235.728 101.626 235.745 101.644 235.758 101.664C235.77 101.684 235.779 101.707 235.782 101.73C235.786 101.754 235.785 101.778 235.779 101.801C235.77 101.841 235.747 101.876 235.716 101.902C235.684 101.928 235.644 101.942 235.603 101.942V101.942Z" fill="white"/>
<path d="M238.333 103.877C237.828 105.188 236.856 106.266 235.604 106.903C234.013 107.651 233.123 106.108 233.487 104.288C233.817 102.657 235.037 100.298 236.675 100.312C238.313 100.325 239 102.199 238.333 103.877Z" fill="#B55B52"/>
<path d="M227.01 101.444C227.044 101.915 226.821 102.326 226.511 102.353C226.201 102.38 225.932 102.023 225.898 101.545C225.864 101.066 226.08 100.662 226.39 100.635C226.7 100.608 226.97 100.965 227.01 101.444Z" fill="#263238"/>
<path d="M221.51 101.862C221.544 102.333 221.321 102.744 221.018 102.771C220.715 102.798 220.432 102.441 220.398 101.963C220.364 101.484 220.58 101.08 220.89 101.053C221.2 101.026 221.477 101.383 221.51 101.862Z" fill="#263238"/>
<path d="M223.829 101.585C223.022 102.926 222.292 104.313 221.645 105.737C222.487 106.492 224.132 105.939 224.132 105.939L223.829 101.585Z" fill="#A02724"/>
<path d="M224.685 108.386C225.215 108.337 225.73 108.181 226.199 107.929C226.668 107.676 227.081 107.332 227.414 106.917C227.434 106.886 227.441 106.849 227.435 106.812C227.429 106.776 227.409 106.744 227.381 106.721C227.369 106.708 227.354 106.698 227.338 106.691C227.322 106.683 227.304 106.68 227.286 106.68C227.269 106.68 227.251 106.683 227.235 106.691C227.219 106.698 227.204 106.708 227.192 106.721C226.814 107.171 226.336 107.526 225.797 107.76C225.258 107.994 224.672 108.1 224.085 108.069C224.066 108.068 224.048 108.071 224.03 108.077C224.013 108.084 223.997 108.093 223.983 108.106C223.969 108.118 223.958 108.133 223.95 108.15C223.942 108.167 223.937 108.185 223.937 108.204C223.936 108.222 223.938 108.24 223.945 108.258C223.951 108.275 223.961 108.29 223.974 108.304C223.986 108.317 224.001 108.327 224.018 108.335C224.035 108.342 224.053 108.346 224.071 108.346C224.275 108.373 224.48 108.386 224.685 108.386Z" fill="#263238"/>
<path d="M229.16 99.6712C229.205 99.6582 229.247 99.6351 229.281 99.6038C229.334 99.5508 229.363 99.4794 229.363 99.4049C229.363 99.3305 229.334 99.2591 229.281 99.2061C229 98.8695 228.64 98.6078 228.233 98.4443C227.826 98.2809 227.385 98.2207 226.949 98.2692C226.876 98.28 226.81 98.3194 226.766 98.3788C226.722 98.4382 226.703 98.5127 226.713 98.586C226.724 98.6593 226.764 98.7253 226.823 98.7696C226.882 98.8138 226.957 98.8326 227.03 98.8219V98.8219C227.375 98.7911 227.721 98.8442 228.041 98.9769C228.36 99.1095 228.642 99.3177 228.863 99.5835C228.899 99.6261 228.945 99.6571 228.998 99.6727C229.051 99.6883 229.107 99.6878 229.16 99.6712V99.6712Z" fill="#263238"/>
<path d="M219.239 99.9878C219.284 99.9913 219.33 99.9839 219.372 99.9664C219.414 99.9488 219.452 99.9215 219.481 99.8867C219.691 99.606 219.963 99.379 220.277 99.2243C220.591 99.0696 220.938 98.9917 221.288 98.997C221.362 99.0029 221.435 98.9803 221.492 98.934C221.55 98.8876 221.588 98.8209 221.598 98.7477C221.605 98.6746 221.584 98.6014 221.539 98.5436C221.494 98.4857 221.428 98.4477 221.355 98.4376C220.912 98.4252 220.473 98.5183 220.073 98.7094C219.674 98.9004 219.325 99.1838 219.057 99.5362C219.011 99.5931 218.989 99.6656 218.995 99.7385C219.001 99.8114 219.035 99.879 219.091 99.9272C219.131 99.9651 219.184 99.9867 219.239 99.9878Z" fill="#263238"/>
<path d="M189.751 124.636L183.941 125.694L184.467 118.611C184.467 118.611 189.859 118.294 190.587 121.145L189.751 124.636Z" fill="#B55B52"/>
<path d="M178.738 122.216L179.338 119.777C179.461 119.31 179.746 118.903 180.143 118.628C180.54 118.354 181.022 118.231 181.501 118.28L184.467 118.611L183.941 125.694L180.282 124.764C179.741 124.627 179.277 124.283 178.988 123.806C178.699 123.33 178.609 122.759 178.738 122.216Z" fill="#B55B52"/>
<path d="M223.431 90.6262C224.597 87.3707 226.565 85.2746 228.365 85.0117C229.571 84.8432 234.592 85.6857 236.769 86.8181C238.947 87.9504 242.101 92.0483 242.263 93.5581C242.424 95.0678 240.476 98.8355 240.476 98.8355C240.476 98.8355 231.735 93.1402 223.431 90.6262Z" fill="#3E64FF"/>
<path d="M226.269 86.272C228.389 86.7476 230.478 87.3554 232.523 88.0918C232.827 88.2131 232.928 88.476 232.752 88.6984C232.409 89.1365 231.721 90.0464 231.256 90.7204C231.135 90.8581 230.974 90.9553 230.796 90.9986C230.617 91.042 230.43 91.0296 230.259 90.963C228.729 90.3969 226.1 89.5409 224.341 89.0623C224.024 88.9747 223.876 88.7456 223.97 88.5164C224.329 87.7388 224.832 87.0365 225.453 86.4472C225.567 86.3579 225.699 86.2957 225.841 86.2653C225.982 86.235 226.128 86.2373 226.269 86.272Z" fill="white"/>
<path d="M218.767 90.0327C225.251 90.0327 227.617 94.2991 230.973 95.546C234.33 96.7929 239.85 96.1661 239.85 96.1661C239.85 96.1661 228.594 88.8195 218.767 90.0327Z" fill="#3E64FF"/>
<path d="M153.522 124.254L203.778 117.994L201.163 96.9995L150.907 103.259L153.522 124.254Z" fill="#3E64FF"/>
<path opacity="0.4" d="M171.114 122.061L203.773 117.993L201.158 96.9985L168.499 101.066L171.114 122.061Z" fill="white"/>
<path opacity="0.3" d="M195.096 117.175L194.355 111.237L200.791 110.435L201.526 116.373L195.096 117.175ZM195.096 111.783L195.683 116.447L200.839 115.807L200.259 111.136L195.096 111.783Z" fill="white"/>
<path opacity="0.3" d="M187.446 118.132L186.705 112.194L193.135 111.392L193.876 117.33L187.446 118.132ZM187.446 112.74L188.026 117.404L193.189 116.764L192.609 112.1L187.446 112.74Z" fill="white"/>
<path d="M182.141 105.465L189.03 104.607L188.281 98.6008L181.392 99.4589L182.141 105.465Z" fill="white"/>
<path d="M158.486 108.42L162.412 107.931L161.664 101.925L157.738 102.414L158.486 108.42Z" fill="white"/>
<path d="M256.794 110.812C253.721 110.414 248.854 108.426 246.59 106.64C246.571 106.625 246.556 106.606 246.544 106.585C246.533 106.564 246.526 106.541 246.523 106.518C246.521 106.494 246.523 106.47 246.53 106.447C246.536 106.424 246.548 106.403 246.563 106.384C246.578 106.365 246.596 106.35 246.617 106.338C246.638 106.327 246.661 106.32 246.685 106.317C246.709 106.315 246.733 106.317 246.756 106.324C246.779 106.331 246.8 106.342 246.819 106.357C249.043 108.109 253.815 110.064 256.841 110.448C256.865 110.451 256.888 110.459 256.909 110.472C256.93 110.484 256.948 110.501 256.963 110.52C256.977 110.539 256.987 110.562 256.993 110.585C256.999 110.609 257 110.633 256.996 110.657C256.994 110.681 256.986 110.704 256.975 110.725C256.963 110.745 256.947 110.764 256.928 110.778C256.91 110.793 256.888 110.803 256.865 110.809C256.842 110.815 256.818 110.816 256.794 110.812V110.812Z" fill="white"/>
<path d="M211.912 155.822C211.89 155.828 211.867 155.828 211.845 155.822C208.974 154.656 204.781 151.488 203.049 149.183C203.03 149.144 203.025 149.099 203.035 149.056C203.046 149.013 203.071 148.976 203.106 148.949C203.141 148.923 203.184 148.91 203.228 148.912C203.272 148.914 203.313 148.931 203.346 148.961C205.044 151.225 209.162 154.353 211.987 155.485C212.03 155.506 212.065 155.542 212.082 155.587C212.1 155.633 212.099 155.683 212.081 155.728C212.064 155.758 212.04 155.782 212.01 155.799C211.98 155.816 211.946 155.824 211.912 155.822V155.822Z" fill="white"/>
<path d="M262.536 116.049C259.639 115.928 256.772 115.418 254.01 114.533C253.964 114.519 253.925 114.486 253.902 114.443C253.88 114.4 253.875 114.35 253.889 114.304C253.903 114.257 253.936 114.218 253.979 114.196C254.022 114.173 254.072 114.168 254.118 114.182C255.857 114.715 260.279 115.928 263.608 115.638C263.632 115.635 263.656 115.637 263.679 115.644C263.703 115.651 263.724 115.662 263.743 115.677C263.762 115.692 263.778 115.711 263.789 115.732C263.801 115.753 263.808 115.776 263.81 115.8C263.814 115.849 263.799 115.898 263.767 115.935C263.736 115.973 263.691 115.997 263.642 116.002C263.285 116.029 262.914 116.049 262.536 116.049Z" fill="white"/>
<path d="M101.39 87.0202C95.7754 93.5176 103.715 98.822 105.265 104.295C106.816 109.768 105.899 121.556 112.861 128.296C123.699 138.81 136.202 132.886 138.332 126.739C140.462 120.592 139.68 110.941 130.466 104.295C124.96 100.332 129.266 87.2224 124.191 85.652C125.222 77.746 100.318 72.0103 101.39 87.0202Z" fill="#263238"/>
<path d="M138.17 126.213C138.141 126.213 138.111 126.206 138.086 126.192C138.06 126.178 138.038 126.157 138.022 126.132C137.998 126.092 137.991 126.045 138.001 126C138.011 125.955 138.038 125.916 138.076 125.89C139.875 124.73 140.839 122.668 140.772 120.086C140.691 115.867 137.692 109.882 131.174 106.013C128.229 104.268 127.925 99.0576 127.649 94.461C127.44 90.8416 127.238 87.4177 125.822 86.2449C125.601 86.0677 125.346 85.9389 125.072 85.8669C124.797 85.795 124.511 85.7813 124.232 85.827C124.208 85.8308 124.184 85.8298 124.161 85.8239C124.138 85.8181 124.116 85.8076 124.097 85.7931C124.078 85.7786 124.063 85.7604 124.051 85.7395C124.039 85.7187 124.032 85.6957 124.03 85.672C124.026 85.6258 124.04 85.5799 124.068 85.5435C124.097 85.5072 124.139 85.4832 124.185 85.4765C124.513 85.4248 124.848 85.4418 125.17 85.5265C125.491 85.6112 125.791 85.7617 126.052 85.9686C127.575 87.2424 127.784 90.7405 127.999 94.4407C128.269 98.9498 128.572 104.059 131.369 105.71C137.206 109.174 141.041 114.816 141.136 120.08C141.19 122.776 140.165 124.959 138.258 126.186C138.232 126.204 138.201 126.213 138.17 126.213V126.213Z" fill="#263238"/>
<path d="M88.6176 132.576L86.4743 133.601L81.3047 132.468C80.711 132.337 80.1777 132.012 79.7882 131.545L78.6559 130.197C78.4042 129.895 78.2664 129.515 78.2664 129.122C78.2664 128.729 78.4042 128.348 78.6559 128.047L79.8354 126.658C80.1172 126.325 80.5182 126.115 80.9527 126.074C81.3872 126.032 81.8208 126.162 82.1607 126.436L85.0184 128.728C85.0184 128.728 88.4761 129.819 88.6176 132.576Z" fill="#FF8B7B"/>
<path d="M107.072 276.792L103.007 276.798L102.32 261.505L109.168 261.674L107.072 276.792Z" fill="#FF8B7B"/>
<path d="M99.9946 144.829C99.9946 144.829 99.6374 187.291 98.741 205.745C98.7073 206.295 98.7073 206.847 98.741 207.397C100.089 225.911 102.3 261.505 102.3 261.505L109.195 261.68C109.195 261.68 115.207 233.258 111.48 207.511C117.458 178.394 120.686 152.412 115.267 144.829H99.9946Z" fill="#263238"/>
<path d="M101.639 259.362C101.71 260.904 101.865 262.44 102.104 263.965C102.12 264.02 102.148 264.071 102.186 264.113C102.225 264.155 102.273 264.188 102.327 264.208C105.535 265.461 108.743 265.266 109.006 264.653C109.269 264.039 109.822 260.784 110.044 259.551C110.055 259.497 110.052 259.441 110.038 259.388C110.023 259.335 109.997 259.286 109.96 259.245C109.924 259.204 109.878 259.172 109.827 259.151C109.776 259.13 109.721 259.122 109.667 259.126C108.319 259.2 104.275 259.375 102.057 258.984C102.004 258.975 101.949 258.978 101.897 258.993C101.844 259.008 101.796 259.035 101.756 259.071C101.716 259.108 101.684 259.153 101.664 259.203C101.644 259.253 101.635 259.308 101.639 259.362V259.362Z" fill="#3E64FF"/>
<path opacity="0.2" d="M111.547 161.686C109.458 168.777 111.493 191.551 112.585 202.065C114.075 194.469 115.342 187.163 116.278 180.43L111.547 161.686Z" fill="black"/>
<path d="M102.549 274.817H107.84C107.951 274.811 108.06 274.849 108.145 274.922C108.229 274.995 108.281 275.097 108.292 275.208L108.824 279.542C108.829 279.676 108.806 279.81 108.758 279.935C108.709 280.061 108.636 280.175 108.542 280.271C108.448 280.368 108.336 280.444 108.212 280.496C108.088 280.548 107.954 280.574 107.82 280.573C105.495 280.532 104.376 280.404 101.437 280.404C99.6308 280.404 98.5322 280.593 96.0451 280.593C93.5581 280.593 93.5446 278.2 94.596 277.985C99.314 277.001 99.9139 276.462 101.552 275.181C101.834 274.951 102.185 274.823 102.549 274.817V274.817Z" fill="#263238"/>
<path d="M101.996 110.193C101.232 110.033 100.434 110.182 99.7791 110.607C99.1238 111.033 98.6634 111.7 98.4984 112.464V112.464C97.9322 115.106 97.3189 117.809 96.6853 120.464C96.0517 123.12 95.3373 125.762 94.5555 128.31C94.1578 129.577 93.7264 130.824 93.2479 131.983C93.0257 132.522 92.7737 133.049 92.493 133.56C92.4526 133.621 92.4189 133.688 92.3784 133.756C91.9156 133.559 91.4654 133.334 91.0304 133.082C89.9857 132.408 88.8669 131.626 87.8087 130.851L87.7346 130.797C87.4604 130.595 87.1253 130.494 86.7854 130.51C86.4454 130.526 86.1215 130.659 85.8678 130.886C85.6141 131.113 85.4461 131.42 85.3921 131.756C85.3381 132.092 85.4013 132.436 85.571 132.731C86.3136 134.063 87.2192 135.297 88.267 136.404C88.8427 137.023 89.4846 137.577 90.1812 138.056C90.6233 138.349 91.0983 138.589 91.5966 138.77C92.341 139.049 93.1482 139.117 93.9286 138.966C94.4456 138.86 94.9361 138.651 95.371 138.352C95.5748 138.206 95.7665 138.044 95.9439 137.867C96.0016 137.81 96.0556 137.749 96.1057 137.685L96.2337 137.537C96.5385 137.177 96.8178 136.796 97.0695 136.398C97.5046 135.713 97.8963 135.002 98.2422 134.268C98.9162 132.879 99.4352 131.511 99.9272 130.143C100.905 127.407 101.666 124.663 102.394 121.92C102.765 120.572 103.068 119.17 103.392 117.789C103.715 116.407 104.005 115.039 104.261 113.61C104.4 112.858 104.241 112.081 103.819 111.444C103.396 110.807 102.743 110.358 101.996 110.193V110.193Z" fill="#FF8B7B"/>
<path d="M97.885 139.066C97.885 140.805 124.885 141.142 124.885 138.851L111.089 135.333L97.885 139.066Z" fill="#263238"/>
<path d="M102.846 109.053C109.965 107.864 117.238 107.937 124.333 109.269C124.749 109.335 125.147 109.484 125.502 109.71C125.858 109.935 126.164 110.231 126.4 110.579C126.637 110.927 126.8 111.32 126.879 111.733C126.958 112.147 126.952 112.572 126.86 112.983C123.045 130.082 123.261 135.825 123.632 144.829H100.001C98.8151 129.813 98.1951 121.239 98.0333 116.373C97.912 112.666 99.1724 109.599 102.846 109.053Z" fill="#FF8B7B"/>
<path opacity="0.2" d="M124.265 114.021C124.114 116.406 124.43 118.799 125.196 121.064C125.492 119.439 125.87 117.694 126.247 115.786L124.265 114.021Z" fill="black"/>
<path d="M116.602 96.5708C115.928 99.9947 115.254 106.263 117.653 108.548C117.653 108.548 116.717 112.019 110.361 112.019C103.371 112.019 106.991 108.548 106.991 108.548C110.806 107.638 110.711 104.807 110.044 102.145L116.602 96.5708Z" fill="#FF8B7B"/>
<path opacity="0.2" d="M113.906 98.8491L110.044 102.145C110.207 102.763 110.315 103.395 110.368 104.032C111.83 103.823 113.832 102.219 113.987 100.696C114.07 100.08 114.042 99.4551 113.906 98.8491Z" fill="black"/>
<path d="M104.16 92.1764C105.818 97.6493 106.404 100.008 109.889 102.192C115.133 105.481 121.495 102.239 121.509 96.3822C121.509 91.1047 118.813 83.0302 112.828 82.1136C111.513 81.9044 110.167 82.0349 108.918 82.4924C107.668 82.95 106.556 83.7195 105.688 84.7278C104.819 85.7361 104.223 86.9498 103.955 88.2535C103.688 89.5572 103.758 90.9076 104.16 92.1764V92.1764Z" fill="#FF8B7B"/>
<path d="M104.76 95.9844C107.422 96.1799 108.554 91.9 107.26 89.541C105.966 87.182 101.201 91.9539 104.76 95.9844Z" fill="#263238"/>
<path d="M103.304 86.4674C111.716 90.9832 116.784 82.5312 121.192 87.0201C119.028 80.7721 107.126 78.1031 103.304 86.4674Z" fill="#263238"/>
<path d="M118.199 95.7082C115.924 95.283 113.619 95.0351 111.304 94.9668C111.85 96.2407 112.922 97.3258 115.53 97.4539C118.139 97.5819 118.199 95.7082 118.199 95.7082Z" fill="white"/>
<path d="M147.033 266.715L142.955 267.962L137.004 255.493L143.279 253.774L147.033 266.715Z" fill="#FF8B7B"/>
<path d="M142.073 267.578L146.534 264.882C146.618 264.829 146.718 264.808 146.816 264.823C146.914 264.838 147.003 264.888 147.067 264.963L150.066 268.454C150.139 268.541 150.192 268.643 150.222 268.752C150.252 268.862 150.258 268.977 150.239 269.089C150.22 269.201 150.178 269.307 150.114 269.401C150.051 269.495 149.968 269.575 149.871 269.634C148.179 270.618 147.849 270.766 145.753 272.121C144.485 272.95 142.706 275.194 140.954 276.347C139.201 277.499 138.002 275.915 138.521 275.174C140.035 273.142 141.072 270.794 141.554 268.306C141.585 268.155 141.648 268.013 141.737 267.888C141.826 267.763 141.941 267.657 142.073 267.578V267.578Z" fill="#263238"/>
<path d="M106.492 144.829C106.492 144.829 115.18 189.253 118.456 206.837C121.859 225.13 137.018 255.487 137.018 255.487L143.306 253.761C143.306 253.761 134.692 221.315 130.675 205.233C129.893 176.116 130.823 152.398 123.645 144.816L106.492 144.829Z" fill="#263238"/>
<path d="M134.8 252.144C135.453 253.53 136.179 254.88 136.977 256.188C137.014 256.232 137.061 256.267 137.113 256.292C137.165 256.316 137.223 256.329 137.28 256.329C140.718 256.268 143.616 254.873 143.623 254.206C143.623 253.647 142.908 250.31 142.645 249.09C142.635 249.036 142.612 248.985 142.578 248.942C142.544 248.898 142.501 248.862 142.451 248.838C142.402 248.814 142.347 248.802 142.292 248.802C142.237 248.803 142.182 248.816 142.133 248.841C140.913 249.421 137.267 251.112 135.043 251.598C134.984 251.607 134.929 251.631 134.882 251.667C134.835 251.704 134.798 251.751 134.774 251.805C134.75 251.859 134.74 251.919 134.744 251.978C134.749 252.037 134.768 252.094 134.8 252.144V252.144Z" fill="#3E64FF"/>
<path d="M113.374 91.5429C113.481 92.0012 113.812 92.3045 114.108 92.2169C114.405 92.1293 114.553 91.7249 114.445 91.2733C114.337 90.8217 114.014 90.5117 113.717 90.5993C113.421 90.6869 113.266 91.0913 113.374 91.5429Z" fill="#263238"/>
<path d="M118.489 90.316C118.597 90.7676 118.927 91.0776 119.224 90.99C119.52 90.9024 119.669 90.498 119.561 90.0397C119.453 89.5813 119.13 89.278 118.833 89.3657C118.536 89.4533 118.381 89.8779 118.489 90.316Z" fill="#263238"/>
<path d="M118.705 89.4401L119.716 88.8672C119.716 88.8672 119.365 89.8512 118.705 89.4401Z" fill="#263238"/>
<path d="M117.108 91.5225C117.753 92.459 118.527 93.3007 119.406 94.023C119.212 94.2397 118.974 94.412 118.708 94.5284C118.441 94.6447 118.153 94.7022 117.862 94.697L117.108 91.5225Z" fill="#FF5652"/>
<path d="M103.668 97.0157C104.287 97.9341 105.244 98.5711 106.33 98.7883C107.773 99.0579 108.352 97.7436 107.86 96.4428C107.402 95.2835 106.108 93.7468 104.713 94.0501C104.409 94.1233 104.128 94.2714 103.896 94.4808C103.664 94.6902 103.488 94.9543 103.385 95.249C103.281 95.5438 103.252 95.8598 103.302 96.1684C103.351 96.4769 103.477 96.7682 103.668 97.0157Z" fill="#FF8B7B"/>
<path d="M102.704 86.4677C105.346 82.4844 108.986 85.1197 109.633 86.0229C110.28 86.926 103.095 93.9289 106.168 100.703C102.529 98.8491 99.5903 92.4528 102.704 86.4677Z" fill="#263238"/>
<path d="M111.264 91.1115C111.321 91.1014 111.373 91.0727 111.412 91.0301C111.451 90.9875 111.475 90.9332 111.48 90.8756C111.594 89.6152 113.003 88.7929 113.016 88.7862C113.078 88.7496 113.123 88.6905 113.142 88.6213C113.161 88.5521 113.152 88.4783 113.117 88.4155C113.1 88.3843 113.076 88.3569 113.048 88.3349C113.02 88.3129 112.988 88.2967 112.953 88.2873C112.919 88.2779 112.883 88.2755 112.847 88.2801C112.812 88.2848 112.778 88.2964 112.747 88.3144C112.673 88.3548 111.075 89.285 110.934 90.8217C110.93 90.8577 110.934 90.894 110.944 90.9285C110.955 90.9631 110.972 90.9952 110.996 91.0228C111.019 91.0505 111.047 91.0732 111.08 91.0896C111.112 91.106 111.147 91.1157 111.183 91.1183C111.21 91.1226 111.238 91.1203 111.264 91.1115Z" fill="#263238"/>
<path d="M119.905 87.5661C119.965 87.5765 120.027 87.5662 120.08 87.5367C120.134 87.5073 120.176 87.4605 120.199 87.4042C120.223 87.3478 120.226 87.2851 120.21 87.2263C120.193 87.1676 120.157 87.1163 120.107 87.0809C119.771 86.8054 119.374 86.615 118.95 86.5258C118.525 86.4366 118.085 86.4513 117.667 86.5686C117.632 86.5791 117.599 86.5968 117.571 86.6205C117.544 86.6443 117.521 86.6736 117.505 86.7066C117.489 86.7396 117.481 86.7756 117.479 86.8121C117.478 86.8487 117.485 86.8852 117.498 86.9191C117.51 86.9528 117.528 86.984 117.551 87.0107C117.575 87.0375 117.603 87.0593 117.635 87.075C117.667 87.0906 117.702 87.0998 117.737 87.102C117.773 87.1042 117.809 87.0993 117.842 87.0876V87.0876C118.174 86.9999 118.522 86.9926 118.857 87.0665C119.193 87.1403 119.505 87.2931 119.77 87.5122C119.81 87.5398 119.856 87.5582 119.905 87.5661Z" fill="#263238"/>
<path d="M136.755 129.307C136.755 129.132 136.721 128.943 136.687 128.748L136.633 128.451L136.586 128.249C136.519 128.006 136.458 127.743 136.384 127.521C135.844 125.835 135.146 124.204 134.301 122.648C133.533 121.152 132.69 119.73 131.821 118.334C130.089 115.531 128.269 112.875 126.267 110.246C125.776 109.695 125.097 109.348 124.362 109.274C123.628 109.199 122.893 109.402 122.301 109.842C121.709 110.283 121.303 110.929 121.164 111.654C121.025 112.379 121.162 113.129 121.549 113.758V113.792C123.349 116.299 125.182 118.894 126.901 121.468C127.75 122.769 128.572 124.077 129.347 125.378C130.086 126.601 130.73 127.878 131.275 129.199C131.342 129.348 131.376 129.482 131.423 129.617L131.457 129.705C131.457 129.705 131.457 129.705 131.457 129.745C131.486 129.931 131.486 130.119 131.457 130.305C131.377 130.928 131.235 131.543 131.032 132.138C130.555 133.543 129.988 134.917 129.334 136.249C128.66 137.638 127.986 139.026 127.204 140.394C126.422 141.763 125.674 143.158 124.906 144.513C124.728 144.827 124.672 145.196 124.749 145.549C124.827 145.902 125.031 146.214 125.324 146.426C125.616 146.637 125.977 146.734 126.336 146.697C126.695 146.66 127.028 146.492 127.271 146.225C129.47 143.779 131.473 141.165 133.263 138.406C134.201 136.964 135.021 135.45 135.717 133.877C136.109 132.989 136.41 132.063 136.613 131.113C136.732 130.519 136.78 129.913 136.755 129.307V129.307Z" fill="#FF8B7B"/>
<path d="M113.589 90.653L114.607 90.0801C114.607 90.0801 114.25 91.0641 113.589 90.653Z" fill="#263238"/>
<path d="M98.6939 114.688C99.1338 112.913 99.6945 111.17 100.372 109.471C101.456 109.161 102.563 108.936 103.681 108.797C105.947 110.808 107.815 113.227 109.188 115.928C112.214 112.875 117.99 109.788 121.516 108.655C122.717 108.576 123.923 108.727 125.067 109.1C122.668 116.676 120.221 124.306 124.562 126.26C124.488 129.86 124.697 134.348 124.872 138.837C120.767 138.392 104.484 137.611 97.8716 139.053C97.5346 134.476 97.4065 130.581 97.4335 127.258C94.36 123.342 97.42 117.997 98.6939 114.688Z" fill="#3E64FF"/>
<path d="M117.755 112.639C117 112.302 116.191 111.918 115.369 111.479L115.005 111.682C115.908 112.167 116.791 112.592 117.606 112.962C118.199 113.232 118.799 113.495 119.406 113.758C120.666 114.31 121.933 114.876 123.174 115.49C123.207 115.375 123.234 115.261 123.268 115.139C122.041 114.539 120.788 113.98 119.547 113.434L117.755 112.639Z" fill="white"/>
<path d="M112.336 124.306C110.347 122.958 108.292 121.529 106.222 120.228C103.691 118.535 100.919 117.233 97.9997 116.366L97.8582 116.696C100.763 117.55 103.52 118.843 106.034 120.532C108.096 121.826 110.152 123.228 112.133 124.576C116.11 127.272 120.221 130.116 124.636 132.198C124.636 132.064 124.636 131.936 124.636 131.808C120.282 129.765 116.252 126.995 112.336 124.306Z" fill="white"/>
<path d="M124.562 127.885V127.5L123.949 127.238C115.187 123.456 106.088 119.547 99.1724 112.956C99.132 113.084 99.0983 113.212 99.0579 113.34C106.007 119.898 115.052 123.793 123.807 127.561L124.562 127.885Z" fill="white"/>
<path d="M114.391 114.904C116.959 116.575 119.588 118.274 122.297 119.844C122.297 119.716 122.331 119.595 122.345 119.467C119.689 117.923 117.108 116.252 114.587 114.607L112.504 113.259L112.194 113.482L114.391 114.904Z" fill="white"/>
<path d="M103.735 132.778C101.433 131.668 99.3113 130.219 97.4402 128.478C97.4402 128.64 97.4402 128.808 97.4402 128.97C99.2802 130.627 101.345 132.016 103.574 133.095C105.38 133.998 107.274 134.78 109.107 135.542C111.129 136.377 113.225 137.253 115.207 138.291H116.002C113.813 137.138 111.563 136.103 109.262 135.191C107.422 134.477 105.528 133.695 103.735 132.778Z" fill="white"/>
<path d="M104.241 138.365C101.751 137.233 99.4895 135.655 97.5682 133.708C97.5682 133.89 97.5682 134.072 97.5682 134.254C99.3125 135.947 101.317 137.349 103.506 138.406L104.241 138.365Z" fill="white"/>
<path d="M122.924 132.859C119.911 131.309 116.703 130.022 113.603 128.781C108.615 126.759 103.459 124.737 99.0713 121.516C98.25 120.929 97.4789 120.275 96.7662 119.561C96.7258 119.689 96.6786 119.817 96.6449 119.945C97.3333 120.621 98.0748 121.241 98.8624 121.799C103.291 125.027 108.467 127.103 113.475 129.105C116.568 130.345 119.77 131.626 122.762 133.149C123.434 133.49 124.084 133.87 124.71 134.288V133.857C124.132 133.494 123.536 133.161 122.924 132.859Z" fill="white"/>
<path d="M107.2 130.756C104.079 128.633 100.851 126.436 97.5212 124.535C97.0715 124.28 96.6054 124.055 96.126 123.861C96.126 123.989 96.126 124.124 96.1664 124.252C96.5708 124.434 96.9685 124.65 97.3459 124.866C100.662 126.76 103.884 128.957 106.998 131.073C110.815 133.774 114.787 136.249 118.894 138.487L119.736 138.528C115.394 136.211 111.206 133.615 107.2 130.756V130.756Z" fill="white"/>
<path d="M128.781 143.832L126.604 142.888L121.475 144.236C120.887 144.391 120.366 144.734 119.992 145.213L118.914 146.622C118.672 146.935 118.549 147.322 118.565 147.716C118.581 148.111 118.735 148.487 119.001 148.779L120.228 150.127C120.521 150.45 120.929 150.646 121.364 150.674C121.799 150.701 122.228 150.558 122.56 150.275L125.344 147.883C125.344 147.883 128.68 146.258 128.781 143.832Z" fill="#FF8B7B"/>
<path d="M125.364 143.003C125.452 144.189 126.166 146.197 127.224 147.047C127.817 146.858 128.316 145.928 128.316 145.928C127.217 144.844 126.52 143.417 126.341 141.884C125.916 142.156 125.577 142.544 125.364 143.003V143.003Z" fill="#3E64FF"/>
<path d="M88.4693 131.781C89.0691 129.408 86.7303 128.31 85.6924 125.398C85.3082 124.32 84.5735 124.865 84.5264 126.038C84.5809 127.451 84.8867 128.844 85.4295 130.15L88.4693 131.781Z" fill="#FF8B7B"/>
<path d="M86.818 130.082L82.9088 130.904C82.6909 130.938 82.4679 130.903 82.271 130.804C82.074 130.705 81.9129 130.547 81.8102 130.352L77.1259 121.024C77.0773 120.944 77.0489 120.853 77.0432 120.76C77.0375 120.667 77.0546 120.574 77.0932 120.489C77.1317 120.404 77.1905 120.329 77.2643 120.272C77.3381 120.215 77.4248 120.177 77.5168 120.161L81.426 119.345C81.6432 119.31 81.8661 119.343 82.0632 119.441C82.2603 119.539 82.4217 119.697 82.5246 119.891L87.2089 129.219C87.2593 129.299 87.2891 129.389 87.2956 129.483C87.3022 129.577 87.2853 129.671 87.2466 129.756C87.2078 129.842 87.1483 129.917 87.0735 129.973C86.9987 130.03 86.9109 130.068 86.818 130.082Z" fill="#3E64FF"/>
<path d="M82.0259 117.492C82.0025 117.491 81.9796 117.486 81.9585 117.475C81.9374 117.465 81.9187 117.451 81.9035 117.433C81.8883 117.416 81.8769 117.395 81.8701 117.372C81.8634 117.35 81.8613 117.326 81.8641 117.303L81.9652 115.955C81.967 115.932 81.9732 115.91 81.9836 115.889C81.994 115.869 82.0084 115.85 82.026 115.835C82.0435 115.82 82.0638 115.809 82.0858 115.802C82.1078 115.794 82.1309 115.792 82.154 115.794C82.1998 115.799 82.2421 115.821 82.2721 115.856C82.3021 115.891 82.3177 115.936 82.3157 115.982L82.2146 117.33C82.2129 117.353 82.2067 117.376 82.1963 117.396C82.1858 117.417 82.1715 117.435 82.1539 117.45C82.1364 117.465 82.116 117.477 82.0941 117.484C82.0721 117.491 82.0489 117.494 82.0259 117.492V117.492Z" fill="#3E64FF"/>
<path d="M83.3873 118.011C83.3415 118.009 83.2982 117.99 83.266 117.957C83.2342 117.923 83.2166 117.879 83.2166 117.832C83.2166 117.786 83.2342 117.741 83.266 117.708L85.6385 115.335C85.6722 115.303 85.7168 115.286 85.7632 115.286C85.8095 115.286 85.8541 115.303 85.8879 115.335C85.9052 115.351 85.9191 115.37 85.9286 115.392C85.9381 115.413 85.943 115.436 85.943 115.46C85.943 115.483 85.9381 115.506 85.9286 115.528C85.9191 115.549 85.9052 115.569 85.8879 115.584L83.5154 117.95C83.4992 117.968 83.4795 117.983 83.4575 117.994C83.4355 118.004 83.4116 118.01 83.3873 118.011V118.011Z" fill="#3E64FF"/>
<path d="M83.9199 119.372C83.879 119.372 83.8395 119.357 83.8077 119.332C83.7759 119.306 83.7537 119.27 83.7446 119.231C83.7368 119.185 83.7472 119.138 83.7737 119.1C83.8003 119.062 83.8407 119.037 83.8861 119.028L86.3328 118.516C86.3784 118.506 86.426 118.515 86.4652 118.54C86.5043 118.566 86.5319 118.605 86.5417 118.651C86.5515 118.697 86.5429 118.744 86.5176 118.783C86.4923 118.823 86.4525 118.85 86.4069 118.86L83.9535 119.372H83.9199Z" fill="#3E64FF"/>
<path d="M86.3866 130.709L82.4842 131.531C82.2661 131.565 82.043 131.531 81.8451 131.433C81.6473 131.335 81.4844 131.179 81.3788 130.985L76.7013 121.657C76.6509 121.578 76.6211 121.487 76.6145 121.393C76.608 121.3 76.6248 121.206 76.6636 121.12C76.7024 121.035 76.7619 120.96 76.8367 120.903C76.9115 120.846 76.9993 120.809 77.0922 120.794L80.9946 119.972C81.2127 119.938 81.4358 119.973 81.6337 120.07C81.8315 120.168 81.9944 120.324 82.1 120.518L86.7843 129.846C86.833 129.926 86.8612 130.017 86.8665 130.111C86.8718 130.205 86.8541 130.298 86.8148 130.383C86.7756 130.469 86.716 130.543 86.6413 130.6C86.5667 130.656 86.4792 130.694 86.3866 130.709Z" fill="#263238"/>
<path d="M78.676 128.019L79.4444 127.103C79.5451 126.98 79.6735 126.884 79.819 126.821C79.9644 126.758 80.1228 126.731 80.2809 126.741C80.439 126.752 80.5923 126.8 80.7281 126.882C80.864 126.963 80.9784 127.076 81.062 127.211L82.41 129.314C82.6842 129.74 82.8328 130.234 82.8388 130.741C82.8447 131.248 82.7078 131.746 82.4437 132.178L82.3291 132.367L78.676 128.019Z" fill="#FF8B7B"/>
<path d="M41.9498 66.234L41.3634 65.8565C43.7804 62.1001 47.0357 58.9555 50.8735 56.6699L51.224 57.29C47.4862 59.5188 44.3126 62.5794 41.9498 66.234V66.234Z" fill="#3E64FF"/>
<path d="M37.9395 76.5732L37.2655 76.4518C37.6155 74.3848 38.1966 72.3636 38.9977 70.4263L39.6717 70.6891C38.8802 72.581 38.2993 74.5542 37.9395 76.5732V76.5732Z" fill="#3E64FF"/>
<path d="M91.5629 81.2776C91.5711 75.9546 89.9551 70.7558 86.9307 66.3754C83.9063 61.995 79.6176 58.6416 74.6371 56.7629C69.6566 54.8842 64.2215 54.5697 59.0576 55.8614C53.8937 57.1531 49.2467 59.9895 45.7373 63.9918C42.2278 67.9941 40.023 72.9718 39.4171 78.2602C38.8112 83.5486 39.8332 88.896 42.3465 93.5883C44.8598 98.2806 48.7449 102.094 53.4829 104.521C58.2209 106.947 63.5863 107.87 68.8626 107.166L78.0897 114.108L80.1117 102.866C83.6369 100.475 86.5235 97.2575 88.5195 93.4945C90.5156 89.7315 91.5604 85.5372 91.5629 81.2776V81.2776Z" fill="#3E64FF"/>
<path d="M58.0651 89.716C57.9703 89.7164 57.878 89.6856 57.8025 89.6284C57.727 89.5711 57.6724 89.4906 57.6472 89.3992L53.0101 73.6343C52.993 73.5718 52.9896 73.5064 53.0001 73.4424C53.0105 73.3784 53.0346 73.3175 53.0708 73.2636C53.107 73.2099 53.155 73.165 53.211 73.1323C53.267 73.0997 53.3296 73.08 53.3943 73.0749L76.836 70.9383C76.8987 70.9318 76.9621 70.9393 77.0216 70.9602C77.081 70.9812 77.1351 71.0152 77.1797 71.0597C77.2259 71.1037 77.2618 71.1573 77.2851 71.2166C77.3084 71.276 77.3184 71.3398 77.3145 71.4034L76.2429 87.6873C76.2355 87.7916 76.1916 87.89 76.1189 87.9652C76.0462 88.0404 75.9493 88.0876 75.8452 88.0984L58.1055 89.7093L58.0651 89.716ZM54.0211 73.8972L58.4021 88.8061L75.4206 87.2559L76.4316 71.855L54.0211 73.8972Z" fill="white"/>
<path d="M53.4348 73.9446C53.3667 73.9451 53.2994 73.9295 53.2385 73.8991C53.1776 73.8686 53.1247 73.8242 53.0843 73.7693L51.224 71.2418L47.5979 71.5721C47.482 71.5815 47.367 71.5452 47.2776 71.4709C47.1881 71.3965 47.1313 71.2901 47.1194 71.1745C47.11 71.0585 47.1463 70.9435 47.2206 70.8541C47.295 70.7646 47.4014 70.7079 47.517 70.6959L51.3925 70.3454C51.4671 70.34 51.5419 70.3532 51.6101 70.3837C51.6783 70.4143 51.7379 70.4614 51.7835 70.5207L53.8055 73.2504C53.8395 73.2963 53.864 73.3485 53.8776 73.4039C53.8913 73.4594 53.8938 73.517 53.885 73.5734C53.8763 73.6298 53.8564 73.6839 53.8265 73.7326C53.7967 73.7813 53.7574 73.8236 53.7111 73.857C53.633 73.9193 53.5345 73.9505 53.4348 73.9446Z" fill="white"/>
<path d="M61.0712 96.1799C60.644 96.1794 60.2262 96.0548 59.8685 95.8212C59.5109 95.5876 59.2288 95.2551 59.0567 94.8642C58.8845 94.4732 58.8297 94.0407 58.8988 93.6191C58.968 93.1976 59.1582 92.8052 59.4462 92.4898C59.7343 92.1743 60.1078 91.9494 60.5213 91.8423C60.9349 91.7353 61.3706 91.7507 61.7756 91.8867C62.1805 92.0227 62.5372 92.2735 62.8022 92.6085C63.0673 92.9436 63.2292 93.3484 63.2684 93.7738V93.7738C63.2952 94.0641 63.2639 94.3568 63.1764 94.635C63.0889 94.9131 62.9469 95.171 62.7587 95.3937C62.5705 95.6164 62.3399 95.7994 62.0802 95.9321C61.8206 96.0648 61.5372 96.1444 61.2464 96.1664L61.0712 96.1799ZM61.0712 92.6414H60.9499C60.6825 92.6616 60.4271 92.7611 60.2166 92.9271C60.006 93.0932 59.8498 93.3183 59.7678 93.5736C59.6858 93.8289 59.6819 94.1029 59.7564 94.3605C59.831 94.618 59.9807 94.8475 60.1864 95.0196C60.3921 95.1916 60.6444 95.2984 60.9111 95.3263C61.1778 95.3542 61.4468 95.3019 61.6836 95.1761C61.9205 95.0503 62.1144 94.8567 62.2406 94.6201C62.3668 94.3835 62.4196 94.1147 62.3922 93.8479C62.3578 93.5212 62.2052 93.2183 61.9632 92.9961C61.7212 92.774 61.4064 92.6478 61.0779 92.6414H61.0712Z" fill="white"/>
<path d="M73.0617 95.088C72.5466 95.0877 72.048 94.9064 71.653 94.5758C71.206 94.1996 70.9256 93.6622 70.8726 93.0804C70.8195 92.4986 70.9983 91.9194 71.3699 91.4686C71.649 91.1334 72.0213 90.8885 72.4397 90.765C72.858 90.6415 73.3037 90.6449 73.7201 90.7748C74.1365 90.9047 74.505 91.1553 74.779 91.4948C75.0529 91.8342 75.2199 92.2474 75.2589 92.6818V92.6818C75.2847 92.972 75.2528 93.2644 75.1649 93.5422C75.0771 93.8199 74.935 94.0775 74.747 94.3C74.559 94.5225 74.3287 94.7055 74.0695 94.8384C73.8103 94.9714 73.5273 95.0516 73.2369 95.0745L73.0617 95.088ZM73.0617 91.5495H72.9403C72.6832 91.5817 72.4408 91.6872 72.2421 91.8536C72.0434 92.02 71.8969 92.2401 71.8201 92.4876C71.7433 92.7351 71.7394 92.9995 71.809 93.2491C71.8786 93.4987 72.0186 93.723 72.2124 93.895C72.3457 94.0079 72.5003 94.0928 72.667 94.1449C72.8337 94.197 73.0091 94.2152 73.183 94.1983C73.5323 94.1625 73.8539 93.9917 74.0792 93.7223C74.3046 93.4529 74.4159 93.1062 74.3894 92.756C74.3547 92.427 74.2002 92.1223 73.9554 91.8998C73.7106 91.6773 73.3925 91.5527 73.0617 91.5495Z" fill="white"/>
<path d="M64.6501 85.0318C64.4037 85.0277 64.166 84.9397 63.9761 84.7824L60.1546 81.6012C59.9765 81.4108 59.8734 81.1624 59.8643 80.9019C59.8552 80.6414 59.9409 80.3864 60.1053 80.1841C60.2697 79.9819 60.5019 79.846 60.7587 79.8017C61.0156 79.7574 61.2799 79.8076 61.5026 79.9431L64.4951 82.4302L70.6555 75.0162C70.8446 74.8316 71.0948 74.7229 71.3588 74.7106C71.6228 74.6984 71.882 74.7835 72.0874 74.9498C72.2928 75.1161 72.4299 75.352 72.4728 75.6127C72.5158 75.8734 72.4615 76.1408 72.3203 76.3642L65.4792 84.6476C65.3778 84.7688 65.251 84.8661 65.1076 84.9325C64.9643 84.9989 64.8081 85.0328 64.6501 85.0318V85.0318Z" fill="white"/>
</svg>
