<svg width="199" height="277" viewBox="0 0 199 277" fill="none" xmlns="http://www.w3.org/2000/svg">
<path d="M107.565 266.836C109.23 267.371 156.614 266.759 158.401 265.59C159.089 265.155 159.402 258.248 159.54 249.883V249.623C159.54 247.904 159.593 246.124 159.601 244.328C159.601 244.084 159.601 243.832 159.601 243.564C159.662 231.501 159.471 218.979 159.471 218.979L127.773 219.3L128.728 243.648L128.766 244.619L128.957 249.653V250.173C128.957 250.173 110.919 258.523 109.093 260.013C107.267 261.503 105.899 266.309 107.565 266.836Z" fill="#F7A9A0"/>
<path d="M107.565 266.836C109.23 267.37 156.614 266.759 158.401 265.59C159.089 265.155 159.402 258.248 159.54 249.882V249.623C159.54 247.904 159.593 246.124 159.601 244.328C159.601 244.084 159.601 243.832 159.601 243.564L128.728 243.648L128.766 244.619L128.957 249.653V250.173C128.957 250.173 110.919 258.523 109.093 260.013C107.267 261.503 105.899 266.308 107.565 266.836Z" fill="#EBEBEB"/>
<path d="M107.565 266.836C108.596 267.172 126.948 267.057 141.318 266.652C150.295 266.408 157.706 266.041 158.401 265.59C159.097 265.14 159.395 258.439 159.532 250.234C159.532 250.119 159.532 250.005 159.532 249.89V249.623L128.972 249.676V250.203C128.972 250.203 110.942 258.546 109.108 260.036C107.275 261.526 105.907 266.309 107.565 266.836Z" fill="#3E64FF"/>
<path d="M108.077 264.994C116.061 264.689 148.294 264.23 156.209 264.544C156.27 264.544 156.27 264.597 156.209 264.597C148.301 265.071 116.061 265.262 108.077 265.124C107.909 265.117 107.909 264.994 108.077 264.994Z" fill="#263238"/>
<path d="M125.58 249.806C128.712 249.18 132.563 249.615 134.992 251.823C135.092 251.907 134.992 252.045 134.863 252.014C131.842 251.081 128.73 250.474 125.58 250.203C125.527 250.203 125.477 250.182 125.44 250.145C125.402 250.108 125.381 250.057 125.381 250.005C125.381 249.952 125.402 249.902 125.44 249.864C125.477 249.827 125.527 249.806 125.58 249.806Z" fill="#263238"/>
<path d="M123.288 251.204C126.428 250.578 130.279 251.013 132.708 253.221C132.8 253.305 132.708 253.435 132.578 253.404C129.562 252.476 126.455 251.872 123.311 251.601C123.258 251.604 123.207 251.586 123.167 251.551C123.128 251.516 123.104 251.467 123.101 251.414C123.098 251.361 123.116 251.31 123.151 251.27C123.186 251.231 123.235 251.207 123.288 251.204Z" fill="#263238"/>
<path d="M121.065 252.602C124.197 251.976 128.048 252.411 130.477 254.619C130.577 254.703 130.477 254.833 130.347 254.803C127.331 253.872 124.225 253.265 121.08 252.992C121.035 252.985 120.993 252.962 120.962 252.928C120.932 252.893 120.914 252.849 120.912 252.803C120.91 252.757 120.924 252.712 120.952 252.675C120.98 252.639 121.02 252.613 121.065 252.602Z" fill="#263238"/>
<path d="M122.853 247.468C125.099 249.164 128.002 249.837 130.607 250.761C130.667 250.777 130.729 250.778 130.789 250.765C130.849 250.753 130.905 250.726 130.953 250.687C131 250.648 131.038 250.599 131.063 250.543C131.088 250.486 131.099 250.425 131.096 250.364C131.15 250.364 131.195 250.31 131.173 250.249C130.18 247.48 128.478 245.019 126.237 243.113C124.908 242.029 122.6 241.288 121.386 243.007C120.171 244.726 121.546 246.475 122.853 247.468ZM122.02 244.947C121.424 241.501 125.152 243.266 126.092 244.107C126.695 244.66 127.259 245.255 127.78 245.887C128.842 247.204 129.836 248.573 130.76 249.989C129.507 249.455 128.216 249.034 126.94 248.546C125.427 247.965 122.348 246.88 122.02 244.947Z" fill="#263238"/>
<path d="M141.624 245.352C140.86 243.404 138.423 243.587 136.88 244.336C134.262 245.679 132.042 247.683 130.439 250.15C130.431 250.161 130.426 250.174 130.424 250.187C130.422 250.2 130.424 250.214 130.428 250.227C130.433 250.239 130.44 250.251 130.45 250.26C130.46 250.269 130.472 250.276 130.485 250.28C130.466 250.338 130.462 250.401 130.473 250.461C130.484 250.522 130.509 250.579 130.546 250.628C130.584 250.676 130.633 250.715 130.688 250.741C130.744 250.767 130.805 250.779 130.867 250.776C133.617 250.478 136.597 250.494 139.172 249.355C140.654 248.66 142.342 247.17 141.624 245.352ZM134.947 249.462C133.594 249.646 132.242 249.76 130.897 249.989C132.158 248.866 133.365 247.697 134.717 246.681C135.37 246.192 136.054 245.745 136.765 245.344C137.88 244.741 141.914 243.885 140.539 247.094C139.783 248.836 136.528 249.218 134.924 249.432L134.947 249.462Z" fill="#263238"/>
<path d="M112.042 258.684C112.931 258.649 113.818 258.798 114.646 259.123C115.475 259.448 116.227 259.941 116.855 260.571C117.993 261.697 118.655 263.218 118.704 264.819C118.704 264.864 118.62 264.864 118.612 264.819C118.317 263.238 117.517 261.796 116.333 260.709C115.148 259.622 113.642 258.949 112.042 258.791C112.028 258.791 112.014 258.785 112.004 258.775C111.994 258.765 111.988 258.751 111.988 258.737C111.988 258.723 111.994 258.709 112.004 258.699C112.014 258.689 112.028 258.684 112.042 258.684Z" fill="#263238"/>
<path d="M154.161 257.293C157.752 257.255 157.821 262.84 154.222 262.878C150.624 262.916 150.563 257.339 154.161 257.293Z" fill="#263238"/>
<path d="M141.318 266.652C150.295 266.408 157.706 266.041 158.401 265.59C159.097 265.139 159.395 258.439 159.532 250.234C155.85 253.519 146.705 261.671 141.318 266.652Z" fill="#263238"/>
<path d="M169.204 82.5129C169.204 82.5129 162.092 162.58 160.93 168.692C160.663 170.083 160.495 177.646 160.388 187.38C160.143 208.603 160.289 246.88 160.289 246.88H126.886C126.886 246.88 127.88 180.557 129.354 168.348C130.829 156.14 140.287 82.5129 140.287 82.5129H169.204Z" fill="#455A64"/>
<path d="M128.399 241.058C133.61 240.951 132.112 240.913 137.323 240.86C139.874 240.86 156.637 240.691 159.02 241.081C159.074 241.081 159.074 241.18 159.02 241.188C156.637 241.585 139.874 241.44 137.323 241.417C132.112 241.364 133.61 241.326 128.399 241.211C128.379 241.211 128.359 241.203 128.345 241.189C128.331 241.174 128.323 241.155 128.323 241.135C128.323 241.114 128.331 241.095 128.345 241.081C128.359 241.066 128.379 241.058 128.399 241.058Z" fill="#263238"/>
<path d="M153.94 203.149L154.054 188.633C154.054 183.942 154.054 179.243 154.299 174.56C154.757 165.063 156.682 155.735 158.05 146.353C159.418 136.971 160.564 127.536 161.595 118.085C162.756 107.503 163.78 96.8992 164.873 86.3101C164.873 86.2414 164.987 86.2414 164.98 86.3101C163.413 105.219 161.656 124.12 159.036 142.915C158.384 147.591 157.673 152.256 156.904 156.911C156.14 161.625 155.376 166.347 154.979 171.106C154.581 175.866 154.551 180.458 154.505 185.134C154.449 189.977 154.401 194.816 154.36 199.65C154.253 210.407 154.154 226.963 154.047 237.712C154.047 237.755 154.03 237.795 154 237.825C153.97 237.856 153.929 237.872 153.886 237.872C153.844 237.872 153.803 237.856 153.773 237.825C153.743 237.795 153.726 237.755 153.726 237.712C153.795 228.131 153.848 212.737 153.94 203.149Z" fill="#263238"/>
<path d="M176.249 82.5129C176.249 82.5129 162.092 162.58 160.93 168.692C160.663 170.083 160.495 177.646 160.388 187.38L144.466 82.5129H176.249Z" fill="#263238"/>
<path d="M146.353 269.662C148.049 270.075 195.249 266.11 196.968 264.811C197.625 264.337 197.449 257.423 196.968 249.073C196.968 248.981 196.968 248.897 196.968 248.813C196.876 247.086 196.777 245.314 196.655 243.526C196.655 243.274 196.617 243.029 196.609 242.762C195.845 230.721 194.745 218.253 194.745 218.253L163.146 220.812L165.82 245.031L165.927 245.994L166.477 251.006L166.53 251.525C166.53 251.525 149.134 261.129 147.43 262.748C145.727 264.368 144.68 269.25 146.353 269.662Z" fill="#F7A9A0"/>
<path d="M146.353 269.662C148.049 270.075 195.249 266.11 196.968 264.811C197.625 264.337 197.449 257.423 196.968 249.073C196.968 248.981 196.968 248.897 196.968 248.813C196.876 247.086 196.777 245.314 196.655 243.526C196.655 243.274 196.617 243.029 196.609 242.762L165.82 245.054L165.927 246.017L166.477 251.028L166.53 251.548C166.53 251.548 149.134 261.151 147.43 262.771C145.727 264.391 144.68 269.25 146.353 269.662Z" fill="#EBEBEB"/>
<path d="M146.353 269.663C148.049 270.075 195.249 266.11 196.968 264.811C197.625 264.337 197.449 257.423 196.968 249.073C196.968 248.981 196.968 248.897 196.968 248.813L166.477 251.029L166.53 251.548C166.53 251.548 149.134 261.152 147.43 262.771C145.727 264.391 144.68 269.25 146.353 269.663Z" fill="#3E64FF"/>
<path d="M146.735 267.783C154.673 266.92 186.799 264.184 194.714 263.963C194.783 263.963 194.783 264.001 194.714 264.009C186.86 265.04 154.719 267.516 146.735 267.943C146.575 267.92 146.567 267.806 146.735 267.783Z" fill="#263238"/>
<path d="M163.1 251.403C166.156 250.555 170.052 250.715 172.635 252.74C172.734 252.824 172.635 252.961 172.52 252.939C169.445 252.227 166.302 251.846 163.146 251.8C163.1 251.794 163.058 251.773 163.026 251.74C162.994 251.707 162.974 251.665 162.968 251.619C162.963 251.574 162.973 251.528 162.997 251.489C163.021 251.449 163.057 251.419 163.1 251.403Z" fill="#263238"/>
<path d="M160.953 252.992C164.009 252.144 167.906 252.304 170.488 254.337C170.587 254.413 170.488 254.55 170.373 254.528C167.298 253.816 164.155 253.435 160.999 253.389C160.954 253.383 160.911 253.362 160.879 253.329C160.847 253.296 160.827 253.254 160.822 253.208C160.816 253.163 160.826 253.117 160.85 253.078C160.874 253.038 160.91 253.008 160.953 252.992Z" fill="#263238"/>
<path d="M158.806 254.52C161.862 253.672 165.759 253.832 168.341 255.865C168.44 255.941 168.341 256.086 168.227 256.063C165.152 255.346 162.009 254.961 158.852 254.917C158.807 254.911 158.765 254.89 158.732 254.857C158.7 254.825 158.68 254.782 158.675 254.736C158.669 254.691 158.68 254.645 158.703 254.606C158.727 254.566 158.763 254.536 158.806 254.52Z" fill="#263238"/>
<path d="M160.227 249.256C162.588 250.784 165.537 251.25 168.204 251.991C168.479 252.067 168.67 251.8 168.662 251.563C168.675 251.561 168.688 251.556 168.698 251.548C168.709 251.54 168.718 251.53 168.724 251.518C168.73 251.506 168.733 251.493 168.733 251.479C168.733 251.466 168.729 251.453 168.723 251.441C167.538 248.749 165.668 246.415 163.299 244.672C161.893 243.686 159.54 243.144 158.455 244.909C157.37 246.674 158.852 248.354 160.227 249.256ZM159.196 246.804C158.356 243.411 162.199 244.909 163.199 245.673C163.842 246.181 164.447 246.735 165.01 247.331C166.163 248.568 167.252 249.863 168.272 251.212C166.981 250.769 165.667 250.448 164.361 250.043C162.833 249.569 159.685 248.668 159.196 246.804Z" fill="#263238"/>
<path d="M178.777 245.788C177.861 243.9 175.462 244.26 173.979 245.115C171.459 246.634 169.382 248.789 167.959 251.365C167.953 251.376 167.949 251.389 167.949 251.401C167.948 251.414 167.95 251.427 167.956 251.439C167.961 251.451 167.969 251.461 167.979 251.47C167.988 251.478 168 251.484 168.013 251.487C168.013 251.731 168.15 252.014 168.433 251.961C171.153 251.464 174.125 251.273 176.615 249.951C178.067 249.172 179.648 247.575 178.777 245.788ZM172.406 250.372C171.076 250.647 169.732 250.86 168.41 251.189C169.546 249.935 170.747 248.741 172.008 247.613C172.622 247.072 173.273 246.574 173.957 246.124C175.026 245.451 178.984 244.313 177.845 247.613C177.211 249.424 173.995 250.035 172.406 250.364V250.372Z" fill="#263238"/>
<path d="M149.493 261.465C150.376 261.349 151.273 261.419 152.127 261.67C152.98 261.922 153.772 262.349 154.452 262.924C155.686 263.942 156.477 265.399 156.66 266.989C156.66 267.042 156.576 267.05 156.568 266.989C156.138 265.439 155.216 264.071 153.942 263.09C152.667 262.109 151.109 261.568 149.501 261.549C149.494 261.544 149.488 261.539 149.484 261.532C149.48 261.525 149.477 261.517 149.476 261.509C149.476 261.501 149.477 261.492 149.48 261.485C149.483 261.477 149.487 261.47 149.493 261.465Z" fill="#263238"/>
<path d="M191.33 256.422C194.905 256.071 195.463 261.625 191.88 261.977C188.297 262.328 187.747 256.812 191.33 256.422Z" fill="#263238"/>
<path d="M165.125 248.683L198.489 247.27C198.489 247.27 189.382 174.04 189.214 169.54C188.778 157.866 181.016 82.4824 181.016 82.4824H140.256C140.256 82.4824 142.831 99.8863 147.232 110.918C150.187 111.954 153.041 113.258 155.758 114.815C155.758 114.815 159.578 164.666 159.716 170.885C159.998 183.178 165.125 248.683 165.125 248.683Z" fill="#455A64"/>
<path d="M166.011 242.571C171.214 242.242 169.716 242.265 174.919 241.99C177.471 241.86 194.21 241.005 196.609 241.295C196.623 241.295 196.637 241.301 196.647 241.311C196.657 241.321 196.663 241.334 196.663 241.349C196.663 241.363 196.657 241.376 196.647 241.386C196.637 241.396 196.623 241.402 196.609 241.402C194.248 241.899 177.509 242.464 174.942 242.548C169.732 242.716 171.229 242.609 166.019 242.724C165.998 242.725 165.978 242.718 165.963 242.704C165.948 242.69 165.939 242.671 165.938 242.651C165.937 242.631 165.944 242.611 165.958 242.596C165.972 242.581 165.991 242.572 166.011 242.571Z" fill="#263238"/>
<path d="M178.029 86.9517C179.557 105.937 181.085 124.923 182.834 143.893C184.584 162.863 186.616 181.932 189.099 200.887C190.482 211.468 192.025 226.382 193.683 236.933C193.683 237.001 193.584 237.032 193.568 236.933C190.207 218.184 187.739 194.913 185.63 176.004C183.522 157.095 181.81 138.109 180.282 119.131C179.419 108.397 178.64 97.6554 177.815 86.9212C177.776 86.7989 178.013 86.7989 178.029 86.9517Z" fill="#263238"/>
<path d="M145.773 110.162C149.23 111.42 152.571 112.977 155.758 114.815C155.88 114.884 155.796 115.075 155.666 115.014C152.297 113.57 148.874 112.194 145.589 110.567C145.535 110.543 145.494 110.498 145.473 110.443C145.452 110.388 145.454 110.327 145.478 110.273C145.503 110.219 145.547 110.177 145.603 110.157C145.658 110.136 145.719 110.138 145.773 110.162Z" fill="#263238"/>
<path d="M144.68 87.0894C144.68 86.9748 144.894 86.9518 144.894 87.0894C144.894 91.0774 145.123 94.5918 145.459 98.3202C145.612 100.054 146.987 109.627 150.043 108.932C150.548 108.81 150.807 108.321 150.884 107.557C150.869 106.566 150.733 105.581 150.479 104.623C150.15 102.621 149.883 100.612 149.715 98.5875C149.366 94.8192 149.407 91.025 149.837 87.2651C149.837 87.2387 149.847 87.2135 149.866 87.1949C149.885 87.1762 149.91 87.1658 149.936 87.1658C149.963 87.1658 149.988 87.1762 150.007 87.1949C150.025 87.2135 150.036 87.2387 150.036 87.2651C149.945 92.491 150.248 97.7164 150.945 102.897C151.319 105.387 152.58 109.138 149.975 109.52C147.369 109.902 145.604 103.63 145.284 101.88C144.443 96.9969 144.24 92.0251 144.68 87.0894Z" fill="#263238"/>
<path d="M149.952 109.169C150.223 109.815 150.45 110.479 150.632 111.155C150.824 111.679 150.92 112.233 150.914 112.79C150.904 112.809 150.888 112.825 150.869 112.836C150.851 112.848 150.829 112.853 150.807 112.853C150.785 112.853 150.764 112.848 150.745 112.836C150.726 112.825 150.711 112.809 150.7 112.79C150.39 112.301 150.156 111.768 150.005 111.209C149.776 110.59 149.531 109.986 149.325 109.36C149.32 109.284 149.341 109.209 149.384 109.146C149.427 109.084 149.49 109.038 149.562 109.016C149.635 108.993 149.713 108.997 149.784 109.024C149.854 109.052 149.914 109.103 149.952 109.169Z" fill="#263238"/>
<path d="M14.8076 250.524L14.7312 248.996L95.3103 244.855L89.3358 208.947L90.8409 208.703L97.0981 246.299L14.8076 250.524Z" fill="#C7C7C7"/>
<path d="M24.5654 260.66C28.2314 257.793 28.8789 252.497 26.0116 248.831C23.1444 245.165 17.8482 244.518 14.1822 247.385C10.5163 250.252 9.8688 255.548 12.736 259.214C15.6033 262.88 20.8995 263.528 24.5654 260.66Z" fill="#37474F"/>
<path d="M15.564 254C15.564 254.756 15.788 255.495 16.2077 256.123C16.6275 256.751 17.2241 257.241 17.9221 257.53C18.6201 257.819 19.3882 257.894 20.1292 257.747C20.8702 257.6 21.5509 257.236 22.0851 256.702C22.6193 256.167 22.9831 255.487 23.1305 254.746C23.2779 254.005 23.2023 253.237 22.9132 252.539C22.624 251.841 22.1344 251.244 21.5062 250.824C20.878 250.404 20.1395 250.18 19.3839 250.18C18.3708 250.18 17.3992 250.583 16.6828 251.299C15.9664 252.016 15.564 252.987 15.564 254Z" fill="#EBEBEB"/>
<path d="M85.9102 262.185C90.4385 261.11 93.2382 256.568 92.1636 252.04C91.089 247.511 86.547 244.712 82.0187 245.786C77.4904 246.861 74.6906 251.403 75.7652 255.931C76.8398 260.459 81.3819 263.259 85.9102 262.185Z" fill="#37474F"/>
<path d="M80.1067 254C80.1067 254.756 80.3307 255.495 80.7505 256.123C81.1702 256.751 81.7668 257.241 82.4648 257.53C83.1628 257.819 83.9309 257.894 84.6719 257.747C85.4129 257.6 86.0936 257.236 86.6278 256.702C87.1621 256.167 87.5259 255.487 87.6733 254.746C87.8207 254.005 87.745 253.237 87.4559 252.539C87.1668 251.841 86.6771 251.244 86.049 250.824C85.4208 250.404 84.6822 250.18 83.9267 250.18C82.9136 250.18 81.9419 250.583 81.2255 251.299C80.5091 252.016 80.1067 252.987 80.1067 254Z" fill="#EBEBEB"/>
<path d="M29.232 259.814L29.1479 258.286L109.735 254.146L101.896 207.06L103.409 206.808L111.522 255.582L29.232 259.814Z" fill="#C7C7C7"/>
<path d="M39.1945 269.767C42.7763 266.795 43.271 261.482 40.2994 257.9C37.3278 254.319 32.0152 253.824 28.4333 256.795C24.8514 259.767 24.3567 265.08 27.3283 268.662C30.2999 272.243 35.6126 272.738 39.1945 269.767Z" fill="#37474F"/>
<path d="M29.9655 263.291C29.9655 264.046 30.1895 264.785 30.6092 265.413C31.029 266.041 31.6256 266.531 32.3236 266.82C33.0216 267.109 33.7897 267.185 34.5307 267.037C35.2717 266.89 35.9524 266.526 36.4866 265.992C37.0208 265.458 37.3846 264.777 37.532 264.036C37.6794 263.295 37.6038 262.527 37.3147 261.829C37.0255 261.131 36.5359 260.534 35.9077 260.114C35.2795 259.695 34.541 259.471 33.7854 259.471C32.7723 259.471 31.8007 259.873 31.0843 260.59C30.3679 261.306 29.9655 262.278 29.9655 263.291Z" fill="#EBEBEB"/>
<path d="M106.295 268.837C108.11 264.555 106.11 259.613 101.828 257.798C97.5467 255.982 92.6043 257.982 90.7892 262.264C88.9741 266.546 90.9737 271.488 95.2554 273.303C99.5372 275.118 104.48 273.119 106.295 268.837Z" fill="#37474F"/>
<path d="M94.531 263.291C94.531 264.046 94.755 264.785 95.1748 265.413C95.5945 266.041 96.1912 266.531 96.8892 266.82C97.5872 267.109 98.3553 267.185 99.0963 267.037C99.8373 266.89 100.518 266.526 101.052 265.992C101.586 265.458 101.95 264.777 102.098 264.036C102.245 263.295 102.169 262.527 101.88 261.829C101.591 261.131 101.102 260.534 100.473 260.114C99.8451 259.695 99.1065 259.471 98.351 259.471C97.3379 259.471 96.3663 259.873 95.6499 260.59C94.9335 261.306 94.531 262.278 94.531 263.291Z" fill="#EBEBEB"/>
<path d="M11.9274 204.142L0.154175 150.478L80.3742 137.49L81.184 193.553L80.527 193.652L11.9274 204.142ZM1.99542 151.724L13.1193 202.415L79.656 192.262L78.892 139.309L1.99542 151.724Z" fill="#A6A6A6"/>
<path d="M20.6398 147.934L19.1301 148.17L27.3948 201.007L28.9045 200.771L20.6398 147.934Z" fill="#A6A6A6"/>
<path d="M42.0994 144.532L40.5806 144.7L46.465 198.086L47.9838 197.918L42.0994 144.532Z" fill="#A6A6A6"/>
<path d="M63.0907 141.462L61.5641 141.528L63.8867 195.371L65.4133 195.305L63.0907 141.462Z" fill="#A6A6A6"/>
<path d="M80.2737 154.527L4.83228 168.183L5.10444 169.686L80.5459 156.031L80.2737 154.527Z" fill="#A6A6A6"/>
<path d="M80.3106 174.851L8.66968 185.494L8.89421 187.006L80.5352 176.363L80.3106 174.851Z" fill="#A6A6A6"/>
<path d="M113.845 206.64L79.6636 193.438V137.475L131.852 152.61L113.845 206.64ZM81.1916 192.391L112.905 204.615L129.904 153.672L81.1916 139.507V192.391Z" fill="#DBDBDB"/>
<path d="M80.6912 154.531L80.1449 155.958L124.239 172.84L124.785 171.413L80.6912 154.531Z" fill="#DBDBDB"/>
<path d="M80.7054 174.893L80.1283 176.307L117.94 191.73L118.517 190.315L80.7054 174.893Z" fill="#DBDBDB"/>
<path d="M97.054 143.308L89.9359 196.798L91.4506 197L98.5686 143.51L97.054 143.308Z" fill="#DBDBDB"/>
<path d="M113.985 148.234L102.022 201.362L103.513 201.698L115.476 148.57L113.985 148.234Z" fill="#DBDBDB"/>
<path d="M92.6736 94.8892L79.6786 138.259L81.1423 138.697L94.1373 95.3277L92.6736 94.8892Z" fill="#DBDBDB"/>
<path d="M144.296 105.193L130.036 152.785L131.499 153.224L145.76 105.631L144.296 105.193Z" fill="#DBDBDB"/>
<path d="M90.3238 92.7443L89.7078 95.7375L148.256 107.788L148.872 104.794L90.3238 92.7443Z" fill="#263238"/>
<path d="M56.2241 156.178L70.7095 162.779L94.4394 158.027L80.2061 153.993L56.2241 156.178Z" fill="#3E64FF"/>
<path opacity="0.1" d="M56.2241 156.178L70.7095 162.779L94.4394 158.027L80.2061 153.993L56.2241 156.178Z" fill="black"/>
<path d="M81.2681 158.256C81.4514 164.368 82.8878 193.606 77.2418 194.164C75.2477 194.37 73.4218 189.817 72.0313 183.048C71.8938 182.383 71.7562 181.696 71.6263 180.993C71.1603 178.449 70.7477 175.645 70.4116 172.734C70.325 172.062 70.2486 171.382 70.1824 170.694C69.8997 167.982 69.6781 165.193 69.5253 162.397C69.4871 161.717 69.4489 161.045 69.426 160.365C69.4031 159.685 69.3725 159.211 69.3573 158.638C69.2961 156.743 69.2579 154.818 69.2579 152.977C69.2579 152.289 69.2579 151.602 69.2579 150.922C69.3038 147.14 69.4566 143.488 69.724 140.149C69.7775 139.492 69.8386 138.858 69.892 138.239C70.7172 129.69 72.3292 123.517 74.5448 122.868C79.3352 121.485 80.8249 143.03 81.2681 158.256Z" fill="#E6A36E"/>
<path d="M77.6009 179.358C77.5307 179.411 77.4536 179.455 77.3717 179.488C77.3473 179.523 77.3126 179.549 77.2723 179.564C75.2494 180.251 73.444 181.461 72.039 183.071C71.9014 182.406 71.7639 181.718 71.634 181.016C72.4106 180.314 73.3194 179.774 74.3072 179.427C75.2951 179.081 76.3421 178.935 77.387 178.999C77.3953 178.994 77.4044 178.992 77.4137 178.992C77.4229 178.992 77.4321 178.994 77.4404 178.999H77.5245C77.5721 178.988 77.6218 178.998 77.6626 179.024C77.7034 179.051 77.7321 179.092 77.7422 179.14C77.7523 179.188 77.7431 179.237 77.7166 179.278C77.6901 179.319 77.6485 179.347 77.6009 179.358Z" fill="#CC8A58"/>
<path d="M76.8674 170.579C76.7887 170.608 76.7065 170.626 76.623 170.633C76.6075 170.647 76.5893 170.657 76.5696 170.664C76.5499 170.67 76.529 170.673 76.5083 170.671C74.3979 170.744 72.3521 171.418 70.6103 172.611L70.4193 172.757C70.3327 172.084 70.2563 171.404 70.1901 170.717C71.1764 170.156 72.2728 169.817 73.4033 169.722C74.5338 169.627 75.6715 169.779 76.7376 170.167C76.7579 170.176 76.7742 170.192 76.7834 170.213H76.8674C76.9071 170.224 76.9419 170.248 76.9667 170.281C76.9915 170.314 77.005 170.355 77.005 170.396C77.005 170.437 76.9915 170.477 76.9667 170.51C76.9419 170.544 76.9071 170.568 76.8674 170.579Z" fill="#CC8A58"/>
<path d="M76.4549 161.679C76.3712 161.69 76.2864 161.69 76.2027 161.679C76.1846 161.686 76.1651 161.69 76.1454 161.69C76.1257 161.69 76.1062 161.686 76.0881 161.679C74.0425 161.262 71.9202 161.445 69.9761 162.206C69.83 162.264 69.6872 162.33 69.5483 162.404C69.5101 161.724 69.4719 161.052 69.449 160.372C70.5992 159.982 71.8226 159.858 73.0278 160.007C74.233 160.157 75.3889 160.577 76.409 161.235C76.4193 161.24 76.4283 161.248 76.4349 161.257C76.4416 161.267 76.4458 161.278 76.4472 161.289L76.5236 161.335C76.6077 161.426 76.6841 161.64 76.4549 161.679Z" fill="#CC8A58"/>
<path d="M76.0958 152.297C76.0121 152.308 75.9273 152.308 75.8437 152.297C75.826 152.306 75.8064 152.311 75.7864 152.311C75.7664 152.311 75.7467 152.306 75.7291 152.297C73.6835 151.88 71.5611 152.063 69.617 152.824C69.5014 152.87 69.3891 152.923 69.2809 152.984C69.2809 152.297 69.2809 151.609 69.2809 150.929C70.4063 150.575 71.5962 150.474 72.7652 150.633C73.9343 150.793 75.0534 151.21 76.0423 151.854C76.0423 151.854 76.0805 151.892 76.0881 151.907L76.1569 151.953C76.2486 152.045 76.2868 152.259 76.0958 152.297Z" fill="#CC8A58"/>
<path d="M76.1034 141.211C76.0171 141.206 75.9322 141.188 75.8513 141.158C75.8113 141.169 75.769 141.169 75.729 141.158C73.8623 140.281 71.7873 139.945 69.7393 140.187C69.7927 139.53 69.8539 138.896 69.9073 138.277C71.0584 138.249 72.2031 138.458 73.2702 138.89C74.3374 139.322 75.3043 139.969 76.111 140.791C76.111 140.791 76.111 140.837 76.111 140.852C76.1294 140.874 76.1499 140.895 76.1721 140.913C76.2791 141.005 76.2944 141.219 76.1034 141.211Z" fill="#CC8A58"/>
<path d="M90.2832 161.915C89.4428 167.928 85.959 196.807 80.2978 196.036C78.3037 195.776 77.2417 190.894 77.0431 183.957C77.0431 183.277 76.9973 182.574 76.9896 181.856C76.9896 179.258 76.9896 176.439 77.173 173.505C77.173 172.825 77.2418 172.145 77.2876 171.458C77.471 168.746 77.7154 165.972 78.0516 163.199C78.1356 162.527 78.212 161.862 78.2961 161.197C78.3801 160.533 78.4412 160.059 78.5176 159.501C78.7774 157.629 79.0601 155.773 79.3733 153.947C79.4955 153.282 79.6102 152.602 79.7248 151.945C80.3971 148.255 81.1687 144.741 82.0167 141.54C82.1695 140.913 82.3376 140.31 82.498 139.714C84.7442 131.569 87.3571 125.916 89.6491 125.809C94.531 125.572 92.3918 146.956 90.2832 161.915Z" fill="#EDAA76"/>
<path d="M83.1322 181.65C83.0567 181.69 82.9732 181.714 82.8877 181.719C82.8732 181.735 82.8556 181.748 82.8359 181.757C82.8162 181.766 82.7948 181.771 82.7731 181.772C80.6968 181.952 78.7122 182.709 77.0431 183.957C77.0431 183.277 76.9973 182.574 76.9896 181.856C77.8956 181.353 78.8945 181.039 79.9255 180.934C80.9565 180.829 81.9982 180.935 82.987 181.245C83.0074 181.254 83.0237 181.27 83.0329 181.291H83.1093C83.1514 181.296 83.1903 181.316 83.2193 181.347C83.2483 181.378 83.2656 181.418 83.2684 181.461C83.2711 181.503 83.259 181.545 83.2341 181.58C83.2093 181.614 83.1733 181.639 83.1322 181.65Z" fill="#CC8A58"/>
<path d="M83.8885 172.902C83.8026 172.917 83.7147 172.917 83.6288 172.902C83.6107 172.91 83.5912 172.914 83.5715 172.914C83.5518 172.914 83.5323 172.91 83.5142 172.902C81.4718 172.471 79.3483 172.644 77.4022 173.398L77.1882 173.49C77.1882 172.81 77.257 172.13 77.3028 171.443C78.4008 171.134 79.5524 171.064 80.6795 171.24C81.8066 171.415 82.8828 171.831 83.835 172.459C83.835 172.459 83.8733 172.497 83.8809 172.512L83.9497 172.558C84.0337 172.65 84.0795 172.864 83.8885 172.902Z" fill="#CC8A58"/>
<path d="M84.9657 164.123C84.8817 164.115 84.7994 164.094 84.7212 164.062C84.7036 164.072 84.6839 164.077 84.6639 164.077C84.644 164.077 84.6243 164.072 84.6066 164.062C82.7005 163.173 80.5792 162.849 78.4947 163.13L78.0363 163.214C78.1203 162.542 78.1967 161.877 78.2807 161.213C79.5115 161.116 80.7484 161.289 81.9056 161.719C83.0627 162.149 84.1122 162.826 84.981 163.703C84.9857 163.713 84.9882 163.723 84.9882 163.734C84.9882 163.744 84.9857 163.755 84.981 163.764C84.9973 163.788 85.0181 163.809 85.0421 163.825C85.1567 163.909 85.1644 164.131 84.9657 164.123Z" fill="#CC8A58"/>
<path d="M86.1881 154.879C86.1042 154.87 86.0218 154.85 85.9437 154.818C85.9247 154.827 85.9038 154.832 85.8825 154.832C85.8613 154.832 85.8404 154.827 85.8214 154.818C83.9156 153.928 81.7947 153.602 79.7094 153.878C79.5881 153.896 79.4682 153.921 79.3503 153.955C79.4726 153.29 79.5872 152.61 79.7018 151.953C80.9004 151.883 82.1002 152.07 83.2204 152.502C84.3406 152.934 85.3552 153.602 86.1958 154.459C86.2067 154.465 86.2159 154.474 86.2225 154.485C86.2292 154.495 86.2331 154.507 86.234 154.52L86.2951 154.581C86.3791 154.665 86.3868 154.887 86.1881 154.879Z" fill="#CC8A58"/>
<path d="M88.0447 144.061C87.9622 144.031 87.8829 143.992 87.8079 143.946C87.7703 143.956 87.7309 143.956 87.6933 143.946C86.0335 142.657 84.0566 141.839 81.9709 141.578C82.1237 140.951 82.2918 140.348 82.4522 139.752C84.7805 140.274 86.8155 141.679 88.1288 143.671C88.1382 143.696 88.1382 143.723 88.1288 143.748L88.1746 143.816C88.2586 143.901 88.2357 144.114 88.0447 144.061Z" fill="#CC8A58"/>
<path d="M56.2241 156.178C56.2241 156.178 57.1333 185.378 56.82 186.493C56.5068 187.609 54.7725 201.285 54.9329 201.667C55.0934 202.049 68.8225 209.925 69.2809 209.475C69.7393 209.024 70.572 189.328 70.572 186.898C70.572 184.469 70.7325 162.779 70.7325 162.779L56.2241 156.178Z" fill="#3E64FF"/>
<path d="M70.7096 162.779L69.2809 209.444C69.2809 209.444 91.5591 202.866 91.7501 202.499C91.9411 202.132 93.0489 188.892 92.7662 186.829C92.4836 184.767 94.4394 157.996 94.4394 157.996L70.7096 162.779Z" fill="#3E64FF"/>
<path opacity="0.1" d="M70.7096 162.779L69.2809 209.444C69.2809 209.444 91.5591 202.866 91.7501 202.499C91.9411 202.132 93.0489 188.892 92.7662 186.829C92.4836 184.767 94.4394 157.996 94.4394 157.996L70.7096 162.779Z" fill="black"/>
<path d="M39.7293 215.8L11.9197 204.157L11.8357 203.767L0.0930176 150.203L34.664 164.368L39.7293 215.8ZM13.272 203.057L37.9874 213.401L33.2201 165.445L2.23986 152.725L13.272 203.057Z" fill="#DBDBDB"/>
<path d="M11.7489 155.118L10.244 155.382L19.2479 206.602L20.7528 206.338L11.7489 155.118Z" fill="#DBDBDB"/>
<path d="M23.0858 159.939L21.573 160.155L28.7682 210.711L30.281 210.495L23.0858 159.939Z" fill="#DBDBDB"/>
<path d="M8.68576 190.416L8.18152 191.852L36.0318 201.629L36.536 200.193L8.68576 190.416Z" fill="#DBDBDB"/>
<path d="M5.26587 168.509L4.70288 169.929L35.2579 182.039L35.8209 180.619L5.26587 168.509Z" fill="#DBDBDB"/>
<path d="M39.6835 215.777L33.052 164.246L131.868 152.503L113.83 206.686L113.356 206.747L39.6835 215.777ZM34.7634 165.575L41.0052 214.074L112.691 205.288L129.66 154.306L34.7634 165.575Z" fill="#EBEBEB"/>
<path d="M56.662 162.226L55.1398 162.358L59.4745 212.105L60.9968 211.972L56.662 162.226Z" fill="#EBEBEB"/>
<path d="M81.5435 159.061L78.6255 209.668L80.151 209.756L83.069 159.149L81.5435 159.061Z" fill="#EBEBEB"/>
<path d="M106.782 156.001L97.05 207.508L98.5515 207.792L108.284 156.285L106.782 156.001Z" fill="#EBEBEB"/>
<path d="M124.828 170.255L35.4688 180.31L35.6396 181.828L124.999 171.773L124.828 170.255Z" fill="#EBEBEB"/>
<path d="M118.14 190.284L37.3295 198.735L37.4884 200.255L118.299 191.804L118.14 190.284Z" fill="#EBEBEB"/>
<path d="M150.486 41.6466C146.384 48.0947 131.203 71.4426 121.729 71.4426C116.03 71.4426 96.7009 61.7245 92.4378 58.4546C87.4488 54.6346 100.842 42.571 104.264 43.9921C108.505 45.7416 120.117 52.5183 122.83 52.5183C125.252 52.5183 132.189 44.7332 145.391 36.1382C152.175 31.6611 154.024 36.0847 150.486 41.6466Z" fill="#F7A9A0"/>
<path d="M92.9266 58.7679C91.1389 57.9123 83.2773 53.2671 81.375 51.487C79.4726 49.7069 74.3844 44.1755 75.6068 42.5864C76.8292 40.9973 78.4412 42.4871 78.4412 42.4871C78.4412 42.4871 76.684 39.836 78.0286 38.308C79.3733 36.78 81.8486 39.2325 81.8486 39.2325C81.8486 39.2325 80.2213 36.3522 81.6958 34.9617C83.1704 33.5712 85.2179 36.4133 85.2179 36.4133C85.2179 36.4133 83.6058 33.8463 85.3019 33.2122C87.3418 32.4482 89.7789 37.5135 92.0251 39.3241C92.537 39.7367 102.95 46.9641 102.95 46.9641L92.9266 58.7679Z" fill="#F7A9A0"/>
<path d="M85.0345 36.184C86.8376 39.9047 88.2739 41.2188 91.7271 43.3656C91.7882 43.4114 91.7271 43.5184 91.666 43.4802C88.0981 41.6848 86.0659 40.2943 84.8512 36.2681C84.7977 36.0694 84.9505 36.0159 85.0345 36.184Z" fill="#263238"/>
<path d="M81.7112 38.9497C83.9192 42.6474 85.4548 44.0838 88.9081 46.5897C88.9539 46.5897 88.9081 46.7119 88.8469 46.6814C85.2562 44.4963 83.2621 43.06 81.5431 39.0414C81.4591 38.9115 81.6119 38.7816 81.7112 38.9497Z" fill="#263238"/>
<path d="M78.6169 42.6092C81.0159 46.0396 82.6356 47.6898 86.3028 49.6992C86.316 49.7113 86.3251 49.7274 86.3285 49.745C86.332 49.7626 86.3297 49.7809 86.322 49.7971C86.3143 49.8134 86.3016 49.8267 86.2858 49.8352C86.2699 49.8437 86.2518 49.8469 86.234 49.8443C82.8257 48.5644 80.0571 45.9961 78.5253 42.6933C78.403 42.4641 78.4718 42.3953 78.6169 42.6092Z" fill="#263238"/>
<path d="M77.555 43.4574C80.1832 52.0218 88.251 50.9293 90.543 50.2264C92.835 49.5235 100.108 45.9098 97.4725 37.3454C94.8367 28.7809 86.2417 30.7597 84.706 31.2334C82.9718 31.7605 74.9269 34.8929 77.555 43.4574Z" fill="#3E64FF"/>
<path d="M85.4471 32.4023C85.4471 32.4023 85.8062 35.6264 91.4522 33.6935C91.4522 33.724 87.6322 29.629 85.4471 32.4023Z" fill="#455A64"/>
<path d="M85.9972 33.724C85.9972 33.724 88.6482 33.8997 87.8995 29.0559C87.8995 29.0712 84.0643 31.5771 85.9972 33.724Z" fill="#455A64"/>
<path d="M85.7833 32.8837C85.7833 32.8837 84.8588 35.3819 80.7408 32.7156C80.7408 32.7156 84.5991 30.2402 85.7833 32.8837Z" fill="#455A64"/>
<path d="M85.6075 32.2495C85.6075 32.2495 83.1245 34.3429 87.8995 37.9566C87.8842 37.9566 89.1219 32.5169 85.6075 32.2495Z" fill="#455A64"/>
<path d="M85.3477 32.7154C85.3477 32.7154 81.7722 31.7146 82.2459 37.8113C82.2459 37.8113 87.7085 35.9166 85.3477 32.7154Z" fill="#455A64"/>
<path d="M85.9437 33.4642C86.0363 32.4445 85.8827 31.4176 85.4958 30.4696C85.1089 29.5217 84.5001 28.6805 83.7205 28.0168C83.2752 28.0431 82.8507 28.214 82.5115 28.5036C82.1722 28.7932 81.9368 29.1856 81.8411 29.6213C81.8411 29.6213 84.8971 31.325 85.0957 34.0906L85.8062 33.6628" fill="#455A64"/>
<path d="M106.717 46.5592C106.033 44.1611 105.172 41.8169 104.142 39.5457C103.019 37.5058 96.0437 31.4397 94.6456 32.8684C92.8425 34.7172 96.1736 39.0185 98.0912 40.9056C98.0912 40.9056 93.9198 45.184 95.6464 48.7825C97.3731 52.3809 106.717 46.5592 106.717 46.5592Z" fill="#F7A9A0"/>
<path d="M94.3171 33.5406C93.8893 36.4133 96.5556 38.7358 98.2746 40.707C98.3012 40.7345 98.3208 40.7681 98.3316 40.8048C98.3423 40.8416 98.3441 40.8804 98.3365 40.918C98.329 40.9555 98.3125 40.9907 98.2884 41.0205C98.2643 41.0503 98.2334 41.0738 98.1982 41.089C96.5633 42.999 94.8214 46.1696 95.4937 48.729C95.4961 48.7433 95.4933 48.7581 95.4858 48.7706C95.4783 48.7831 95.4666 48.7926 95.4528 48.7972C95.4389 48.8018 95.4239 48.8013 95.4104 48.7958C95.3969 48.7903 95.3858 48.7801 95.3791 48.7672C94.2866 46.1161 95.7458 42.8691 97.6711 40.8903C95.8833 38.8963 93.3087 36.4515 94.3018 33.533C94.3018 33.5177 94.3248 33.5253 94.3171 33.5406Z" fill="#263238"/>
<path d="M128.995 46.032L141.754 57.408C141.754 57.408 149.012 48.6678 152.022 40.3173C155.032 31.9667 147.851 32.9676 142.755 36.3445C137.659 39.7213 128.995 46.032 128.995 46.032Z" fill="#3E64FF"/>
<path d="M143.152 54.6728C139.353 51.5706 135.75 48.2357 132.364 44.6873C132.318 44.6873 132.364 44.5803 132.433 44.6262C133.35 45.5506 138.988 50.3562 143.228 54.604C143.297 54.6498 143.221 54.7186 143.152 54.6728Z" fill="#263238"/>
<path d="M152.014 40.3402C149.012 48.6907 141.754 57.4079 141.754 57.4079L135.879 52.1592C139.767 46.8112 146.048 38.0864 149.172 33.8767C151.999 33.7239 153.802 35.3894 152.014 40.3402Z" fill="#263238"/>
<path d="M135.894 93.3159C136.658 94.0799 183.644 93.6292 183.881 93.3159C184.507 92.4679 177.31 62.1753 171.909 50.6847C164.987 35.9472 161.32 34.7248 159.135 33.8767C156.339 32.8224 149.035 33.2579 147.835 33.8004C146.483 34.4116 143.037 41.2952 141.425 46.7884C138.186 57.7441 135.214 92.6054 135.894 93.3159Z" fill="#3E64FF"/>
<path d="M166.148 47.5372C165.912 62.0073 165.3 79.1133 161.297 83.9418C155.231 91.2532 140.073 98.7557 133.862 100.139C131.279 100.712 124.029 81.1914 126.802 80.6107C132.708 79.373 146.2 73.7806 147.43 72.5658C148.66 71.351 153.298 57.3928 157.019 46.4752C161.488 33.342 166.286 39.1561 166.148 47.5372Z" fill="#F7A9A0"/>
<path d="M129.958 79.7856C129.958 79.7856 122.157 81.7721 117.115 83.3153C114.303 84.171 109.612 86.081 107.84 87.6548C105.181 90.008 95.5701 101.567 98.3205 103.959C100.811 106.121 107.809 95.1421 107.809 95.1421C107.809 95.1421 99.7721 105.601 103.225 107.656C106.679 109.712 112.959 96.2498 112.959 96.2498C112.959 96.2498 104.937 107.175 108.864 108.726C111.828 109.903 118.177 98.03 118.177 98.03C118.177 98.03 111.354 107.465 114.357 108.802C117.665 110.277 124.22 99.6955 124.22 99.6955C132.41 101.812 137.17 99.4663 140.363 97.4035C141.15 96.9069 129.958 79.7856 129.958 79.7856Z" fill="#F7A9A0"/>
<path d="M110.361 91.3525C109.368 92.5443 108.359 93.7438 107.481 95.0274C106.602 96.3109 105.762 97.6097 105.006 98.962C103.988 100.714 103.17 102.574 102.568 104.509C103.882 101.155 106.961 96.5324 107.84 95.2565C108.719 93.9807 109.528 92.6589 110.407 91.3831C110.43 91.3525 110.384 91.3219 110.361 91.3525Z" fill="#263238"/>
<path d="M115.029 94.4467C113.333 95.7837 109.78 100.788 108.405 104.142C108.352 104.279 108.405 104.272 108.512 104.142C109.582 102.484 113.921 96.0664 115.067 94.4697C115.083 94.4467 115.052 94.4238 115.029 94.4467Z" fill="#263238"/>
<path d="M119.514 96.3721C117.406 98.5824 115.741 101.176 114.609 104.012C114.548 104.15 114.662 104.127 114.739 104.012C116.328 101.437 117.55 99.4281 119.598 96.4332C119.628 96.3721 119.56 96.3721 119.514 96.3721Z" fill="#263238"/>
<path d="M150.448 60.0743L167.371 62.6032C167.371 62.6032 168.639 51.3112 166.569 42.6857C164.498 34.0601 159.051 38.8657 156.637 44.4429C154.222 50.0201 150.448 60.0743 150.448 60.0743Z" fill="#3E64FF"/>
<path d="M166.836 59.2646C161.958 58.849 157.11 58.1346 152.32 57.1254C152.259 57.1254 152.282 57.0184 152.32 57.0337C153.596 57.2782 160.961 58.0575 166.836 59.1576C166.943 59.1729 166.92 59.2646 166.836 59.2646Z" fill="#263238"/>
<path d="M152.87 54.2755C153.634 52.3579 154.742 49.6304 155.376 47.6746C155.376 47.6746 155.376 47.6746 155.33 47.6746C154.834 48.6907 154.383 49.7297 153.947 50.784L153.993 50.593C154.1 50.0048 154.192 49.4165 154.253 48.8206C154.077 49.4012 153.932 49.9818 153.81 50.5778C153.733 50.9445 153.672 51.3418 153.619 51.6932C153.39 52.2509 152.809 53.6108 152.587 54.1609C152.221 55.1006 150.135 60.1813 150.234 60.2042C150.334 60.2271 151.969 60.3952 152.274 60.4486C152.358 60.4486 152.374 60.3264 152.274 60.3341C151.969 60.3341 150.677 60.0972 150.548 60.0743C150.899 59.0964 151.35 58.1414 151.739 57.1711C152.129 56.2008 152.496 55.2382 152.87 54.2755Z" fill="#263238"/>
<path d="M168.41 51.3954C168.28 51.9073 168.173 52.4191 168.081 52.9234C168.081 53.0991 168.036 53.2748 168.013 53.4582C167.967 52.1899 167.86 50.9217 167.692 49.6382C167.692 49.6382 167.638 49.6382 167.646 49.6382C167.783 51.7697 167.73 53.886 167.646 56.0176C167.646 57.049 167.569 58.088 167.508 59.1194C167.508 59.6466 167.44 60.1814 167.417 60.7086C167.394 61.2357 167.317 62.504 167.317 62.504C167.027 62.4505 166.049 62.3282 165.698 62.2977C165.614 62.2977 165.614 62.3664 165.698 62.3741C165.996 62.4199 167.493 62.7102 167.501 62.6797C167.501 62.1219 167.646 61.4649 167.699 60.9148C167.753 60.3647 167.791 59.8987 167.829 59.3868C167.906 58.2943 167.967 57.2018 168.005 56.1016C168.005 55.5057 168.005 54.9021 168.005 54.2986C168.089 53.8402 168.204 53.3818 168.28 52.9234C168.356 52.465 168.448 51.8843 168.502 51.3954C168.547 51.3343 168.433 51.2961 168.41 51.3954Z" fill="#263238"/>
<path d="M149.157 41.3182C151.762 42.0822 156.553 38.3233 158.539 35.1451C158.677 34.9235 158.47 32.5399 158.356 29.6214C158.295 27.8489 158.264 25.8778 158.356 24.0747C158.356 23.708 146.896 26.1605 146.896 26.1605C147.407 28.4491 147.638 30.7914 147.583 33.1358C147.566 33.3936 147.525 33.6493 147.461 33.8998C147.459 33.9405 147.459 33.9813 147.461 34.022C147.14 35.3896 146.628 40.6001 149.157 41.3182Z" fill="#F7A9A0"/>
<path d="M157.668 24.0823C156.965 27.1383 154.612 34.3428 148.599 34.1289C148.212 34.1159 147.826 34.0725 147.446 33.999C147.44 33.9585 147.44 33.9173 147.446 33.8768C147.509 33.6261 147.549 33.3705 147.568 33.1128C147.627 30.7632 147.396 28.4153 146.88 26.1222C146.88 26.1222 155.2 24.3879 157.668 24.0823Z" fill="#263238"/>
<path d="M159.036 9.60459C160.564 13.5086 159.372 25.236 156.744 28.0399C152.924 32.1044 146.185 32.9983 142.617 28.2844C139.156 23.7004 140.99 8.46623 143.985 5.87627C148.385 2.05627 156.766 3.83639 159.036 9.60459Z" fill="#F7A9A0"/>
<path d="M148.538 17.55C148.538 17.55 148.599 17.5959 148.592 17.6264C148.492 18.3904 148.508 19.3378 149.195 19.6663C149.195 19.6663 149.195 19.7198 149.195 19.7122C148.324 19.5059 148.317 18.2835 148.538 17.55Z" fill="#263238"/>
<path d="M149.325 16.7936C150.609 16.7936 150.456 19.3836 149.272 19.353C148.088 19.3225 148.256 16.7707 149.325 16.7936Z" fill="#263238"/>
<path d="M144.099 17.3208C144.099 17.3208 144.038 17.3208 144.038 17.3819C144.038 18.1459 143.855 19.0856 143.129 19.3072V19.353C144.015 19.2766 144.206 18.0772 144.099 17.3208Z" fill="#263238"/>
<path d="M143.442 16.4498C142.174 16.2818 141.914 18.8335 143.099 18.9863C144.283 19.1391 144.504 16.595 143.442 16.4498Z" fill="#263238"/>
<path d="M150.402 15.6859C150.059 15.5789 149.761 15.4185 149.432 15.281C149.071 15.1849 148.752 14.9728 148.523 14.6774C148.468 14.5711 148.45 14.4493 148.472 14.3316C148.494 14.2138 148.555 14.1069 148.645 14.028C148.846 13.897 149.077 13.8222 149.317 13.8114C149.556 13.8007 149.794 13.8543 150.005 13.9669C150.471 14.1224 150.859 14.4505 151.09 14.8837C151.137 14.9847 151.154 15.0971 151.138 15.2074C151.123 15.3177 151.076 15.4213 151.004 15.5058C150.932 15.5904 150.836 15.6523 150.73 15.6842C150.623 15.7162 150.509 15.7167 150.402 15.6859Z" fill="#263238"/>
<path d="M142.526 15.1054C142.873 15.0557 143.217 14.9869 143.557 14.8991C143.932 14.8779 144.289 14.7328 144.573 14.4865C144.645 14.3921 144.684 14.2767 144.684 14.158C144.684 14.0393 144.645 13.9239 144.573 13.8295C144.402 13.662 144.189 13.5433 143.957 13.4855C143.724 13.4278 143.481 13.4331 143.251 13.501C142.765 13.5616 142.32 13.8046 142.006 14.1809C141.935 14.27 141.893 14.3782 141.884 14.4915C141.875 14.6048 141.9 14.7183 141.956 14.8174C142.011 14.9165 142.095 14.9968 142.197 15.0481C142.298 15.0994 142.413 15.1193 142.526 15.1054Z" fill="#263238"/>
<path d="M149.44 24.9914C149.233 25.1671 149.035 25.4116 148.744 25.4192C148.45 25.3965 148.164 25.3133 147.904 25.1748C147.904 25.1748 147.851 25.1748 147.866 25.213C147.971 25.3737 148.117 25.5037 148.289 25.5896C148.461 25.6756 148.652 25.7143 148.844 25.7019C149.008 25.669 149.158 25.5884 149.277 25.4701C149.395 25.3518 149.476 25.2012 149.509 25.0373C149.524 24.9914 149.463 24.9685 149.44 24.9914Z" fill="#263238"/>
<path d="M146.277 23.3718C146.586 23.825 147.007 24.1907 147.499 24.4338C147.771 24.5615 148.076 24.599 148.37 24.5408C149.012 24.4109 149.065 23.8302 148.974 23.326C148.926 23.0628 148.846 22.8063 148.737 22.562C148.023 23.0857 147.162 23.3692 146.277 23.3718Z" fill="#263238"/>
<path d="M147.499 24.4338C147.771 24.5615 148.076 24.5989 148.37 24.5407C149.012 24.4109 149.065 23.8302 148.974 23.326C148.639 23.3169 148.311 23.4214 148.043 23.6226C147.775 23.8238 147.584 24.1097 147.499 24.4338Z" fill="#FF98B9"/>
<path d="M142.541 10.4449C146.422 13.1113 151.709 9.09262 151.709 9.09262C152.041 9.93984 152.637 10.6575 153.409 11.1392C154.181 11.6208 155.088 11.8409 155.995 11.7666C155.995 11.7666 156.759 18.3447 158.485 18.3294C161.129 18.3294 161.954 9.35238 161.121 7.58754C160.289 5.8227 158.065 5.37194 158.065 5.37194C157.818 4.3054 157.177 3.37187 156.27 2.75906C154.467 1.37622 148.24 3.23273 148.24 3.23273C147.885 2.40074 147.341 1.66302 146.651 1.07825C146.485 0.933178 146.291 0.823324 146.08 0.755312C145.87 0.6873 145.649 0.662542 145.429 0.682533C145.209 0.702523 144.995 0.766849 144.801 0.871627C144.607 0.976404 144.436 1.11947 144.298 1.29218C144.629 1.77702 144.846 2.33087 144.932 2.91185C145.238 4.83713 143.672 4.83714 143.687 3.08758C143.669 2.43516 143.885 1.79793 144.298 1.29218C143.534 0.146179 142.258 -0.235823 141.486 0.383017C140.096 1.49082 139.332 8.22929 142.541 10.4449Z" fill="#263238"/>
<path d="M157.309 19.2079C157.309 19.2079 159.708 15.3115 161.457 16.1519C163.207 16.9923 161.564 22.5237 159.616 23.387C159.374 23.5142 159.108 23.591 158.835 23.6128C158.561 23.6346 158.287 23.601 158.027 23.5139C157.767 23.4268 157.528 23.2881 157.323 23.1062C157.118 22.9242 156.952 22.7027 156.835 22.4549L157.309 19.2079Z" fill="#F7A9A0"/>
<path d="M160.946 17.7334C160.946 17.7334 160.991 17.7716 160.946 17.7869C159.586 18.4363 158.921 19.7733 158.485 21.1485C158.559 21.0038 158.662 20.8766 158.789 20.7758C158.916 20.675 159.064 20.6028 159.221 20.5643C159.379 20.5259 159.543 20.522 159.702 20.5529C159.861 20.5838 160.012 20.6489 160.143 20.7436C160.15 20.7477 160.155 20.7534 160.158 20.7601C160.162 20.7667 160.164 20.7742 160.164 20.7818C160.164 20.7893 160.162 20.7968 160.158 20.8034C160.155 20.8101 160.15 20.8158 160.143 20.82C159.892 20.7581 159.628 20.7748 159.386 20.8676C159.144 20.9605 158.936 21.1252 158.791 21.3395C158.558 21.701 158.36 22.0849 158.203 22.4855C158.142 22.6154 157.912 22.5619 157.951 22.4167C157.806 20.606 159.043 18.0237 160.946 17.7334Z" fill="#263238"/>
</svg>
