<svg width="377" height="377" viewBox="0 0 377 377" fill="none" xmlns="http://www.w3.org/2000/svg">
<path d="M309.826 207.727L319.892 207.516L324.853 207.433C326.505 207.395 328.141 207.433 329.792 207.388L329.453 207.727L329.415 199.29L329.792 199.667L319.809 199.614C316.476 199.614 313.151 199.531 309.826 199.493L310.03 199.29C310.03 200.67 309.962 202.057 309.932 203.459L309.826 207.727ZM309.826 207.727L309.713 203.55C309.713 202.14 309.63 200.722 309.615 199.29V199.056H309.826C313.151 199.056 316.476 198.943 319.809 198.935L329.792 198.89H330.169V199.267L330.124 207.704V208.104H329.792C328.103 208.104 326.422 208.104 324.74 208.066L319.719 207.983L309.826 207.727Z" fill="#EBEBEB"/>
<path d="M320.963 218.366L331.029 218.155L335.99 218.072C337.641 218.034 339.285 218.072 340.929 218.027L340.589 218.366V209.929L340.966 210.306L330.983 210.253C327.651 210.253 324.326 210.17 321 210.132L321.204 209.929C321.204 211.309 321.136 212.696 321.106 214.098L320.963 218.366ZM320.963 218.366L320.857 214.189C320.819 212.779 320.767 211.361 320.752 209.929V209.725H320.963C324.288 209.687 327.613 209.612 330.946 209.604L340.929 209.559H341.306V209.936L341.26 218.373V218.713H340.929C339.247 218.713 337.558 218.713 335.877 218.675L330.855 218.592L320.963 218.366Z" fill="#EBEBEB"/>
<path d="M298.644 218.358H318.61V209.921H298.644V218.358Z" fill="#EBEBEB"/>
<path d="M36.0714 276.605L46.1448 276.394L51.1061 276.311C52.7499 276.311 54.3936 276.311 56.0373 276.266L55.7055 276.605L55.6603 268.168L56.0373 268.545L46.0543 268.492C42.7292 268.492 39.4041 268.409 36.0714 268.371L36.275 268.168C36.275 269.547 36.2146 270.935 36.1769 272.337L36.0714 276.605ZM36.0714 276.605L35.9658 272.428C35.9281 271.018 35.8829 269.6 35.8678 268.168V267.964H36.0714C39.4041 267.926 42.7292 267.851 46.0543 267.843L56.0373 267.798H56.4143V268.175V276.612V276.952H56.075C54.3936 276.952 52.7046 276.952 51.0307 276.914L45.994 276.816L36.0714 276.605Z" fill="#EBEBEB"/>
<path d="M47.2155 287.236H67.1814V278.799H47.2155V287.236Z" fill="#EBEBEB"/>
<path d="M87.8033 119.026L97.8767 118.815L102.838 118.732C104.482 118.695 106.126 118.732 107.769 118.695L107.437 119.026L107.392 110.589L107.769 110.966L97.7863 110.921C94.4611 110.921 91.1284 110.838 87.8033 110.793L88.0069 110.589C88.0069 111.969 87.9466 113.364 87.9089 114.766L87.8033 119.026ZM87.8033 119.026L87.6977 114.857C87.6977 113.447 87.6148 112.022 87.5997 110.589V110.386H87.8033C91.1284 110.348 94.4611 110.265 97.7863 110.265L107.769 110.212H108.146V110.589L108.109 119.026V119.366H107.777C106.095 119.366 104.406 119.366 102.733 119.32L97.7109 119.238L87.8033 119.026Z" fill="#EBEBEB"/>
<path d="M47.11 46.0995H67.0759V37.6622H47.11V46.0995Z" fill="#EBEBEB"/>
<path d="M35.9809 56.7385L46.0468 56.55L51.0081 56.467C52.6594 56.467 54.2956 56.467 55.9468 56.467L55.6075 56.7988V48.3615L55.9845 48.7385L45.994 48.633C42.6613 48.633 39.3362 48.55 36.0111 48.5048L36.2146 48.3012C36.2146 49.681 36.1468 51.0684 36.1166 52.4784L35.9809 56.7385ZM35.9809 56.7385L35.8678 52.5688C35.8678 51.1589 35.7849 49.7338 35.7698 48.3012V48.0976H35.9809C39.306 48.0976 42.6312 47.977 45.9639 47.9694L55.9468 47.9242H56.3238V48.3012L56.2786 56.7385V57.0778H55.9468C54.2579 57.0778 52.5764 57.0778 50.895 57.0325L45.8734 56.9496L35.9809 56.7385Z" fill="#EBEBEB"/>
<path d="M309.826 46.0995L319.892 45.8884L324.853 45.8055C326.505 45.8055 328.141 45.8055 329.792 45.8055L329.453 46.1372L329.415 37.7L329.792 38.077L319.809 38.0317C316.476 38.0317 313.151 37.9488 309.826 37.9036L310.03 37.7C310.03 39.0798 309.962 40.4672 309.932 41.8771L309.826 46.0995ZM309.826 46.0995L309.713 41.9299C309.713 40.5199 309.63 39.0949 309.615 37.6623V37.4587H309.826C313.151 37.4587 316.476 37.3381 319.809 37.3305L329.792 37.2853H330.169V37.7L330.124 46.1372V46.4765H329.792C328.103 46.4765 326.422 46.4765 324.74 46.4313L319.696 46.3107L309.826 46.0995Z" fill="#EBEBEB"/>
<path d="M278.264 151.607H298.23V143.17H278.264V151.607Z" fill="#EBEBEB"/>
<path d="M65.7714 90.0276C66.1459 89.7983 66.5764 89.677 67.0155 89.677C67.4546 89.677 67.8852 89.7983 68.2596 90.0276L68.9005 90.3971C69.1192 90.5102 69.3379 90.6233 69.5641 90.7288C69.9621 90.9113 70.3022 91.2 70.547 91.5631C70.7917 91.9262 70.9317 92.3498 70.9514 92.7873L71.0419 95.8485L81.0249 95.5394L80.9268 92.4781C80.9168 92.0383 81.0283 91.6042 81.2492 91.2238C81.47 90.8433 81.7916 90.5311 82.1785 90.3217C82.6141 90.0935 83.0369 89.8418 83.4452 89.5677C83.8037 89.3147 84.2253 89.166 84.6632 89.1381C85.101 89.1101 85.5381 89.204 85.9259 89.4093L88.6176 90.8495L93.3377 82.0503L90.6459 80.6026C90.2599 80.3947 89.9392 80.0838 89.7195 79.7043C89.4999 79.3249 89.3899 78.892 89.4018 78.4537C89.4179 77.9506 89.4028 77.447 89.3566 76.9457C89.3081 76.5032 89.3857 76.0561 89.5805 75.6558C89.7752 75.2556 90.0793 74.9186 90.4574 74.6837L93.0587 73.138L87.7807 64.6555L85.202 66.2465C84.829 66.4759 84.3996 66.5974 83.9617 66.5974C83.5237 66.5974 83.0944 66.4759 82.7214 66.2465C82.5178 66.1183 82.2991 65.9976 82.088 65.8845C81.8769 65.7714 81.6507 65.6508 81.4245 65.5528C81.0253 65.3697 80.6845 65.0799 80.4396 64.7153C80.1948 64.3507 80.0555 63.9256 80.0371 63.4868L79.924 60.403L69.9411 60.7121L70.0391 63.7281C70.0526 64.1685 69.9425 64.604 69.7213 64.9851C69.5001 65.3662 69.1766 65.6778 68.7874 65.8845C68.3519 66.1128 67.929 66.3645 67.5207 66.6385C67.1629 66.8931 66.7412 67.0428 66.3029 67.0708C65.8647 67.0987 65.4273 67.0039 65.0401 66.7969L62.3483 65.3567L57.6282 74.2238L60.32 75.6715C60.7058 75.879 61.0259 76.1901 61.2444 76.5698C61.4628 76.9494 61.571 77.3826 61.5566 77.8204C61.547 78.3236 61.5646 78.827 61.6094 79.3284C61.657 79.7707 61.5789 80.2176 61.3842 80.6177C61.1895 81.0177 60.886 81.3549 60.5085 81.5904L57.9072 83.2039L63.1852 91.6864L65.7714 90.0276ZM68.2672 74.269C69.0292 72.8416 70.1974 71.6721 71.624 70.9086C73.0507 70.1452 74.6717 69.8219 76.2821 69.9797C77.8925 70.1375 79.4199 70.7694 80.6712 71.7953C81.9225 72.8212 82.8414 74.1952 83.3118 75.7434C83.7821 77.2917 83.7828 78.9446 83.3137 80.4932C82.8447 82.0419 81.9269 83.4166 80.6764 84.4436C79.426 85.4706 77.8991 86.1037 76.2888 86.2628C74.6786 86.422 73.0573 86.1 71.63 85.3377C69.7179 84.3142 68.29 82.574 67.6595 80.4988C67.0291 78.4237 67.2476 76.1832 68.2672 74.269Z" fill="#EBEBEB"/>
<path d="M327.236 192.677C327.392 192.411 327.62 192.194 327.893 192.05C328.166 191.906 328.474 191.841 328.782 191.863H329.815C330.116 191.847 330.415 191.913 330.681 192.056C330.947 192.198 331.169 192.41 331.323 192.67L332.393 194.532L338.425 191.033L337.355 189.179C337.201 188.911 337.126 188.607 337.136 188.299C337.147 187.991 337.244 187.693 337.415 187.437C337.606 187.14 337.779 186.839 337.935 186.532C338.075 186.253 338.291 186.018 338.557 185.856C338.824 185.693 339.131 185.609 339.443 185.612H341.585V178.615H339.443C339.132 178.62 338.825 178.537 338.558 178.376C338.291 178.214 338.076 177.981 337.935 177.703C337.78 177.391 337.606 177.089 337.415 176.798C337.244 176.542 337.147 176.243 337.136 175.936C337.126 175.628 337.201 175.323 337.355 175.056L338.425 173.194L332.393 169.703L331.315 171.565C331.162 171.826 330.941 172.04 330.675 172.183C330.409 172.327 330.109 172.395 329.807 172.379C329.634 172.379 329.46 172.379 329.287 172.379C329.113 172.379 328.948 172.379 328.774 172.379C328.467 172.398 328.16 172.332 327.887 172.189C327.615 172.045 327.387 171.829 327.228 171.565L326.158 169.703L320.126 173.194L321.196 175.049C321.35 175.316 321.425 175.62 321.415 175.928C321.404 176.236 321.308 176.535 321.136 176.79C320.95 177.087 320.777 177.389 320.616 177.695C320.477 177.975 320.261 178.21 319.995 178.372C319.728 178.535 319.42 178.619 319.108 178.615H316.967V185.612H319.108C319.42 185.609 319.727 185.693 319.994 185.856C320.26 186.018 320.476 186.253 320.616 186.532C320.771 186.844 320.945 187.146 321.136 187.437C321.308 187.693 321.404 187.991 321.415 188.299C321.425 188.607 321.35 188.911 321.196 189.179L320.126 191.033L326.158 194.532L327.236 192.677ZM323.564 182.121C323.563 180.987 323.897 179.879 324.526 178.935C325.155 177.992 326.049 177.256 327.096 176.822C328.143 176.387 329.296 176.272 330.408 176.492C331.52 176.713 332.542 177.258 333.344 178.059C334.146 178.86 334.692 179.881 334.914 180.993C335.136 182.105 335.023 183.257 334.589 184.305C334.156 185.352 333.421 186.248 332.479 186.878C331.536 187.508 330.428 187.844 329.294 187.844C327.778 187.84 326.325 187.236 325.252 186.163C324.18 185.091 323.576 183.638 323.572 182.121H323.564Z" fill="#EBEBEB"/>
<path d="M37.2325 103.803C37.4992 103.959 37.7169 104.186 37.8609 104.459C38.0048 104.733 38.0692 105.041 38.0468 105.349C38.0468 105.515 38.0468 105.688 38.0468 105.862C38.0468 106.035 38.0468 106.208 38.0468 106.382C38.0628 106.683 37.9961 106.983 37.8539 107.248C37.7117 107.514 37.4994 107.736 37.2401 107.89L35.3777 108.961L38.8762 114.993L40.716 113.975C40.9836 113.823 41.288 113.748 41.5954 113.759C41.9028 113.77 42.2013 113.865 42.4577 114.035C42.7518 114.223 43.0534 114.404 43.3625 114.563C43.6371 114.698 43.8686 114.908 44.0311 115.167C44.1935 115.427 44.2805 115.727 44.2824 116.033V118.174H51.272V116.033C51.2723 115.727 51.3579 115.428 51.519 115.168C51.6802 114.908 51.9106 114.699 52.1843 114.563C52.4961 114.405 52.7982 114.229 53.0892 114.035C53.3456 113.865 53.6441 113.77 53.9515 113.759C54.2589 113.748 54.5633 113.823 54.8309 113.975L56.6933 115.045L60.1843 109.013L58.3219 107.935C58.0629 107.78 57.8505 107.559 57.7071 107.293C57.5638 107.028 57.4948 106.728 57.5076 106.427C57.5076 106.254 57.5076 106.088 57.5076 105.914C57.5076 105.741 57.5076 105.568 57.5076 105.402C57.4878 105.094 57.5534 104.787 57.6971 104.514C57.8408 104.241 58.057 104.014 58.3219 103.856L60.1843 102.785L56.6933 96.7533L54.8384 97.8239C54.5714 97.9773 54.2667 98.0529 53.959 98.0423C53.6512 98.0316 53.3525 97.9351 53.0967 97.7636C52.8051 97.5776 52.5035 97.4042 52.1919 97.2434C51.9121 97.1042 51.6773 96.8888 51.5145 96.622C51.3518 96.3552 51.2677 96.0478 51.272 95.7354V93.594H44.2975V95.7354C44.3009 96.0477 44.2165 96.3546 44.0538 96.6213C43.8912 96.8879 43.6569 97.1035 43.3776 97.2434C43.066 97.3988 42.7639 97.5725 42.4728 97.7636C42.2155 97.9349 41.9157 98.0313 41.6067 98.042C41.2978 98.0526 40.992 97.9771 40.7235 97.8239L38.8762 96.7533L35.3777 102.785L37.2325 103.803ZM47.7885 100.131C48.9222 100.13 50.0309 100.465 50.9742 101.093C51.9176 101.722 52.6532 102.616 53.0881 103.663C53.523 104.71 53.6375 105.863 53.4173 106.975C53.197 108.087 52.6518 109.109 51.8507 109.911C51.0496 110.713 50.0286 111.26 48.9168 111.481C47.805 111.703 46.6524 111.59 45.6049 111.157C44.5574 110.723 43.6619 109.989 43.0319 109.046C42.4019 108.103 42.0657 106.995 42.0657 105.862C42.0677 104.344 42.671 102.888 43.7436 101.814C44.8162 100.74 46.2707 100.135 47.7885 100.131Z" fill="#EBEBEB"/>
<path d="M99.4978 356.619C129.73 356.619 154.238 353.112 154.238 348.785C154.238 344.459 129.73 340.951 99.4978 340.951C69.2656 340.951 44.7574 344.459 44.7574 348.785C44.7574 353.112 69.2656 356.619 99.4978 356.619Z" fill="#EBEBEB"/>
<path d="M298.705 264.827C293.125 253.359 283.361 247.485 272.315 250.72C261.269 253.955 259.602 269.321 267.791 273.197C275.979 277.072 284.22 265.762 288.563 263.433C292.906 261.103 298.705 264.827 298.705 264.827Z" fill="#3E64FF"/>
<path d="M304.111 295.364C304.111 293.985 304.028 292.597 303.975 291.217C303.877 288.458 303.787 285.698 303.689 282.923C303.5 277.879 302.935 272.918 300.861 268.266C299.014 264.046 295.926 260.488 292.009 258.064C290.557 257.184 288.992 256.507 287.357 256.051C285.878 254.537 283.988 253.489 281.921 253.035C279.373 252.517 276.755 252.451 274.185 252.839C274.087 252.839 274.094 252.997 274.185 252.982C276.638 252.671 279.129 252.848 281.513 253.502C282.532 253.788 283.52 254.175 284.462 254.656C285.055 254.974 285.624 255.335 286.166 255.734C283.945 255.275 281.651 255.298 279.44 255.802C278.644 255.989 277.865 256.241 277.11 256.556C276.506 256.425 275.888 256.372 275.27 256.398C274.466 256.428 273.668 256.541 272.888 256.737C271.295 257.186 269.773 257.853 268.364 258.72C268.281 258.765 268.364 258.886 268.439 258.841C269.828 258.084 271.315 257.523 272.858 257.174C273.602 257.007 274.358 256.896 275.12 256.843C275.541 256.82 275.964 256.82 276.386 256.843C273.249 258.291 270.727 260.805 269.268 263.938C269.231 264.021 269.359 264.096 269.397 264.006C270.264 262.194 271.527 260.6 273.093 259.341C274.659 258.083 276.488 257.193 278.445 256.737C278.686 256.677 278.935 256.647 279.199 256.594C279.116 256.948 279.131 257.348 279.086 257.702C279.01 258.26 278.92 258.818 278.807 259.368C278.576 260.507 278.276 261.63 277.909 262.731C277.537 263.843 277.091 264.929 276.575 265.981C276.083 267.1 275.458 268.156 274.712 269.125C274.704 269.133 274.697 269.142 274.693 269.153C274.688 269.163 274.686 269.175 274.687 269.186C274.688 269.198 274.691 269.209 274.697 269.219C274.702 269.229 274.71 269.237 274.72 269.244C274.729 269.25 274.74 269.254 274.751 269.256C274.763 269.258 274.774 269.257 274.785 269.254C274.796 269.25 274.806 269.244 274.814 269.236C274.823 269.229 274.829 269.219 274.833 269.208C275.489 268.175 276.258 267.218 276.861 266.147C277.448 265.12 277.952 264.049 278.369 262.942C278.793 261.826 279.121 260.676 279.349 259.504C279.478 258.886 279.568 258.26 279.644 257.634C279.715 257.259 279.738 256.877 279.711 256.496C281.005 256.301 282.317 256.276 283.617 256.42C283.135 259.157 282.607 262.007 281.076 264.383C281.023 264.466 281.159 264.541 281.204 264.45C281.921 263.191 282.551 261.883 283.089 260.537C283.597 259.232 283.917 257.861 284.039 256.466C286.311 256.77 288.504 257.504 290.501 258.63C294.259 260.818 297.26 264.101 299.104 268.039C301.046 272.284 302.13 276.871 302.294 281.536C302.656 287.395 302.731 293.298 303.319 299.142C303.357 299.526 303.96 299.655 304.073 299.217C304.202 297.937 304.215 296.647 304.111 295.364Z" fill="#263238"/>
<path d="M291.21 257.152C290.842 256.705 290.416 256.309 289.943 255.975C289.483 255.598 289.016 255.221 288.526 254.905C287.56 254.232 286.49 253.723 285.359 253.397C285.268 253.397 285.231 253.525 285.359 253.54C286.495 253.822 287.56 254.335 288.488 255.048C288.955 255.395 289.4 255.757 289.838 256.141C290.225 256.547 290.655 256.911 291.119 257.227C291.165 257.333 291.27 257.235 291.21 257.152Z" fill="#263238"/>
<path d="M273.4 261.306C272.478 262.381 271.621 263.512 270.837 264.692C270.078 265.881 269.441 267.144 268.937 268.462C268.937 268.499 268.982 268.522 269.005 268.462C270.29 265.964 271.805 263.592 273.529 261.374C273.566 261.336 273.461 261.238 273.4 261.306Z" fill="#263238"/>
<path d="M285.404 260.175C285.287 260.891 285.077 261.588 284.778 262.249C284.47 262.887 284.114 263.502 283.715 264.088C283.715 264.126 283.715 264.164 283.775 264.134C284.741 263.028 285.357 261.661 285.547 260.205C285.562 260.13 285.419 260.077 285.404 260.175Z" fill="#263238"/>
<path d="M303.334 265.114C303.334 265.114 311.236 255.176 326.482 258.697C340.981 262.045 347.669 288.631 333.027 291.805C318.384 294.98 320.963 270.392 315.617 266.215C311.704 263.146 306.071 263.809 303.334 265.114Z" fill="#3E64FF"/>
<path d="M338.267 273.219C337.272 272.348 336.222 271.542 335.123 270.807C334.087 270.1 332.961 269.537 331.775 269.133C331.179 268.231 330.513 267.376 329.785 266.577C328.438 265.133 326.885 263.895 325.178 262.905H325.63C326.436 262.863 327.244 262.863 328.05 262.905C329.679 263.008 331.275 263.404 332.763 264.073C332.846 264.073 332.906 263.975 332.823 263.945C331.317 263.294 329.741 262.818 328.126 262.528C327.339 262.388 326.542 262.32 325.743 262.324C325.315 262.326 324.887 262.352 324.461 262.399H324.212C322.814 261.695 321.339 261.154 319.817 260.786L320.246 260.665C320.994 260.504 321.749 260.381 322.508 260.296C324.028 260.122 325.564 260.145 327.078 260.364C327.093 260.359 327.106 260.349 327.115 260.336C327.125 260.323 327.13 260.308 327.13 260.292C327.13 260.276 327.125 260.261 327.115 260.248C327.106 260.235 327.093 260.225 327.078 260.22C325.547 260.039 324.004 259.979 322.463 260.039C321.17 260.075 319.884 260.242 318.625 260.537C317.709 260.367 316.782 260.261 315.851 260.22C310.527 259.994 304.729 261.977 301.457 266.35C298.184 270.724 297.543 276.56 296.933 281.838C296.039 289.194 295.844 296.619 296.352 304.013C296.352 304.442 297.001 304.367 297.008 303.952C297.212 297.687 297.43 291.413 298.034 285.17C298.313 282.275 298.614 279.372 299.097 276.507C299.45 274.04 300.159 271.638 301.2 269.374C302.332 267.061 304.124 265.135 306.35 263.84C308.582 262.553 311.073 261.781 313.641 261.578C315.941 261.385 318.257 261.602 320.48 262.218C320.4 262.664 320.387 263.119 320.442 263.568C320.495 264.134 320.609 264.693 320.782 265.234C320.944 265.756 321.156 266.261 321.415 266.742C321.702 267.263 322.056 267.73 322.373 268.25C322.418 268.326 322.546 268.25 322.486 268.168C321.86 267.269 321.454 266.236 321.302 265.152C321.212 264.638 321.151 264.119 321.121 263.598C321.121 263.206 321.121 262.807 321.121 262.415C323.54 263.16 325.799 264.351 327.779 265.928C328.148 266.23 328.533 266.539 328.857 266.863C328.355 267.332 327.919 267.868 327.56 268.454C327.038 269.217 326.584 270.025 326.203 270.867C325.503 272.557 325.029 274.331 324.793 276.145C324.793 276.235 324.929 276.265 324.936 276.145C325.221 274.383 325.81 272.683 326.678 271.123C327.079 270.341 327.53 269.586 328.028 268.861C328.284 268.499 328.548 268.107 328.827 267.783C328.978 267.594 329.144 267.398 329.279 267.195C331.074 268.951 332.54 271.015 333.607 273.287C332.879 274.08 332.281 274.984 331.835 275.964C331.289 276.934 330.813 277.942 330.41 278.98C329.674 281.011 329.064 283.086 328.586 285.193C328.586 285.283 328.714 285.313 328.729 285.193C329.196 283.068 329.922 281.01 330.893 279.063C331.353 278.113 331.835 277.17 332.341 276.243C332.867 275.38 333.345 274.489 333.773 273.574C334.788 275.8 335.379 278.196 335.515 280.639C335.515 280.729 335.666 280.722 335.658 280.639C335.377 276.807 334.205 273.094 332.235 269.796C333.17 270.196 334.105 270.55 335.002 271.063C336.149 271.681 337.213 272.441 338.169 273.325C338.237 273.393 338.335 273.28 338.267 273.219Z" fill="#263238"/>
<path d="M327.078 273.777C326.625 275.285 326.045 276.748 325.63 278.301C325.219 279.749 324.999 281.245 324.974 282.75C324.974 282.795 325.042 282.795 325.049 282.75C325.463 279.706 326.196 276.713 327.236 273.823C327.239 273.812 327.24 273.801 327.239 273.791C327.237 273.78 327.234 273.769 327.229 273.76C327.224 273.751 327.216 273.742 327.208 273.735C327.2 273.729 327.19 273.724 327.179 273.721C327.169 273.718 327.158 273.717 327.147 273.718C327.137 273.719 327.126 273.723 327.117 273.728C327.107 273.733 327.099 273.74 327.092 273.749C327.086 273.757 327.081 273.767 327.078 273.777Z" fill="#263238"/>
<path d="M336.744 270.045C336.145 269.468 335.464 268.983 334.723 268.605C333.97 268.261 333.187 267.984 332.386 267.776C332.295 267.776 332.265 267.896 332.386 267.919C333.179 268.121 333.941 268.433 334.648 268.846C335.369 269.22 336.062 269.646 336.721 270.12C336.729 270.119 336.736 270.115 336.742 270.109C336.748 270.104 336.752 270.097 336.755 270.089C336.757 270.082 336.757 270.074 336.755 270.066C336.753 270.058 336.749 270.051 336.744 270.045Z" fill="#263238"/>
<path d="M310.844 251.836C310.844 251.836 312.299 233.996 325.562 228.213C336.638 223.388 342.98 235.829 335.153 243.451C328.819 249.619 318.663 246.837 310.844 251.836Z" fill="#3E64FF"/>
<path d="M332.702 231.674C330.682 232.491 328.711 233.425 326.799 234.471C325.212 235.381 323.684 236.388 322.222 237.487C322.441 237.035 322.629 236.568 322.855 236.123C323.202 235.437 323.572 234.758 323.979 234.109C324.794 232.757 325.777 231.513 326.904 230.407C326.972 230.347 326.859 230.241 326.799 230.309C325.675 231.416 324.646 232.614 323.722 233.891C323.266 234.538 322.845 235.21 322.463 235.904C322.072 236.546 321.77 237.239 321.566 237.962L321.423 238.068C319.106 239.913 316.984 241.99 315.089 244.266C315.127 244.092 315.157 243.919 315.21 243.753C315.459 242.886 315.722 242.019 316.009 241.159C316.583 239.33 317.389 237.581 318.407 235.957C318.459 235.881 318.331 235.806 318.278 235.889C317.238 237.514 316.311 239.21 315.504 240.963C315.133 241.819 314.826 242.701 314.584 243.602C314.392 244.188 314.248 244.788 314.154 245.397C313.574 246.151 313.008 246.867 312.473 247.659C306.78 255.764 303.922 265.566 303.236 275.383C303.035 278.307 302.985 281.239 303.085 284.168C303.099 287.124 303.351 290.074 303.839 292.989C303.877 293.178 304.164 293.118 304.164 292.937C304.096 290.358 303.832 287.794 303.779 285.216C303.73 282.629 303.813 280.042 304.028 277.464C304.444 272.316 305.415 267.227 306.923 262.286C308.464 257.224 310.734 252.413 313.664 248.006C314.222 247.893 314.78 247.742 315.33 247.599C315.881 247.455 316.657 247.259 317.313 247.078C318.587 246.749 319.824 246.295 321.008 245.721C321.016 245.716 321.023 245.71 321.028 245.702C321.034 245.694 321.037 245.686 321.04 245.677C321.042 245.668 321.042 245.658 321.04 245.649C321.039 245.64 321.036 245.631 321.031 245.623C321.026 245.615 321.019 245.608 321.012 245.603C321.004 245.597 320.995 245.594 320.986 245.591C320.977 245.589 320.968 245.589 320.958 245.591C320.949 245.592 320.94 245.595 320.933 245.6C319.757 246.238 318.483 246.674 317.163 246.89C316.122 247.101 315.044 247.229 314.003 247.47C314.968 246.068 315.994 244.711 317.087 243.414C319.614 243.643 322.161 243.454 324.627 242.856C325.939 242.538 327.228 242.135 328.488 241.649C329.822 241.137 331.074 240.481 332.386 239.93C332.403 239.922 332.416 239.908 332.422 239.89C332.429 239.873 332.428 239.853 332.42 239.836C332.412 239.819 332.397 239.806 332.38 239.8C332.362 239.793 332.342 239.794 332.325 239.802C329.951 241.096 327.36 241.945 324.68 242.305C322.313 242.686 319.921 242.882 317.524 242.894C318.467 241.815 319.44 240.76 320.48 239.772C323.964 236.454 328.103 233.408 332.687 231.817C332.831 231.787 332.785 231.644 332.702 231.674Z" fill="#263238"/>
<path d="M321.905 231.734C321.305 232.485 320.761 233.279 320.277 234.109C319.782 234.984 319.39 235.913 319.108 236.877C319.108 236.877 319.108 236.929 319.161 236.877C319.606 236.002 319.975 235.09 320.427 234.222C320.865 233.363 321.396 232.554 322.011 231.81C322.071 231.757 321.958 231.659 321.905 231.734Z" fill="#263238"/>
<path d="M334.241 237.668C333.379 238.148 332.466 238.53 331.519 238.807C330.611 239.11 329.687 239.362 328.752 239.561C328.706 239.561 328.714 239.644 328.752 239.636C329.729 239.534 330.693 239.324 331.624 239.01C332.542 238.661 333.438 238.258 334.309 237.804C334.399 237.751 334.324 237.623 334.241 237.668Z" fill="#263238"/>
<path d="M300.529 248.639C300.446 249.393 298.524 242.155 287.304 235.723C277.125 229.879 264.963 214.679 274.954 205.073C283.014 197.322 304.254 214.219 300.529 248.639Z" fill="#3E64FF"/>
<path d="M308.25 290.192C308.086 282.657 307.492 275.137 306.471 267.67C305.584 260.797 303.995 254.034 301.728 247.485C300.899 245.125 299.941 242.811 298.908 240.526C298.965 239.636 298.95 238.744 298.863 237.857C298.81 236.711 298.705 235.595 298.599 234.434C298.494 233.272 298.38 232.172 298.245 231.018C298.109 229.864 297.868 228.756 297.822 227.617C297.826 227.606 297.827 227.594 297.825 227.582C297.823 227.57 297.819 227.559 297.812 227.55C297.805 227.54 297.796 227.532 297.785 227.527C297.774 227.521 297.763 227.518 297.751 227.518C297.739 227.518 297.727 227.521 297.717 227.527C297.706 227.532 297.697 227.54 297.69 227.55C297.683 227.559 297.678 227.57 297.676 227.582C297.674 227.594 297.675 227.606 297.679 227.617C297.903 228.81 298.036 230.017 298.079 231.229C298.169 232.33 298.23 233.431 298.26 234.532C298.297 235.64 298.26 236.741 298.26 237.849C298.26 238.241 298.26 238.664 298.222 239.093C297.174 236.831 296.043 234.667 294.814 232.533C295.568 227.881 294.588 223.018 293.638 218.471C293.638 218.381 293.479 218.426 293.502 218.517C293.972 220.891 294.224 223.304 294.256 225.725C294.301 227.632 294.211 229.54 294.203 231.448C293.932 230.995 293.668 230.535 293.389 230.083C291.934 227.708 290.373 225.378 288.729 223.124C288.864 222.021 288.828 220.905 288.624 219.814C288.439 218.587 288.167 217.375 287.809 216.187C287.447 215.003 287.055 213.834 286.565 212.688C286.075 211.542 285.434 210.389 284.967 209.212C284.922 209.107 284.778 209.212 284.831 209.265C285.43 210.382 285.901 211.563 286.233 212.786C286.608 213.931 286.915 215.097 287.153 216.277C287.395 217.453 287.583 218.637 287.749 219.836C287.862 220.59 287.93 221.442 288.066 222.234C285.665 219.009 283.042 215.955 280.217 213.095C280.149 213.028 280.051 213.133 280.111 213.201C284.388 218.008 288.207 223.202 291.519 228.718L291.873 229.337C291.255 228.952 290.546 228.643 289.966 228.319L286.701 226.524L283.519 224.79C282.976 224.488 282.441 224.172 281.883 223.885C281.221 223.59 280.586 223.239 279.983 222.837C279.968 222.826 279.949 222.821 279.931 222.824C279.912 222.827 279.896 222.837 279.885 222.852C279.874 222.867 279.869 222.886 279.872 222.904C279.875 222.923 279.885 222.939 279.9 222.95C280.978 223.546 281.936 224.458 282.976 225.092C284.017 225.725 285.087 226.403 286.181 227.014C288.171 228.123 290.335 228.922 292.303 230.075C293.66 232.458 294.917 234.899 296.073 237.397C294.882 236.643 293.668 235.889 292.431 235.21C291.64 234.765 290.84 234.328 290.034 233.906C289.232 233.535 288.474 233.077 287.772 232.541C287.757 232.534 287.741 232.532 287.725 232.535C287.709 232.538 287.695 232.546 287.684 232.558C287.673 232.569 287.666 232.584 287.664 232.6C287.662 232.616 287.666 232.633 287.674 232.647C288.98 233.828 290.429 234.841 291.986 235.663C293.427 236.507 294.882 237.321 296.382 238.053C297.579 240.687 298.659 243.363 299.625 246.083C304.345 259.451 306.079 273.642 306.908 287.734C307.157 291.934 307.285 296.133 307.338 300.341C307.391 304.548 307.165 308.74 307.172 312.94C307.172 313.061 307.376 313.091 307.398 312.94C307.903 309.215 307.986 305.4 308.152 301.675C308.318 297.951 308.333 294.015 308.25 290.192Z" fill="#263238"/>
<path d="M287.87 229.676C285.823 228.774 283.833 227.747 281.913 226.6C279.965 225.499 278.075 224.298 276.25 223.003C276.25 223.003 276.19 223.003 276.213 223.056C277.937 224.435 279.753 225.695 281.649 226.826C283.637 227.935 285.692 228.92 287.802 229.774C287.892 229.842 287.96 229.714 287.87 229.676Z" fill="#263238"/>
<path d="M291.119 214.566C290.954 213.917 290.75 213.276 290.531 212.643C290.538 212.632 290.541 212.619 290.541 212.605C290.541 212.592 290.538 212.579 290.531 212.568C290.388 212.206 290.237 211.814 290.094 211.489L290.041 211.354C290.041 211.286 289.981 211.218 289.958 211.15C289.936 211.082 289.913 211.15 289.921 211.15C289.928 211.15 289.988 211.399 290.026 211.52C290.043 211.588 290.063 211.656 290.086 211.723C290.83 214.217 291.387 216.762 291.753 219.339C291.753 219.422 291.888 219.422 291.881 219.339C291.777 217.727 291.522 216.129 291.119 214.566Z" fill="#263238"/>
<path d="M320.103 292.906L319.304 302.392L316.853 331.323H290.607L288.156 302.392L287.357 292.906H320.103Z" fill="#37474F"/>
<path d="M320.103 292.906L319.304 302.392H288.156L287.357 292.906H320.103Z" fill="#263238"/>
<path d="M322.674 289.099H284.778V298.199H322.674V289.099Z" fill="#37474F"/>
<path d="M35.7698 331.323L73.9523 331.142L112.135 331.074L188.5 330.946L264.865 331.066L303.048 331.134L341.23 331.323L303.048 331.504L264.865 331.571L188.5 331.7L112.135 331.571L73.9523 331.504L35.7698 331.323Z" fill="#263238"/>
<path d="M252.221 42.6538H124.795C123.082 42.6646 121.388 43.0135 119.81 43.6804C118.232 44.3473 116.802 45.3191 115.6 46.5401C114.399 47.7611 113.45 49.2072 112.809 50.7955C112.168 52.3839 111.847 54.0832 111.863 55.796V318.188C111.833 321.64 113.175 324.963 115.595 327.426C118.014 329.889 121.312 331.291 124.764 331.323H252.19C253.903 331.311 255.597 330.962 257.174 330.295C258.752 329.629 260.183 328.658 261.385 327.438C262.587 326.218 263.537 324.773 264.181 323.186C264.825 321.599 265.149 319.901 265.137 318.188V55.796C265.151 54.085 264.829 52.3878 264.188 50.8013C263.547 49.2148 262.6 47.7702 261.4 46.5498C260.201 45.3294 258.773 44.3572 257.198 43.6887C255.623 43.0203 253.932 42.6686 252.221 42.6538ZM257.069 310.075C257.069 316.982 251.896 322.569 245.517 322.569H131.49C125.096 322.569 119.924 316.982 119.924 310.075V65.7337C119.924 51.6641 125.096 50.978 131.49 50.978H154.329C155.656 50.978 156.742 52.486 156.742 54.3559V55.1627C156.742 59.566 159.139 59.566 162.11 59.566H214.89C217.853 59.566 220.236 59.566 220.236 55.1702V54.3559C220.236 52.486 221.299 50.978 222.649 50.978H245.495C251.874 50.978 257.046 52.8479 257.046 65.7337L257.069 310.075Z" fill="#263238"/>
<path d="M195.701 54.0845H181.292C181.175 54.0845 181.059 54.0615 180.951 54.0168C180.843 53.9721 180.745 53.9065 180.663 53.8239C180.58 53.7413 180.514 53.6432 180.47 53.5353C180.425 53.4273 180.402 53.3116 180.402 53.1948C180.402 52.9588 180.496 52.7325 180.663 52.5656C180.829 52.3988 181.056 52.3051 181.292 52.3051H195.701C195.937 52.3051 196.163 52.3988 196.33 52.5656C196.497 52.7325 196.59 52.9588 196.59 53.1948C196.59 53.3116 196.567 53.4273 196.523 53.5353C196.478 53.6432 196.412 53.7413 196.33 53.8239C196.247 53.9065 196.149 53.9721 196.041 54.0168C195.933 54.0615 195.818 54.0845 195.701 54.0845Z" fill="white"/>
<path d="M257.114 65.7338V310.075C257.114 316.982 251.942 322.569 245.563 322.569H131.49C125.096 322.569 119.924 316.982 119.924 310.075V65.7338C119.924 51.6642 125.096 50.978 131.49 50.978H154.329C155.656 50.978 156.742 52.486 156.742 54.3559V55.1627C156.742 59.5661 159.139 59.5661 162.11 59.5661H214.89C217.861 59.5661 220.236 59.5661 220.236 55.1703V54.3559C220.236 52.486 221.307 50.978 222.656 50.978H245.502C251.904 50.978 257.114 52.8479 257.114 65.7338Z" fill="white"/>
<path d="M133.805 75.0608L129.748 71.2682L133.805 67.468L134.431 68.1391L131.098 71.2682L134.431 74.3973L133.805 75.0608Z" fill="#C7C7C7"/>
<path d="M246.452 68.9006C246.452 69.0587 246.406 69.2132 246.318 69.3446C246.23 69.4761 246.105 69.5785 245.959 69.639C245.813 69.6995 245.652 69.7153 245.497 69.6845C245.342 69.6536 245.2 69.5775 245.088 69.4657C244.976 69.354 244.9 69.2116 244.869 69.0565C244.838 68.9015 244.854 68.7408 244.915 68.5947C244.975 68.4487 245.078 68.3239 245.209 68.2361C245.341 68.1482 245.495 68.1014 245.653 68.1014C245.758 68.1003 245.863 68.1203 245.96 68.1601C246.058 68.1999 246.146 68.2588 246.221 68.3332C246.295 68.4076 246.354 68.4961 246.394 68.5936C246.433 68.691 246.453 68.7954 246.452 68.9006Z" fill="#C7C7C7"/>
<path d="M246.452 71.7356C246.452 71.8936 246.406 72.0482 246.318 72.1796C246.23 72.311 246.105 72.4135 245.959 72.474C245.813 72.5345 245.652 72.5503 245.497 72.5194C245.342 72.4886 245.2 72.4125 245.088 72.3007C244.976 72.1889 244.9 72.0465 244.869 71.8915C244.838 71.7364 244.854 71.5757 244.915 71.4297C244.975 71.2837 245.078 71.1588 245.209 71.071C245.341 70.9832 245.495 70.9363 245.653 70.9363C245.758 70.9353 245.863 70.9553 245.96 70.9951C246.058 71.0349 246.146 71.0937 246.221 71.1682C246.295 71.2426 246.354 71.3311 246.394 71.4285C246.433 71.5259 246.453 71.6303 246.452 71.7356Z" fill="#C7C7C7"/>
<path d="M246.452 74.5706C246.452 74.7287 246.406 74.8832 246.318 75.0147C246.23 75.1461 246.105 75.2486 245.959 75.309C245.813 75.3695 245.652 75.3854 245.497 75.3545C245.342 75.3237 245.2 75.2476 245.088 75.1358C244.976 75.024 244.9 74.8816 244.869 74.7266C244.838 74.5715 244.854 74.4108 244.915 74.2648C244.975 74.1187 245.078 73.9939 245.209 73.9061C245.341 73.8183 245.495 73.7714 245.653 73.7714C245.758 73.7704 245.863 73.7904 245.96 73.8302C246.058 73.87 246.146 73.9288 246.221 74.0033C246.295 74.0777 246.354 74.1662 246.394 74.2636C246.433 74.361 246.453 74.4654 246.452 74.5706Z" fill="#C7C7C7"/>
<path d="M150.385 56.4671L150.167 56.6858L150.038 56.8064C149.473 56.2447 148.709 55.9294 147.912 55.9294C147.115 55.9294 146.351 56.2447 145.786 56.8064L145.665 56.6783L145.447 56.4596L145.726 56.2108C145.928 56.0541 146.145 55.9177 146.374 55.8036C146.645 55.6668 146.935 55.5703 147.234 55.5171C147.373 55.489 147.514 55.4689 147.656 55.4568H148.033H148.319C148.59 55.4891 148.855 55.5524 149.111 55.6453C149.293 55.7143 149.47 55.7975 149.639 55.8941C149.818 55.9966 149.987 56.1152 150.144 56.2485L150.378 56.4596L150.385 56.4671Z" fill="#C7C7C7"/>
<path d="M146.487 57.5001L146.133 57.1532C146.606 56.6836 147.246 56.42 147.912 56.42C148.579 56.42 149.218 56.6836 149.692 57.1532L149.337 57.5001C148.959 57.1235 148.446 56.912 147.912 56.912C147.378 56.912 146.866 57.1235 146.487 57.5001Z" fill="#C7C7C7"/>
<path d="M148.99 57.8546L148.644 58.1939C148.544 58.0963 148.426 58.0194 148.297 57.9677C148.167 57.9159 148.029 57.8903 147.89 57.8923C147.749 57.8895 147.61 57.9155 147.481 57.9687C147.351 58.0219 147.233 58.1011 147.136 58.2014C147.022 58.0808 146.902 57.9677 146.789 57.8546C146.93 57.7039 147.1 57.5838 147.29 57.5017C147.479 57.4196 147.683 57.3772 147.89 57.3772C148.096 57.3772 148.3 57.4196 148.489 57.5017C148.679 57.5838 148.849 57.7039 148.99 57.8546Z" fill="#C7C7C7"/>
<path d="M148.229 58.5105C148.229 58.5945 148.195 58.6751 148.136 58.7345C148.077 58.7938 147.996 58.8272 147.912 58.8272C147.871 58.8272 147.83 58.819 147.792 58.803C147.754 58.787 147.72 58.7635 147.691 58.734C147.662 58.7045 147.639 58.6695 147.624 58.6311C147.609 58.5928 147.602 58.5518 147.603 58.5105C147.603 58.4285 147.636 58.3499 147.694 58.2919C147.752 58.234 147.83 58.2014 147.912 58.2014C147.953 58.2004 147.994 58.2076 148.033 58.2227C148.071 58.2378 148.106 58.2604 148.136 58.2892C148.165 58.318 148.189 58.3524 148.205 58.3905C148.221 58.4285 148.229 58.4693 148.229 58.5105Z" fill="#C7C7C7"/>
<path d="M128.866 57.1306C128.866 56.9498 128.92 56.7731 129.02 56.6229C129.121 56.4727 129.264 56.3558 129.431 56.287C129.598 56.2182 129.782 56.2005 129.959 56.2364C130.136 56.2722 130.299 56.3598 130.426 56.4882C130.554 56.6165 130.64 56.7798 130.674 56.9572C130.709 57.1347 130.689 57.3184 130.619 57.485C130.549 57.6515 130.431 57.7935 130.28 57.8928C130.129 57.9922 129.952 58.0444 129.771 58.0429C129.651 58.0429 129.533 58.0193 129.423 57.9733C129.313 57.9274 129.213 57.8601 129.128 57.7752C129.044 57.6904 128.978 57.5898 128.933 57.4791C128.888 57.3685 128.865 57.25 128.866 57.1306Z" fill="#C7C7C7"/>
<path d="M131.724 57.1307C131.727 56.9509 131.783 56.776 131.885 56.628C131.987 56.4799 132.13 56.3653 132.297 56.2986C132.464 56.2318 132.647 56.2159 132.823 56.2528C132.999 56.2897 133.16 56.3778 133.286 56.5059C133.412 56.6341 133.498 56.7967 133.532 56.9732C133.566 57.1498 133.547 57.3324 133.477 57.4983C133.408 57.6641 133.291 57.8057 133.141 57.9053C132.992 58.0049 132.816 58.0581 132.636 58.0581C132.515 58.0581 132.395 58.034 132.283 57.9872C132.172 57.9404 132.071 57.8719 131.986 57.7856C131.901 57.6992 131.834 57.5969 131.789 57.4844C131.744 57.372 131.722 57.2517 131.724 57.1307Z" fill="#C7C7C7"/>
<path d="M134.589 57.1307C134.592 56.9509 134.648 56.776 134.75 56.628C134.852 56.4799 134.996 56.3653 135.163 56.2986C135.329 56.2318 135.512 56.2159 135.688 56.2528C135.864 56.2897 136.026 56.3778 136.152 56.5059C136.278 56.6341 136.363 56.7967 136.397 56.9732C136.431 57.1498 136.412 57.3324 136.343 57.4983C136.273 57.6641 136.156 57.8057 136.007 57.9053C135.857 58.0049 135.681 58.0581 135.501 58.0581C135.38 58.0581 135.26 58.034 135.149 57.9872C135.037 57.9404 134.936 57.8719 134.851 57.7856C134.766 57.6992 134.699 57.5969 134.654 57.4844C134.609 57.372 134.587 57.2517 134.589 57.1307Z" fill="#C7C7C7"/>
<path d="M137.454 57.1306C137.457 56.9505 137.513 56.7754 137.616 56.6272C137.718 56.479 137.862 56.3644 138.029 56.2979C138.197 56.2314 138.38 56.2159 138.556 56.2534C138.733 56.2909 138.894 56.3797 139.019 56.5086C139.145 56.6376 139.23 56.8008 139.263 56.9779C139.296 57.1549 139.276 57.3378 139.206 57.5035C139.135 57.6692 139.017 57.8103 138.866 57.9089C138.716 58.0076 138.539 58.0595 138.359 58.058C138.238 58.0581 138.119 58.034 138.007 57.9871C137.896 57.9402 137.795 57.8715 137.711 57.7851C137.627 57.6987 137.561 57.5962 137.516 57.4838C137.472 57.3714 137.451 57.2513 137.454 57.1306Z" fill="#C7C7C7"/>
<path d="M140.319 57.1306C140.322 56.9505 140.379 56.7754 140.481 56.6272C140.583 56.479 140.727 56.3644 140.895 56.2979C141.062 56.2314 141.245 56.2159 141.422 56.2534C141.598 56.2909 141.759 56.3797 141.885 56.5086C142.01 56.6376 142.095 56.8008 142.128 56.9779C142.162 57.1549 142.141 57.3378 142.071 57.5035C142 57.6692 141.882 57.8103 141.731 57.9089C141.581 58.0076 141.404 58.0595 141.224 58.058C141.103 58.0581 140.984 58.034 140.873 57.9871C140.761 57.9402 140.661 57.8715 140.576 57.7851C140.492 57.6987 140.426 57.5962 140.382 57.4838C140.338 57.3714 140.316 57.2513 140.319 57.1306Z" fill="#C7C7C7"/>
<path d="M246.792 59.1212H239.38V55.683H246.792V59.1212ZM239.772 58.7367H246.407V56.0675H239.772V58.7367Z" fill="#C7C7C7"/>
<path d="M244.771 56.271H239.998V58.533H244.771V56.271Z" fill="#C7C7C7"/>
<path d="M247.448 56.4822H246.792V58.3144H247.448V56.4822Z" fill="#C7C7C7"/>
<path d="M140.764 307.632H139.716V312.42H137.771V309.977H134.318V312.42H132.372V307.632H131.332L136.044 302.754L140.764 307.632Z" fill="#EBEBEB"/>
<path d="M245.676 302.754H234.306V304.375H245.676V302.754Z" fill="#EBEBEB"/>
<path d="M245.676 306.772H234.306V308.394H245.676V306.772Z" fill="#EBEBEB"/>
<path d="M245.676 310.791H234.306V312.412H245.676V310.791Z" fill="#EBEBEB"/>
<path d="M191.735 306.938L188.5 310.392L185.265 306.938L185.838 306.411L188.5 309.246L191.162 306.411L191.735 306.938Z" fill="#EBEBEB"/>
<path d="M188.5 313.958C187.338 313.958 186.203 313.614 185.237 312.968C184.271 312.323 183.518 311.405 183.073 310.332C182.629 309.259 182.513 308.078 182.739 306.938C182.966 305.799 183.525 304.752 184.347 303.931C185.168 303.11 186.215 302.55 187.354 302.324C188.493 302.097 189.674 302.213 190.748 302.658C191.821 303.102 192.738 303.855 193.384 304.821C194.029 305.787 194.374 306.923 194.374 308.084C194.37 309.641 193.75 311.133 192.649 312.233C191.548 313.334 190.057 313.954 188.5 313.958ZM188.5 302.987C187.492 302.987 186.506 303.286 185.668 303.846C184.83 304.406 184.177 305.202 183.791 306.134C183.405 307.065 183.304 308.09 183.501 309.079C183.698 310.067 184.183 310.976 184.896 311.688C185.609 312.401 186.517 312.887 187.506 313.083C188.494 313.28 189.519 313.179 190.451 312.793C191.382 312.408 192.178 311.754 192.738 310.916C193.298 310.078 193.597 309.092 193.597 308.084C193.597 306.733 193.06 305.436 192.104 304.48C191.148 303.524 189.852 302.987 188.5 302.987Z" fill="#EBEBEB"/>
<path d="M179.731 286.98C179.731 287.368 179.616 287.747 179.401 288.069C179.185 288.391 178.879 288.643 178.521 288.791C178.163 288.939 177.768 288.978 177.388 288.903C177.008 288.827 176.659 288.64 176.384 288.366C176.11 288.092 175.923 287.743 175.848 287.362C175.772 286.982 175.811 286.588 175.959 286.23C176.108 285.872 176.359 285.565 176.681 285.35C177.004 285.135 177.383 285.02 177.771 285.02C178.028 285.019 178.284 285.069 178.522 285.167C178.76 285.265 178.977 285.409 179.159 285.592C179.341 285.774 179.486 285.99 179.584 286.229C179.682 286.467 179.732 286.722 179.731 286.98Z" fill="#DBDBDB"/>
<path d="M191.682 286.98C191.682 287.567 191.508 288.142 191.181 288.63C190.855 289.119 190.391 289.5 189.848 289.725C189.305 289.949 188.708 290.008 188.132 289.894C187.555 289.779 187.026 289.496 186.61 289.081C186.195 288.665 185.912 288.136 185.797 287.559C185.683 286.983 185.742 286.386 185.966 285.843C186.191 285.3 186.572 284.836 187.061 284.51C187.549 284.183 188.124 284.009 188.711 284.009C189.499 284.009 190.255 284.322 190.812 284.879C191.369 285.436 191.682 286.192 191.682 286.98Z" fill="#3E64FF"/>
<path d="M201.612 286.98C201.612 287.368 201.497 287.747 201.282 288.069C201.066 288.391 200.76 288.643 200.402 288.791C200.044 288.939 199.649 288.978 199.269 288.903C198.889 288.827 198.54 288.64 198.265 288.366C197.991 288.092 197.805 287.743 197.729 287.362C197.653 286.982 197.692 286.588 197.84 286.23C197.989 285.872 198.24 285.565 198.563 285.35C198.885 285.135 199.264 285.02 199.652 285.02C199.909 285.019 200.165 285.069 200.403 285.167C200.641 285.265 200.858 285.409 201.04 285.592C201.222 285.774 201.367 285.99 201.465 286.229C201.563 286.467 201.613 286.722 201.612 286.98Z" fill="#DBDBDB"/>
<path d="M214.536 232.36H161.62V249.189H214.536V232.36Z" fill="#3E64FF"/>
<path d="M176.436 243.135V238.611C176.435 238.555 176.445 238.5 176.466 238.448C176.487 238.396 176.518 238.349 176.557 238.31C176.597 238.271 176.644 238.239 176.695 238.219C176.747 238.198 176.802 238.188 176.858 238.189C176.914 238.188 176.97 238.198 177.022 238.219C177.074 238.239 177.122 238.27 177.162 238.31C177.202 238.349 177.233 238.396 177.255 238.447C177.277 238.499 177.288 238.555 177.288 238.611V242.735H179.384C179.498 242.735 179.607 242.78 179.688 242.861C179.769 242.942 179.814 243.051 179.814 243.165C179.814 243.279 179.769 243.388 179.688 243.469C179.607 243.549 179.498 243.595 179.384 243.595H176.858C176.799 243.595 176.741 243.583 176.687 243.559C176.634 243.536 176.585 243.501 176.545 243.458C176.506 243.415 176.475 243.364 176.457 243.308C176.438 243.252 176.431 243.193 176.436 243.135Z" fill="white"/>
<path d="M184.73 238.822C185.232 239.348 185.513 240.047 185.513 240.775C185.513 241.502 185.232 242.202 184.73 242.728C184.498 242.986 184.214 243.193 183.897 243.336C183.581 243.479 183.238 243.554 182.89 243.557C182.535 243.556 182.183 243.482 181.858 243.34C181.532 243.197 181.239 242.989 180.998 242.728C180.504 242.197 180.229 241.5 180.229 240.775C180.229 240.05 180.504 239.352 180.998 238.822C181.238 238.56 181.531 238.35 181.856 238.207C182.182 238.065 182.534 237.991 182.89 237.993C183.238 237.994 183.581 238.069 183.898 238.212C184.215 238.355 184.499 238.562 184.73 238.822ZM184.632 240.775C184.632 240.275 184.443 239.793 184.104 239.425C183.951 239.254 183.764 239.117 183.555 239.023C183.346 238.928 183.12 238.878 182.89 238.875C182.655 238.874 182.422 238.922 182.206 239.017C181.99 239.112 181.797 239.251 181.639 239.425C181.297 239.791 181.108 240.274 181.111 240.775C181.106 241.274 181.295 241.755 181.639 242.117C181.797 242.292 181.99 242.432 182.205 242.529C182.421 242.625 182.654 242.675 182.89 242.675C183.12 242.671 183.347 242.619 183.556 242.523C183.764 242.427 183.951 242.289 184.104 242.117C184.433 241.748 184.611 241.269 184.602 240.775H184.632Z" fill="white"/>
<path d="M186.766 240.782C186.778 240.253 186.937 239.737 187.226 239.293C187.514 238.849 187.92 238.493 188.399 238.267C188.878 238.04 189.41 237.95 189.936 238.009C190.463 238.067 190.963 238.27 191.38 238.596C191.472 238.668 191.532 238.773 191.546 238.889C191.56 239.005 191.528 239.122 191.456 239.214C191.384 239.306 191.278 239.366 191.162 239.38C191.046 239.394 190.929 239.361 190.837 239.289C190.49 239.021 190.063 238.875 189.623 238.875C189.365 238.871 189.108 238.919 188.869 239.016C188.629 239.113 188.411 239.257 188.229 239.44C188.045 239.611 187.899 239.818 187.8 240.047C187.7 240.277 187.648 240.524 187.648 240.775C187.648 241.025 187.7 241.273 187.8 241.502C187.899 241.732 188.045 241.939 188.229 242.109C188.411 242.292 188.629 242.437 188.869 242.534C189.108 242.631 189.365 242.679 189.623 242.675C189.995 242.672 190.359 242.571 190.679 242.381V241.325H189.571C189.455 241.321 189.344 241.273 189.263 241.19C189.182 241.107 189.135 240.997 189.133 240.88C189.135 240.766 189.182 240.656 189.264 240.576C189.346 240.496 189.456 240.451 189.571 240.451H191.079C191.137 240.449 191.195 240.458 191.249 240.479C191.303 240.499 191.353 240.531 191.395 240.571C191.437 240.611 191.471 240.659 191.494 240.712C191.518 240.765 191.53 240.822 191.531 240.88V242.592C191.535 242.635 191.535 242.678 191.531 242.72C191.504 242.798 191.451 242.865 191.38 242.909C190.964 243.234 190.466 243.438 189.941 243.497C189.416 243.556 188.885 243.468 188.407 243.243C187.929 243.018 187.524 242.664 187.235 242.222C186.947 241.779 186.787 241.265 186.773 240.737L186.766 240.782Z" fill="white"/>
<path d="M193.356 238.573C193.355 238.517 193.365 238.462 193.386 238.41C193.407 238.359 193.438 238.312 193.477 238.272C193.517 238.233 193.563 238.202 193.615 238.181C193.667 238.16 193.722 238.15 193.778 238.151C193.834 238.15 193.891 238.16 193.943 238.181C193.996 238.201 194.043 238.232 194.084 238.271C194.125 238.311 194.157 238.358 194.18 238.409C194.202 238.461 194.214 238.517 194.215 238.573V243.097C194.211 243.211 194.164 243.318 194.082 243.397C194 243.476 193.891 243.52 193.778 243.519C193.722 243.52 193.667 243.51 193.615 243.489C193.563 243.469 193.517 243.437 193.477 243.398C193.438 243.359 193.407 243.312 193.386 243.26C193.365 243.208 193.355 243.153 193.356 243.097V238.573Z" fill="white"/>
<path d="M196.507 243.135C196.507 243.247 196.463 243.354 196.384 243.433C196.305 243.513 196.197 243.557 196.085 243.557C195.973 243.557 195.866 243.513 195.787 243.433C195.707 243.354 195.663 243.247 195.663 243.135V238.611C195.662 238.542 195.676 238.474 195.707 238.413C195.737 238.351 195.781 238.297 195.836 238.256C195.928 238.195 196.039 238.169 196.148 238.186C196.257 238.203 196.356 238.26 196.425 238.347L198.92 241.8V238.641C198.92 238.587 198.931 238.533 198.952 238.482C198.973 238.432 199.003 238.386 199.042 238.348C199.08 238.309 199.126 238.279 199.176 238.258C199.227 238.237 199.281 238.226 199.335 238.226C199.446 238.226 199.552 238.27 199.631 238.347C199.71 238.425 199.755 238.53 199.757 238.641V243.165C199.755 243.276 199.71 243.383 199.631 243.461C199.553 243.54 199.446 243.585 199.335 243.587C199.274 243.586 199.213 243.572 199.159 243.544C199.104 243.517 199.056 243.477 199.018 243.429L198.981 243.384L196.507 239.953V243.135Z" fill="white"/>
<path d="M201.318 102.084V107.596H197.42V102.084C197.42 96.8061 193.431 92.5762 188.53 92.5762C183.629 92.5762 179.641 96.8363 179.641 102.084V115.882H175.682V102.084C175.682 94.5441 181.42 88.4594 188.5 88.4594C195.58 88.4594 201.318 94.5743 201.318 102.084Z" fill="#C7C7C7"/>
<path d="M175.712 107.611L179.61 107.769V115.882H175.712V107.611Z" fill="#A6A6A6"/>
<path d="M206.287 111.26H170.713V143.531H206.287V111.26Z" fill="#3E64FF"/>
<path opacity="0.1" d="M206.287 111.26H188.5V143.531H206.287V111.26Z" fill="black"/>
<path d="M190.008 128.58L191.516 135.637H185.197L186.705 128.58C186.121 128.217 185.67 127.673 185.422 127.031C185.174 126.388 185.141 125.683 185.33 125.021C185.519 124.359 185.918 123.776 186.468 123.361C187.017 122.947 187.687 122.722 188.376 122.722C189.064 122.722 189.734 122.947 190.283 123.361C190.833 123.776 191.232 124.359 191.421 125.021C191.61 125.683 191.578 126.388 191.33 127.031C191.081 127.673 190.631 128.217 190.046 128.58H190.008Z" fill="#263238"/>
<path d="M234.313 179.143H142.695V194.826H234.313V179.143Z" fill="white"/>
<path d="M234.682 195.203H142.318V178.766H234.682V195.203ZM143.072 194.449H233.928V179.52H143.072V194.449Z" fill="#EBEBEB"/>
<path d="M152.202 183.471H151.448V190.174H152.202V183.471Z" fill="#37474F"/>
<path d="M155.181 186.442H148.478V187.196H155.181V186.442Z" fill="#37474F"/>
<path d="M153.933 184.178L149.192 188.917L149.725 189.45L154.466 184.712L153.933 184.178Z" fill="#37474F"/>
<path d="M149.719 184.182L149.186 184.716L153.926 189.455L154.459 188.922L149.719 184.182Z" fill="#37474F"/>
<path d="M163.573 183.471H162.819V190.174H163.573V183.471Z" fill="#37474F"/>
<path d="M166.551 186.442H159.848V187.196H166.551V186.442Z" fill="#37474F"/>
<path d="M165.301 184.186L160.56 188.925L161.093 189.458L165.834 184.72L165.301 184.186Z" fill="#37474F"/>
<path d="M161.092 184.18L160.559 184.713L165.299 189.453L165.832 188.92L161.092 184.18Z" fill="#37474F"/>
<path d="M174.943 183.471H174.189V190.174H174.943V183.471Z" fill="#37474F"/>
<path d="M177.921 186.442H171.218V187.196H177.921V186.442Z" fill="#37474F"/>
<path d="M176.669 184.187L171.928 188.925L172.461 189.458L177.202 184.72L176.669 184.187Z" fill="#37474F"/>
<path d="M172.465 184.178L171.932 184.711L176.671 189.451L177.205 188.917L172.465 184.178Z" fill="#37474F"/>
<path d="M186.321 183.471H185.567V190.174H186.321V183.471Z" fill="#37474F"/>
<path d="M189.292 186.442H182.589V187.196H189.292V186.442Z" fill="#37474F"/>
<path d="M188.045 184.187L183.303 188.925L183.836 189.459L188.578 184.721L188.045 184.187Z" fill="#37474F"/>
<path d="M183.843 184.185L183.31 184.718L188.049 189.458L188.583 188.925L183.843 184.185Z" fill="#37474F"/>
<path d="M197.691 183.471H196.937V190.174H197.691V183.471Z" fill="#37474F"/>
<path d="M200.662 186.442H193.959V187.196H200.662V186.442Z" fill="#37474F"/>
<path d="M199.413 184.188L194.671 188.926L195.204 189.459L199.946 184.721L199.413 184.188Z" fill="#37474F"/>
<path d="M195.208 184.175L194.675 184.708L199.415 189.448L199.948 188.915L195.208 184.175Z" fill="#37474F"/>
<path d="M209.062 183.471H208.308V190.174H209.062V183.471Z" fill="#37474F"/>
<path d="M212.04 186.442H205.337V187.196H212.04V186.442Z" fill="#37474F"/>
<path d="M210.786 184.183L206.045 188.921L206.578 189.454L211.319 184.716L210.786 184.183Z" fill="#37474F"/>
<path d="M206.581 184.173L206.048 184.706L210.787 189.446L211.32 188.912L206.581 184.173Z" fill="#37474F"/>
<path d="M226.486 189.405C225.668 189.356 224.871 189.128 224.15 188.737C223.43 188.346 222.804 187.802 222.317 187.143L222.151 186.917L222.317 186.698C222.773 186.017 223.39 185.459 224.113 185.073C224.837 184.686 225.644 184.484 226.464 184.484C227.284 184.484 228.091 184.686 228.814 185.073C229.538 185.459 230.155 186.017 230.611 186.698L230.769 186.917L230.611 187.143C230.129 187.797 229.51 188.338 228.798 188.728C228.086 189.119 227.297 189.35 226.486 189.405ZM223.109 186.947C223.497 187.483 224.008 187.919 224.597 188.219C225.187 188.52 225.84 188.677 226.502 188.677C227.164 188.677 227.816 188.52 228.406 188.219C228.996 187.919 229.506 187.483 229.895 186.947C229.506 186.411 228.996 185.975 228.406 185.674C227.816 185.374 227.164 185.217 226.502 185.217C225.84 185.217 225.187 185.374 224.597 185.674C224.008 185.975 223.497 186.411 223.109 186.947Z" fill="#EBEBEB"/>
<path d="M226.479 188.643C227.416 188.643 228.175 187.884 228.175 186.947C228.175 186.01 227.416 185.25 226.479 185.25C225.542 185.25 224.782 186.01 224.782 186.947C224.782 187.884 225.542 188.643 226.479 188.643Z" fill="#EBEBEB"/>
<path d="M229.272 183.545L223.248 189.569L223.781 190.103L229.805 184.078L229.272 183.545Z" fill="#EBEBEB"/>
<path d="M163.867 162.811H162.66V164.93C162.66 165.074 162.603 165.212 162.501 165.314C162.4 165.416 162.262 165.473 162.118 165.473C161.974 165.473 161.835 165.416 161.734 165.314C161.632 165.212 161.575 165.074 161.575 164.93V159.162C161.575 159.091 161.589 159.021 161.616 158.955C161.643 158.89 161.684 158.83 161.734 158.781C161.785 158.731 161.845 158.692 161.91 158.665C161.976 158.639 162.047 158.626 162.118 158.627H163.867C164.152 158.609 164.438 158.651 164.707 158.748C164.975 158.846 165.221 158.997 165.43 159.193C165.638 159.389 165.803 159.625 165.917 159.888C166.03 160.15 166.089 160.433 166.089 160.719C166.089 161.005 166.03 161.288 165.917 161.55C165.803 161.812 165.638 162.049 165.43 162.245C165.221 162.441 164.975 162.592 164.707 162.69C164.438 162.787 164.152 162.828 163.867 162.811ZM162.66 161.726H163.867C164.006 161.738 164.147 161.721 164.279 161.675C164.412 161.63 164.534 161.558 164.637 161.464C164.74 161.369 164.823 161.254 164.879 161.126C164.935 160.997 164.964 160.859 164.964 160.719C164.964 160.579 164.935 160.44 164.879 160.312C164.823 160.184 164.74 160.069 164.637 159.974C164.534 159.88 164.412 159.807 164.279 159.762C164.147 159.717 164.006 159.7 163.867 159.712H162.66V161.726Z" fill="#3E64FF"/>
<path d="M170.087 163.852H167.712L167.23 165.126C167.187 165.225 167.117 165.31 167.027 165.371C166.938 165.431 166.833 165.464 166.724 165.465C166.662 165.477 166.598 165.477 166.536 165.465C166.401 165.414 166.291 165.312 166.23 165.181C166.17 165.05 166.163 164.9 166.212 164.764L168.376 159.004C168.419 158.902 168.492 158.815 168.584 158.755C168.677 158.694 168.785 158.663 168.896 158.664C169.006 158.661 169.114 158.692 169.206 158.753C169.298 158.814 169.368 158.901 169.409 159.004L171.573 164.764C171.622 164.9 171.615 165.05 171.554 165.181C171.494 165.312 171.384 165.414 171.248 165.465C171.186 165.479 171.122 165.479 171.06 165.465C170.953 165.465 170.848 165.433 170.759 165.372C170.67 165.312 170.602 165.226 170.562 165.126L170.087 163.852ZM169.688 162.781L168.896 160.677L168.142 162.781H169.688Z" fill="#3E64FF"/>
<path d="M172.53 163.769C172.573 163.711 172.627 163.663 172.689 163.628C172.752 163.593 172.821 163.571 172.892 163.565C172.963 163.559 173.035 163.567 173.103 163.591C173.17 163.614 173.232 163.652 173.284 163.701C173.81 164.148 174.466 164.412 175.154 164.455C175.589 164.464 176.016 164.337 176.376 164.093C176.498 164.019 176.6 163.917 176.674 163.795C176.747 163.673 176.79 163.534 176.798 163.392C176.8 163.282 176.769 163.174 176.707 163.083C176.632 162.965 176.531 162.864 176.413 162.789C175.999 162.553 175.543 162.397 175.071 162.329C174.635 162.254 174.209 162.125 173.805 161.944C173.437 161.785 173.122 161.523 172.9 161.19C172.748 160.951 172.67 160.674 172.674 160.391C172.68 160.11 172.751 159.835 172.882 159.586C173.013 159.337 173.2 159.123 173.428 158.958C173.923 158.615 174.514 158.436 175.116 158.446C175.887 158.479 176.63 158.741 177.25 159.2C177.305 159.236 177.352 159.283 177.388 159.338C177.425 159.392 177.45 159.454 177.463 159.518C177.475 159.583 177.475 159.649 177.462 159.713C177.449 159.778 177.423 159.839 177.386 159.893C177.352 159.95 177.306 159.999 177.252 160.038C177.198 160.076 177.136 160.103 177.072 160.117C177.007 160.131 176.94 160.132 176.874 160.12C176.809 160.107 176.747 160.081 176.692 160.044C176.243 159.68 175.693 159.462 175.116 159.418C174.726 159.412 174.344 159.528 174.023 159.75C173.915 159.814 173.824 159.904 173.76 160.012C173.695 160.12 173.659 160.243 173.654 160.368C173.647 160.464 173.67 160.559 173.722 160.64C173.792 160.742 173.882 160.829 173.985 160.896C174.361 161.117 174.776 161.263 175.207 161.326C175.671 161.408 176.124 161.545 176.557 161.733C176.953 161.907 177.293 162.19 177.537 162.547C177.688 162.797 177.769 163.084 177.771 163.377C177.76 163.677 177.677 163.971 177.531 164.233C177.384 164.495 177.176 164.718 176.926 164.885C176.401 165.259 175.769 165.454 175.124 165.443C174.204 165.401 173.324 165.056 172.621 164.462C172.521 164.38 172.456 164.262 172.439 164.133C172.422 164.005 172.455 163.874 172.53 163.769Z" fill="#3E64FF"/>
<path d="M178.962 163.769C179.004 163.717 179.055 163.674 179.113 163.643C179.172 163.611 179.236 163.592 179.302 163.586C179.368 163.579 179.435 163.586 179.498 163.606C179.561 163.626 179.62 163.658 179.671 163.701C180.196 164.148 180.852 164.412 181.541 164.455C181.976 164.465 182.403 164.338 182.762 164.093C182.884 164.019 182.987 163.917 183.06 163.795C183.134 163.673 183.176 163.534 183.184 163.392C183.187 163.282 183.155 163.174 183.094 163.083C183.02 162.963 182.919 162.862 182.8 162.789C182.388 162.553 181.935 162.397 181.465 162.329C181.031 162.255 180.607 162.126 180.206 161.944C179.837 161.783 179.521 161.522 179.294 161.19C179.145 160.95 179.067 160.673 179.067 160.391C179.074 160.11 179.145 159.835 179.276 159.586C179.407 159.337 179.594 159.123 179.821 158.958C180.317 158.615 180.908 158.436 181.51 158.446C182.281 158.479 183.024 158.741 183.644 159.2C183.699 159.236 183.746 159.283 183.782 159.338C183.819 159.392 183.844 159.454 183.857 159.518C183.869 159.583 183.869 159.649 183.856 159.713C183.843 159.778 183.817 159.839 183.78 159.893C183.745 159.95 183.7 159.999 183.646 160.038C183.592 160.076 183.53 160.103 183.465 160.117C183.401 160.131 183.334 160.132 183.268 160.12C183.203 160.107 183.141 160.081 183.086 160.044C182.637 159.68 182.087 159.462 181.51 159.418C181.12 159.412 180.738 159.528 180.417 159.75C180.309 159.814 180.218 159.904 180.154 160.012C180.089 160.12 180.053 160.243 180.048 160.368C180.04 160.464 180.064 160.559 180.116 160.64C180.186 160.742 180.276 160.829 180.379 160.896C180.756 161.115 181.17 161.261 181.601 161.326C182.065 161.408 182.518 161.545 182.951 161.733C183.346 161.906 183.683 162.189 183.923 162.547C184.08 162.795 184.161 163.083 184.157 163.377C184.147 163.677 184.067 163.97 183.921 164.232C183.775 164.494 183.569 164.718 183.32 164.885C182.792 165.26 182.158 165.456 181.51 165.443C180.591 165.401 179.711 165.056 179.007 164.462C178.915 164.373 178.86 164.252 178.852 164.124C178.843 163.996 178.883 163.87 178.962 163.769Z" fill="#3E64FF"/>
<path d="M194.472 159.433L192.074 165.126C192.064 165.16 192.046 165.191 192.021 165.217C192.021 165.217 192.021 165.254 191.976 165.277C191.931 165.3 191.976 165.277 191.976 165.277L191.908 165.322C191.908 165.322 191.863 165.375 191.818 165.382H191.735H191.501H191.433C191.399 165.373 191.369 165.352 191.35 165.322L191.282 165.277C191.282 165.277 191.282 165.239 191.245 165.217C191.24 165.187 191.24 165.156 191.245 165.126L189.963 162.11L188.681 165.126C188.681 165.126 188.681 165.194 188.643 165.217L188.583 165.277C188.56 165.288 188.539 165.303 188.523 165.322L188.447 165.382C188.422 165.377 188.397 165.377 188.372 165.382H188.131H188.055C188.021 165.37 187.99 165.349 187.965 165.322C187.965 165.322 187.927 165.322 187.897 165.277L187.852 165.217C187.852 165.217 187.852 165.156 187.799 165.126L185.394 159.426C185.35 159.297 185.357 159.157 185.414 159.033C185.47 158.909 185.571 158.812 185.697 158.76C185.822 158.708 185.963 158.706 186.09 158.754C186.217 158.802 186.321 158.897 186.381 159.019L188.296 163.543L189.563 160.527C189.605 160.428 189.675 160.343 189.765 160.284C189.855 160.225 189.961 160.194 190.068 160.195C190.176 160.196 190.282 160.228 190.373 160.287C190.463 160.346 190.536 160.429 190.581 160.527L191.84 163.543L193.748 159.019C193.804 158.887 193.91 158.783 194.043 158.73C194.176 158.676 194.325 158.677 194.457 158.732C194.543 158.828 194.592 158.951 194.595 159.08C194.598 159.209 194.554 159.334 194.472 159.433Z" fill="#3E64FF"/>
<path d="M201.318 159.471C201.953 160.139 202.307 161.026 202.307 161.948C202.307 162.87 201.953 163.756 201.318 164.425C201.021 164.75 200.66 165.009 200.258 165.189C199.855 165.368 199.421 165.462 198.981 165.465C198.531 165.463 198.087 165.369 197.675 165.191C197.263 165.012 196.892 164.751 196.583 164.425C195.963 163.749 195.619 162.865 195.619 161.948C195.619 161.031 195.963 160.147 196.583 159.471C196.89 159.143 197.262 158.882 197.674 158.703C198.086 158.524 198.531 158.431 198.981 158.431C199.421 158.432 199.856 158.526 200.259 158.705C200.661 158.884 201.022 159.145 201.318 159.471ZM201.19 161.944C201.19 161.313 200.953 160.705 200.526 160.24C200.332 160.023 200.094 159.848 199.827 159.729C199.561 159.609 199.272 159.547 198.981 159.546C198.683 159.544 198.388 159.605 198.115 159.724C197.842 159.844 197.598 160.02 197.397 160.24C196.968 160.703 196.731 161.313 196.734 161.944C196.727 162.576 196.965 163.187 197.397 163.648C197.598 163.869 197.843 164.045 198.115 164.165C198.388 164.286 198.682 164.349 198.981 164.349C199.273 164.345 199.561 164.281 199.827 164.16C200.093 164.04 200.331 163.865 200.526 163.648C200.944 163.18 201.17 162.572 201.16 161.944H201.19Z" fill="#3E64FF"/>
<path d="M208.73 164.659C208.753 164.725 208.763 164.796 208.759 164.867C208.754 164.937 208.736 165.006 208.704 165.07C208.672 165.133 208.628 165.189 208.574 165.235C208.521 165.281 208.458 165.316 208.391 165.337C208.318 165.349 208.244 165.349 208.172 165.337C208.038 165.34 207.907 165.303 207.795 165.232C207.662 165.148 207.553 165.031 207.478 164.892C207.323 164.521 207.253 164.118 207.275 163.716C207.273 163.567 207.232 163.421 207.154 163.294C207.081 163.177 206.98 163.081 206.86 163.015C206.693 162.907 206.51 162.828 206.317 162.781H205.163V164.9C205.162 164.971 205.147 165.042 205.119 165.107C205.091 165.172 205.05 165.232 204.999 165.281C204.948 165.331 204.888 165.37 204.821 165.397C204.755 165.423 204.684 165.436 204.613 165.435C204.471 165.435 204.335 165.379 204.234 165.278C204.134 165.178 204.078 165.042 204.078 164.9V159.132C204.077 159.061 204.09 158.991 204.116 158.926C204.143 158.86 204.182 158.801 204.232 158.751C204.282 158.701 204.342 158.662 204.407 158.635C204.472 158.609 204.542 158.595 204.613 158.596H206.362C206.793 158.595 207.215 158.726 207.568 158.973C207.921 159.221 208.189 159.571 208.336 159.977C208.482 160.382 208.499 160.823 208.385 161.239C208.27 161.655 208.03 162.025 207.697 162.299C207.827 162.402 207.941 162.524 208.036 162.66C208.248 162.971 208.361 163.339 208.36 163.716C208.346 163.91 208.359 164.106 208.398 164.297C208.48 164.323 208.554 164.37 208.612 164.434C208.67 164.497 208.711 164.575 208.73 164.659ZM207.35 160.723C207.351 160.59 207.326 160.458 207.275 160.335C207.225 160.212 207.15 160.1 207.056 160.006C206.962 159.912 206.851 159.838 206.727 159.787C206.604 159.737 206.473 159.711 206.34 159.712H205.141V161.725H206.34C206.606 161.725 206.862 161.62 207.051 161.432C207.241 161.244 207.348 160.989 207.35 160.723Z" fill="#3E64FF"/>
<path d="M210.321 164.93V159.162C210.32 159.091 210.333 159.021 210.359 158.956C210.386 158.89 210.425 158.831 210.475 158.781C210.525 158.731 210.585 158.692 210.65 158.665C210.715 158.639 210.786 158.626 210.856 158.627H212.01C212.889 158.668 213.718 159.046 214.326 159.683C214.933 160.32 215.272 161.166 215.272 162.046C215.272 162.926 214.933 163.772 214.326 164.409C213.718 165.046 212.889 165.424 212.01 165.465H210.856C210.714 165.465 210.578 165.409 210.478 165.309C210.377 165.208 210.321 165.072 210.321 164.93ZM211.407 164.38H212.01C212.606 164.346 213.166 164.085 213.576 163.651C213.986 163.217 214.214 162.643 214.214 162.046C214.214 161.449 213.986 160.875 213.576 160.441C213.166 160.007 212.606 159.746 212.01 159.712H211.407V164.38Z" fill="#3E64FF"/>
<path d="M327.281 75.6111C327.281 75.6111 321.528 121.65 312.073 132.01C300.763 144.436 292.469 142.619 287.945 149.028C283.361 142.612 275.127 144.436 263.817 132.003C254.362 121.643 248.624 75.6035 248.624 75.6035C273.506 63.5395 287.983 49.9675 287.983 49.9675C288.36 50.3973 302.761 63.713 327.281 75.6111Z" fill="#37474F"/>
<path d="M287.915 49.9826V149.028C283.331 142.612 275.097 144.436 263.787 132.003C254.332 121.643 248.594 75.6035 248.594 75.6035C273.476 63.5395 287.953 49.9675 287.953 49.9675L287.915 49.9826Z" fill="#455A64"/>
<path d="M321.204 79.3207C321.204 79.3207 316.348 118.212 308.386 126.966C298.788 137.477 291.798 135.931 287.96 141.345C284.092 135.931 277.133 137.477 267.534 126.966C259.557 118.212 254.716 79.3207 254.716 79.3207C275.753 69.104 287.968 57.6583 287.968 57.6583C287.968 57.6583 300.13 69.104 321.204 79.3207Z" fill="#455A64"/>
<path d="M254.664 79.3208C254.664 79.3208 259.519 118.205 267.482 126.966C277.065 137.469 284.017 135.939 287.892 141.337V57.6433C287.545 58.058 275.376 69.2625 254.664 79.3208Z" fill="#37474F"/>
<path d="M298.822 110.407C304.844 104.385 304.844 94.6224 298.822 88.6008C292.801 82.5792 283.038 82.5792 277.016 88.6008C270.994 94.6224 270.994 104.385 277.016 110.407C283.038 116.429 292.801 116.429 298.822 110.407Z" fill="#3E64FF"/>
<path d="M286.158 109.518L279.289 102.378L281.838 99.9276L285.623 103.863L293.781 91.347L296.744 93.2773L286.158 109.518Z" fill="white"/>
<path d="M60.599 186.298H113.5V175.343H60.599V186.298Z" fill="#C7C7C7"/>
<path d="M99.3018 186.208L100.78 200.21L119.072 331.285H124.297L109.865 200.21L108.697 186.208H99.3018Z" fill="#C7C7C7"/>
<path d="M49.7866 331.285H55.0194L73.3114 200.21L74.7893 186.208H65.3944L64.2257 200.21L49.7866 331.285Z" fill="#C7C7C7"/>
<path d="M58.616 288.465H116.968V285.178H58.616V288.465Z" fill="#C7C7C7"/>
<path d="M109.865 199.719H100.78L99.3018 186.208H108.697L109.865 199.719Z" fill="#A6A6A6"/>
<path d="M64.2257 199.719H73.3114L74.7893 186.208H65.3944L64.2257 199.719Z" fill="#A6A6A6"/>
<path d="M67.6564 122.691C69.9184 123.852 70.3105 127.856 77.3529 127.637C78.3557 127.637 79.1776 127.207 80.0974 127.547C81.4471 128.037 82.5102 129.115 83.7091 129.899C84.6733 130.547 85.7712 130.97 86.9211 131.136C89.1275 131.397 91.3559 130.882 93.2246 129.68C94.3782 128.972 95.3433 127.991 96.4592 127.222C97.5752 126.453 104.308 124.825 105.447 121.04C106.201 118.634 106.058 115.897 103.185 112.384C102.523 111.757 102.073 110.94 101.896 110.046C101.897 109.263 102.075 108.49 102.416 107.784C102.811 106.983 102.955 106.082 102.831 105.198C102.51 104.353 101.993 103.595 101.323 102.989C100.267 101.715 100.463 99.8748 101.323 97.6128C101.663 96.653 101.779 95.6277 101.662 94.6159C101.544 93.6042 101.196 92.6329 100.644 91.7769C99.9519 90.7961 99.1358 89.9091 98.2161 89.1379C96.9267 87.9164 96.7081 86.7854 96.1275 85.0587C95.0342 81.7411 93.3226 80.2557 91.3094 79.2303C89.4923 78.318 89.5526 78.6648 87.6073 78.9589C85.6363 77.7561 83.3161 77.2565 81.0249 77.5413C78.8986 77.8128 77.1418 79.2378 75.5357 80.6026C74.1031 81.8241 72.7912 83.136 72.7158 85.1944C72.6705 86.3782 72.9571 87.5545 72.9043 88.7382C72.8289 90.2462 71.9919 91.2038 70.9891 92.1539C69.4938 93.4255 68.4623 95.1571 68.0561 97.0775C67.7922 98.6835 69.3756 101.179 67.5207 103.554C65.8921 105.65 62.9967 108.078 62.2427 110.702C59.943 118.898 65.5226 121.575 67.6564 122.691Z" fill="#263238"/>
<path d="M94.9286 127.109C98.1633 126.619 103.132 127.23 104.851 123.626C105.532 123.071 106.07 122.363 106.423 121.56C106.776 120.756 106.932 119.88 106.88 119.004C106.657 117.133 105.791 115.397 104.429 114.095C103.639 113.351 102.949 112.507 102.378 111.584C102.196 110.865 102.062 110.135 101.979 109.398C102.112 108.455 102.365 107.532 102.733 106.653C102.024 108.161 101.368 109.79 102.024 111.449C102.12 111.685 102.233 111.915 102.363 112.135C102.599 113.007 102.922 113.854 103.328 114.661C104.391 116.772 105.364 118.68 105.221 121.145C105.196 121.969 104.998 122.778 104.64 123.52C103.241 124.748 101.493 125.507 99.6411 125.692C99.5959 125.692 99.5959 125.775 99.6411 125.767C101.316 125.598 102.922 125.015 104.316 124.071C102.438 126.762 98.0728 126.393 94.9135 127.019C94.8306 127.019 94.8608 127.117 94.9286 127.109ZM105.1 123.015V122.947C105.66 120.949 105.516 118.82 104.693 116.915C104.18 115.656 103.411 114.525 102.906 113.258C102.823 113.04 102.74 112.821 102.665 112.595C103.419 113.583 104.369 114.404 105.077 115.37C106.585 117.466 107.068 119.961 105.628 122.231C105.472 122.505 105.296 122.767 105.1 123.015Z" fill="#263238"/>
<path d="M97.7938 88.6477C99.0009 89.6965 100.151 90.809 101.24 91.9804C101.999 92.7492 102.454 93.767 102.521 94.8456C102.55 95.9323 102.206 96.9961 101.549 97.8616C101.307 98.2235 101.059 98.6156 100.84 98.97C100.788 99.6719 100.899 100.376 101.164 101.028C101.692 102.272 102.861 103.042 103.426 104.301C104.301 106.337 103.328 108.01 102.469 109.828C103.094 108.32 103.977 106.864 103.479 105.175C103.087 103.796 102.077 103.049 101.315 101.926C100.851 101.212 100.591 100.386 100.561 99.5355C99.8824 100.908 99.6486 102.355 100.848 103.796C100.9 103.863 100.848 103.954 100.757 103.894C99.249 102.386 99.6411 100.493 100.569 98.8719C100.626 97.9144 100.837 96.9723 101.194 96.0821C101.194 95.9917 101.368 96.0821 101.353 96.15C101.217 96.8588 101.036 97.5675 100.938 98.2687L101.096 98.035C102.303 96.3083 102.778 94.265 101.39 92.4554C100.35 91.0756 98.9323 89.9898 97.7712 88.6854C97.7184 88.6703 97.7636 88.6175 97.7938 88.6477Z" fill="#263238"/>
<path d="M106.864 231.018C106.864 231.018 93.3603 261.012 93.3452 261.035C90.7363 266.758 88.5422 271.817 87.66 274.546C87.6541 274.561 87.6541 274.577 87.66 274.592C87.3812 275.206 87.2496 275.878 87.2755 276.552C87.2755 276.552 87.2755 276.59 87.2755 276.597C88.4517 278.535 133.571 300.725 135.411 300.989C137.251 301.253 138.088 296.028 137.024 293.766C135.961 291.504 122.48 275.278 122.48 275.278L135.72 245.163L106.864 231.018Z" fill="#EB9481"/>
<path d="M96.1199 254.852C96.1199 254.852 93.3603 260.99 93.3452 261.012C90.7364 266.735 88.5422 271.794 87.6601 274.524C87.6542 274.538 87.6542 274.555 87.6601 274.569C87.4527 275.204 87.3236 275.863 87.2755 276.529C87.2755 276.529 87.2755 276.567 87.2755 276.575C88.4518 278.512 133.571 300.703 135.411 300.967C137.251 301.23 138.088 296.005 137.024 293.743C135.961 291.481 122.48 275.255 122.48 275.255L125.383 269.042L96.1199 254.852Z" fill="#EBEBEB"/>
<path d="M135.396 300.929C133.556 300.688 88.4216 278.52 87.2378 276.582C86.7779 275.828 89.6205 269.088 93.2698 261.012L93.3829 260.756L122.668 274.735L122.412 275.225C122.412 275.225 135.901 291.444 136.972 293.706C138.042 295.968 137.228 301.178 135.396 300.929Z" fill="#263238"/>
<path d="M136.881 299.647C137.537 300.356 136.029 302.987 135.373 302.919C134.717 302.852 85.6092 278.46 84.8552 277.856C84.1012 277.253 85.8882 274.411 86.9362 274.735C87.9843 275.059 136.881 299.647 136.881 299.647Z" fill="#3E64FF"/>
<path d="M124.847 276.514C122.125 274.486 118.242 273.144 114.902 274.154C114.774 274.154 114.834 274.381 114.947 274.396C118.262 274.876 121.516 275.713 124.651 276.891C124.699 276.903 124.749 276.898 124.794 276.878C124.838 276.858 124.875 276.823 124.897 276.78C124.92 276.736 124.927 276.687 124.918 276.638C124.909 276.59 124.884 276.547 124.847 276.514Z" fill="white"/>
<path d="M126.37 278.882C123.649 276.846 119.765 275.512 116.425 276.522C116.297 276.56 116.357 276.741 116.47 276.763C119.785 277.241 123.039 278.075 126.174 279.251C126.222 279.269 126.275 279.268 126.322 279.25C126.37 279.232 126.409 279.197 126.433 279.152C126.457 279.107 126.464 279.055 126.452 279.005C126.441 278.956 126.412 278.912 126.37 278.882Z" fill="white"/>
<path d="M127.893 281.242C125.172 279.214 121.281 277.872 117.948 278.882C117.82 278.927 117.873 279.108 117.948 279.123C121.266 279.603 124.522 280.44 127.66 281.619C127.71 281.65 127.77 281.66 127.827 281.646C127.885 281.633 127.934 281.597 127.965 281.547C127.996 281.497 128.006 281.437 127.993 281.38C127.979 281.323 127.943 281.273 127.893 281.242Z" fill="white"/>
<path d="M98.3895 269.472C95.9164 266.23 90.8495 270.06 93.3452 273.31C95.841 276.56 100.863 272.722 98.3895 269.472Z" fill="white"/>
<path d="M114.827 204.945C114.525 213.669 97.7108 251.346 97.7108 251.346L127.2 264.918C127.2 264.918 151.004 223.018 148.794 203.716C146.909 187.339 105.703 157.051 99.0907 148.515C98.1105 147.249 98.4422 142.152 98.4422 142.152H71.6903V148.538C81.907 170.223 112.467 196.236 114.729 203.874C114.818 204.224 114.851 204.585 114.827 204.945Z" fill="#37474F"/>
<path d="M127.034 258.622C122.178 256.292 123.603 256.888 118.74 254.618C116.35 253.51 104.361 247.893 101.948 247.267C101.935 247.261 101.921 247.26 101.907 247.265C101.894 247.27 101.883 247.28 101.877 247.293C101.871 247.306 101.87 247.321 101.875 247.334C101.88 247.348 101.89 247.359 101.903 247.365C103.969 248.767 116.086 254.098 118.491 255.161C123.415 257.333 122.027 256.669 126.974 258.765C127.057 258.81 127.124 258.66 127.034 258.622Z" fill="#263238"/>
<path d="M78.416 153.1C86.4909 165.407 95.5188 177.062 105.417 187.957C107.845 190.604 110.34 193.175 112.836 195.754C114.947 197.933 117.104 200.353 117.624 203.452C118.212 206.905 116.87 210.343 115.792 213.563C114.608 217.107 113.417 220.643 112.158 224.164C110.8 227.934 105.251 241.65 104.339 243.497C103.879 244.417 111.682 224.647 112.949 220.997C114.216 217.348 115.498 213.721 116.576 210.027C117.201 208.145 117.457 206.161 117.33 204.183C117.085 202.276 116.324 200.472 115.128 198.966C112.957 196.07 110.137 193.612 107.671 190.973C102.559 185.499 97.6857 179.814 93.0512 173.918C87.7768 167.257 82.854 160.326 78.3029 153.153C78.2994 153.145 78.2975 153.137 78.2971 153.129C78.2968 153.121 78.298 153.112 78.3008 153.105C78.3036 153.097 78.3079 153.09 78.3134 153.084C78.319 153.078 78.3256 153.073 78.3331 153.07C78.3405 153.066 78.3485 153.064 78.3567 153.064C78.3649 153.063 78.3731 153.065 78.3808 153.067C78.3885 153.07 78.3956 153.075 78.4016 153.08C78.4077 153.086 78.4125 153.092 78.416 153.1Z" fill="#263238"/>
<path d="M62.582 296.412C62.582 296.412 61.2701 329.294 61.2625 329.317C61.4133 335.605 61.6546 341.117 62.0165 343.952C62.0134 343.97 62.0134 343.987 62.0165 344.005C62.0514 344.684 62.2451 345.345 62.582 345.935V345.973C64.4821 347.194 114.774 347.481 116.531 346.9C118.288 346.32 116.772 341.26 114.834 339.692C112.896 338.124 93.6694 329.408 93.6694 329.408L94.6722 296.548L62.582 296.412Z" fill="#EB9481"/>
<path d="M61.5038 322.81C61.5038 322.81 61.2474 329.294 61.2399 329.317C61.3907 335.605 61.6319 341.117 61.9939 343.952C61.9908 343.97 61.9908 343.987 61.9939 344.005C62.1144 344.669 62.3118 345.317 62.582 345.935V345.973C64.4821 347.194 114.774 347.481 116.531 346.9C118.288 346.32 116.772 341.26 114.834 339.692C112.896 338.124 93.6694 329.407 93.6694 329.407L93.873 322.757L61.5038 322.81Z" fill="#EBEBEB"/>
<path d="M116.493 346.84C114.736 347.421 64.467 347.187 62.5368 345.965C61.7828 345.513 61.4133 338.184 61.1946 329.309V329.03L93.6166 328.819V329.37C93.6166 329.37 112.829 338.071 114.789 339.639C116.749 341.208 118.257 346.267 116.493 346.84Z" fill="#263238"/>
<path d="M117.27 345.045C118.167 345.4 117.963 348.423 117.307 348.657C116.651 348.891 61.828 348.401 60.893 348.19C59.9581 347.978 60.32 344.631 61.4057 344.465C62.4915 344.299 117.27 345.045 117.27 345.045Z" fill="#3E64FF"/>
<path d="M96.3461 329.498C93.0134 328.857 88.9268 329.355 86.3707 331.715C86.2727 331.805 86.3707 331.949 86.5064 331.911C89.6935 330.9 92.9795 330.233 96.3084 329.92C96.3644 329.925 96.4201 329.908 96.4632 329.872C96.5063 329.836 96.5334 329.784 96.5384 329.728C96.5434 329.672 96.5259 329.616 96.4898 329.573C96.4538 329.53 96.4021 329.503 96.3461 329.498Z" fill="white"/>
<path d="M98.774 330.953C95.4413 330.312 91.3622 330.81 88.7986 333.17C88.7006 333.26 88.7986 333.404 88.9418 333.366C92.1286 332.354 95.4147 331.686 98.7438 331.375C98.7998 331.379 98.8551 331.361 98.8975 331.324C98.94 331.287 98.966 331.235 98.97 331.179C98.974 331.123 98.9556 331.068 98.9189 331.026C98.8821 330.983 98.83 330.957 98.774 330.953Z" fill="white"/>
<path d="M101.149 332.416C97.8164 331.775 93.7297 332.265 91.1737 334.633C91.0681 334.723 91.1737 334.866 91.3094 334.829C94.4961 333.817 97.7823 333.149 101.111 332.838C101.167 332.843 101.223 332.826 101.266 332.79C101.309 332.754 101.336 332.702 101.341 332.646C101.346 332.59 101.329 332.534 101.293 332.491C101.257 332.448 101.205 332.421 101.149 332.416Z" fill="white"/>
<path d="M69.466 334.708C65.8242 332.868 62.959 338.523 66.6008 340.363C70.2427 342.203 73.138 336.555 69.466 334.708Z" fill="white"/>
<path d="M94.5516 318.836L61.6772 319.108C61.6772 319.108 67.1513 184.843 63.4868 180.455C54.7706 170.027 56.1579 156.123 62.0316 142.159H91.988C91.988 142.159 90.5479 163.362 90.6911 163.98C99.905 204.168 94.5516 318.836 94.5516 318.836Z" fill="#37474F"/>
<path d="M92.742 312.103C85.5714 311.545 66.6838 312.156 64.3011 312.518C64.29 312.524 64.2807 312.532 64.2743 312.543C64.2678 312.554 64.2643 312.566 64.2643 312.578C64.2643 312.591 64.2678 312.603 64.2743 312.614C64.2807 312.624 64.29 312.633 64.3011 312.639C66.6611 313.114 88.316 312.435 92.7344 312.262C92.7516 312.257 92.7669 312.247 92.7781 312.234C92.7893 312.22 92.7958 312.203 92.7967 312.185C92.7975 312.167 92.7926 312.15 92.7828 312.135C92.773 312.12 92.7587 312.109 92.742 312.103Z" fill="#263238"/>
<path d="M92.6968 150.4C92.3952 154.17 92.546 160.67 90.3518 160.768C88.1577 160.866 88.5422 152.949 88.4819 151.124C88.4216 149.473 87.8561 149.699 87.7958 151.644C87.6299 156.922 87.7958 161.59 90.5705 161.371C93.3452 161.152 93.3528 152.972 93.2849 151.102C93.2472 150.136 92.7873 149.202 92.6968 150.4Z" fill="#263238"/>
<path d="M90.48 161.017C90.3435 162.35 90.3713 163.694 90.5629 165.02C90.6006 165.126 91.0229 165.02 91.0681 164.952C91.3245 164.402 91.1209 161.808 91.1888 161.107C91.2008 161.013 91.1749 160.918 91.117 160.843C91.0883 160.806 91.0525 160.775 91.0118 160.752C90.9711 160.728 90.9262 160.713 90.8796 160.707C90.7856 160.695 90.6907 160.721 90.6158 160.779C90.5408 160.837 90.492 160.923 90.48 161.017Z" fill="#263238"/>
<path d="M91.4225 165.691C92.3574 169.009 93.315 175.358 93.0888 177.001C93.0888 177.152 92.8475 177.205 92.8174 177.047C92.5158 175.267 91.1887 166.709 91.053 165.812C90.9173 164.915 91.1586 164.764 91.4225 165.691Z" fill="#263238"/>
<path d="M85.6544 168.308C86.0919 167.879 86.5607 167.483 87.0568 167.124C87.5469 166.739 88.037 166.37 88.5648 166.001C89.6053 165.247 90.676 164.598 91.7693 163.95C92.8626 163.301 93.9333 162.736 95.0492 162.17C96.1651 161.605 97.4469 161.137 98.6081 160.557C98.6759 160.519 98.7363 160.617 98.6684 160.655C97.5676 161.265 96.5421 162.027 95.4715 162.698C94.4008 163.369 93.3301 164.063 92.2519 164.734C91.1736 165.405 90.1557 166.061 89.1001 166.709C88.5522 167.051 87.9943 167.383 87.4263 167.705C86.9179 168.032 86.389 168.327 85.8429 168.587C85.6619 168.655 85.5563 168.421 85.6544 168.308Z" fill="#263238"/>
<path d="M66.631 248.978C67.106 238.219 67.86 226.2 68.041 215.456C68.1264 210.072 68.1666 204.686 68.1616 199.297C68.1616 193.951 68.1616 186.811 67.9203 181.473C67.7771 178.758 62.9967 176.662 62.0241 168.76C61.3502 164.26 61.7086 159.665 63.0721 155.324C63.4113 154.269 63.8116 153.234 64.271 152.225C64.271 152.157 64.3992 152.225 64.369 152.285C62.4556 156.723 61.6608 161.562 62.0542 166.378C62.1932 168.806 62.7018 171.198 63.5622 173.473C64.844 176.662 68.0033 179.248 68.1692 180.945C68.418 183.471 68.4557 185.657 68.4858 188.198C68.516 190.739 68.5462 193.476 68.5612 196.115C68.5914 201.504 68.5763 206.89 68.516 212.274C68.3954 222.996 68.1139 233.712 67.6715 244.424C67.2191 255.139 64.4444 308.786 64.2634 310.022C64.2634 310.158 64.0222 310.128 64.0297 310.022C64.3615 304.616 66.1484 259.738 66.631 248.978Z" fill="#263238"/>
<path d="M84.3877 117.413C91.5205 132.131 100.576 148.071 109.051 150.589C117.119 152.964 132.757 133.156 137.703 127.969C139.467 126.084 125.134 115.302 122.91 116.938C118.717 120.022 111.185 128.421 109.918 128.127C108.651 127.833 98.0728 117.775 88.5422 109.33C82.7666 104.21 79.449 107.211 84.3877 117.413Z" fill="#EB9481"/>
<path d="M150.106 118.627C152.067 117.805 167.162 117.322 167.162 114.05C167.162 110.778 147.942 111.698 147.942 111.698L150.106 118.627Z" fill="#EB9481"/>
<path d="M121.153 119.011C123.792 115.731 126.114 112.225 128.406 111.547C129.997 111.094 147.083 111.833 149.759 111.675C152.436 111.517 161.952 111.758 162.178 114.095C162.487 117.405 151.207 117.375 150.008 119.072C145.854 124.908 130.057 133.548 130.057 133.548L121.153 119.011Z" fill="#EB9481"/>
<path d="M162.427 114.148C162.262 113.527 161.872 112.99 161.333 112.64C160.165 111.826 158.626 111.75 157.254 111.645C155.173 111.45 153.08 111.432 150.996 111.592C150.986 111.592 150.976 111.596 150.969 111.603C150.962 111.61 150.958 111.62 150.958 111.63C150.958 111.64 150.962 111.649 150.969 111.656C150.976 111.663 150.986 111.667 150.996 111.667C152.557 111.667 154.118 111.705 155.678 111.833C157.108 111.893 158.526 112.111 159.908 112.482C160.533 112.648 161.098 112.988 161.537 113.462C161.693 113.627 161.804 113.83 161.861 114.05C161.917 114.27 161.918 114.501 161.861 114.721C161.401 116.161 158.559 116.591 157.247 116.885C155.535 117.27 153.756 117.639 152.029 117.956C151.954 117.956 152.029 118.091 152.067 118.076C153.854 117.722 155.746 117.579 157.541 117.254C158.996 116.991 160.557 116.697 161.733 115.746C161.986 115.571 162.185 115.329 162.308 115.046C162.43 114.764 162.472 114.453 162.427 114.148Z" fill="#263238"/>
<path d="M135.857 107.021L136.354 104.475L166.058 110.276C166.327 110.328 166.564 110.485 166.717 110.713C166.87 110.94 166.926 111.219 166.874 111.488L166.773 112.006C166.72 112.274 166.563 112.511 166.336 112.664C166.109 112.817 165.83 112.874 165.561 112.821L135.857 107.021Z" fill="#3E64FF"/>
<path opacity="0.1" d="M136.35 104.48L135.853 107.026L139.435 107.725L139.932 105.179L136.35 104.48Z" fill="black"/>
<path d="M124.991 101.24L124.116 105.764C123.816 107.293 124.136 108.88 125.006 110.173C125.875 111.467 127.223 112.363 128.753 112.663C130.283 112.963 131.869 112.643 133.163 111.773C134.457 110.903 135.352 109.555 135.652 108.026L136.534 103.502C136.683 102.744 136.681 101.964 136.528 101.207C136.375 100.45 136.074 99.7299 135.644 99.0889C135.213 98.4479 134.66 97.8981 134.016 97.4708C133.373 97.0435 132.651 96.7472 131.893 96.5987C131.135 96.4501 130.356 96.4524 129.599 96.6052C128.841 96.758 128.122 97.0585 127.481 97.4895C126.186 98.3598 125.291 99.7087 124.991 101.24ZM134.687 102.363C134.529 103.032 134.167 103.636 133.651 104.091C133.135 104.546 132.491 104.83 131.807 104.904C132.41 105.234 132.897 105.739 133.205 106.354C133.512 106.968 133.624 107.662 133.526 108.342C133.171 110.137 131.196 111.268 129.107 110.861C127.019 110.453 125.609 108.659 125.956 106.872C126.117 106.203 126.482 105.6 126.998 105.145C127.515 104.691 128.159 104.406 128.844 104.331C128.238 104.005 127.748 103.499 127.44 102.884C127.132 102.268 127.022 101.573 127.124 100.893C127.479 99.0906 129.454 97.9747 131.543 98.3819C133.631 98.789 135.041 100.568 134.687 102.363Z" fill="#3E64FF"/>
<path d="M136.575 103.328L135.628 108.175C135.578 108.433 135.746 108.682 136.003 108.733L136.24 108.779C136.498 108.829 136.747 108.661 136.797 108.404L137.744 103.556C137.794 103.299 137.626 103.05 137.369 102.999L137.132 102.953C136.874 102.903 136.625 103.071 136.575 103.328Z" fill="#3E64FF"/>
<path d="M137.745 103.559L136.798 108.406C136.748 108.664 136.916 108.913 137.173 108.963L137.41 109.01C137.667 109.06 137.917 108.892 137.967 108.634L138.914 103.787C138.964 103.53 138.796 103.28 138.539 103.23L138.302 103.184C138.044 103.133 137.795 103.301 137.745 103.559Z" fill="#3E64FF"/>
<path d="M158.943 107.799L159.825 107.973L160.323 105.402L161.085 105.552L160.821 106.895L161.703 107.068L161.967 105.726L162.63 105.854L162.223 107.973L163.105 108.146L163.52 106.027L164.47 106.216L163.92 109.043L164.802 109.217L165.352 106.389L166.249 106.563L165.548 110.174L157.646 108.636L158.348 105.017L159.441 105.236L158.943 107.799Z" fill="#3E64FF"/>
<path d="M57.7263 146.698L99.8145 147.392L96.512 134.785C97.6101 133.203 98.3485 131.4 98.6754 129.502C99.0023 127.604 98.9099 125.658 98.4046 123.799C97.3942 120.09 92.6063 114.533 89.6657 110.981C82.5178 102.386 76.3048 106.269 74.3218 108.478C66.7592 116.945 57.7263 146.698 57.7263 146.698Z" fill="#3E64FF"/>
<path d="M78.4537 113.379V110.981L80.0446 112.761L81.7638 112.225L80.9268 113.733L81.7336 114.578L80.4819 114.706V116.335L79.1097 115.189L77.9938 116.116L78.1219 114.744L76.4933 113.99L78.4537 113.379ZM96.3838 140.319L95.0568 141.533L93.8353 140.885L94.2651 142.28L92.6817 143.102L94.1897 143.75L93.8202 144.956L94.9211 144.534L96.0068 145.906L96.1727 144.112L98.4347 143.358L96.233 142.4L96.3838 140.319ZM80.9947 131.369L82.284 133.933L83.5583 131.482L85.9862 131.905L84.6968 129.326L86.4989 127.607L83.9428 127.697L83.4301 125.194L82.088 127.788L78.6799 127.524L80.6855 129.597L78.8307 131.023L80.9947 131.369ZM91.0304 116.553L91.6487 115.513L90.4875 115.618L90.0879 114.661L89.4621 115.701L88.4442 115.452L89.0549 116.342L88.3009 117.096L89.5299 116.983L90.2085 118.25L90.4875 117.074L91.4074 117.405L91.0304 116.553ZM71.2907 144.014L71.909 142.981L70.7553 143.079L70.3482 142.121L69.7299 143.169L68.712 142.913L69.3228 143.803L68.5688 144.557L69.7978 144.451L70.4764 145.718L70.7553 144.534L71.6828 144.874L71.2907 144.014ZM78.2124 125.322L78.8307 124.289L77.6695 124.387L77.2699 123.43L76.6516 124.478L75.6262 124.221L76.2369 125.111L75.4829 125.865L76.7119 125.76L77.3905 127.019L77.6695 125.843L78.5969 126.174L78.2124 125.322ZM70.7177 128.127L70.5065 127.449L70.0994 127.999L69.5188 127.795L69.7299 128.482L69.2247 128.828L69.8506 128.911V129.545L70.2803 128.957L71.1022 129.16L70.695 128.572L71.2078 128.293L70.7177 128.127ZM90.2538 144.3L90.0427 143.622L89.628 144.172L89.0549 143.976L89.2661 144.655L88.7533 145.009L89.3867 145.085V145.718L89.8165 145.137L90.6383 145.333L90.2312 144.745L90.7439 144.474L90.2538 144.3ZM96.0973 124.591L96.6326 124.116L95.9616 123.973L95.9013 123.362L95.3659 123.837L94.8381 123.52L95.0266 124.123L94.4611 124.41L95.1699 124.561L95.3282 125.398L95.6977 124.779L96.1576 125.134L96.0973 124.591ZM85.5413 137.326L86.0691 136.851L85.398 136.708L85.3377 136.097L84.8099 136.572L84.2746 136.255L84.4631 136.858L83.8976 137.145L84.6063 137.296L84.7647 138.133L85.1341 137.514L85.5941 137.869L85.5413 137.326ZM63.811 141.322L64.3388 140.847L63.6678 140.696L63.615 140.086L63.0796 140.568L62.582 140.244L62.7629 140.855L62.1974 141.134L62.9062 141.292L63.0721 142.121L63.434 141.511L63.8939 141.865L63.811 141.322Z" fill="white"/>
<path d="M85.2548 134.046C87.0546 133.88 88.8642 133.85 90.6685 133.956C91.5658 134.016 92.4555 134.121 93.3452 134.25C93.7825 134.31 94.2274 134.355 94.6723 134.4C95.138 134.457 95.6089 134.457 96.0747 134.4C96.0747 134.4 96.1275 134.453 96.0747 134.468C95.6446 134.565 95.209 134.635 94.7703 134.679C94.3409 134.706 93.9103 134.706 93.4809 134.679C92.5761 134.619 91.6638 134.521 90.759 134.461C88.9268 134.325 87.0946 134.197 85.2548 134.197C85.202 134.212 85.202 134.054 85.2548 134.046Z" fill="#263238"/>
<path d="M81.1681 136.406C82.5986 135.989 84.051 135.652 85.5187 135.396C86.2727 135.275 87.0267 135.192 87.7355 135.132L88.7986 135.056C89.1907 135.056 89.5526 135.056 89.9748 135.056C90.0201 135.056 90.0276 135.117 89.9748 135.124C89.6054 135.162 89.2208 135.26 88.874 135.313L87.7732 135.486L85.5715 135.833C84.1037 136.044 82.6359 136.28 81.1681 136.542C81.1078 136.542 81.0927 136.429 81.1681 136.406Z" fill="#263238"/>
<path d="M78.416 108.003C78.597 108.757 82.186 113.62 85.6167 113.454C86.7326 113.394 86.7025 107.287 86.7025 107.287L86.8005 106.834L88.218 100.508L80.7986 95.758L79.728 95.1322C79.728 95.1322 79.4565 96.889 79.1398 99.0756C79.1398 99.1812 79.1398 99.2792 79.1398 99.3848C79.1398 99.4903 79.0946 99.626 79.0795 99.7467C79.0267 100.071 78.974 100.403 78.9363 100.734C78.8986 101.066 78.8684 101.24 78.8382 101.488L78.7478 102.288C78.5092 104.183 78.3983 106.093 78.416 108.003Z" fill="#EB9481"/>
<path d="M79.17 99.0681C79.8134 100.842 80.8344 102.455 82.1622 103.796C83.49 105.137 85.0932 106.174 86.8608 106.834L88.218 100.508L80.7986 95.758L79.7279 95.1322C79.7279 95.1322 79.4565 96.8815 79.17 99.0681Z" fill="#263238"/>
<path d="M97.1378 90.1859C99.3471 101.345 92.9079 103.924 90.5026 104.399C88.3236 104.829 80.8288 106.005 77.4811 95.1397C74.1333 84.2745 78.6271 79.7204 83.5734 78.4763C88.5196 77.2322 94.9362 79.0342 97.1378 90.1859Z" fill="#EB9481"/>
<path d="M93.8805 88.4819C93.6317 88.5384 93.38 88.5812 93.1265 88.61C92.862 88.6969 92.5767 88.6969 92.3122 88.61C92.2358 88.5638 92.1766 88.4938 92.1439 88.4107C92.1112 88.3276 92.1068 88.236 92.1312 88.1501C92.2062 87.9874 92.3233 87.8477 92.4705 87.7456C92.6177 87.6435 92.7895 87.5827 92.9682 87.5695C93.3241 87.4864 93.6982 87.5402 94.0162 87.7203C94.0816 87.7677 94.1322 87.8326 94.1624 87.9074C94.1926 87.9823 94.2011 88.0641 94.187 88.1436C94.1728 88.2231 94.1365 88.297 94.0823 88.3568C94.0281 88.4166 93.9582 88.4599 93.8805 88.4819Z" fill="#263238"/>
<path d="M85.956 90.7665C86.2101 90.7277 86.4618 90.6749 86.71 90.6082C86.9888 90.5921 87.2542 90.4833 87.464 90.299C87.521 90.2301 87.5522 90.1434 87.5522 90.054C87.5522 89.9645 87.521 89.8779 87.464 89.8089C87.3372 89.6822 87.178 89.5928 87.0039 89.5502C86.8297 89.5077 86.6472 89.5137 86.4763 89.5677C86.1132 89.6145 85.7816 89.7978 85.5488 90.0804C85.4966 90.1485 85.466 90.2307 85.4609 90.3164C85.4558 90.4021 85.4765 90.4874 85.5203 90.5612C85.5641 90.635 85.629 90.694 85.7067 90.7306C85.7843 90.7672 85.8712 90.7797 85.956 90.7665Z" fill="#263238"/>
<path d="M87.6299 92.1991C87.6299 92.1991 87.5771 92.1991 87.5846 92.2745C87.7203 93.0285 87.7505 93.9333 87.1021 94.2877C87.1021 94.2877 87.1021 94.3405 87.1021 94.3329C87.939 94.0841 87.8862 92.8928 87.6299 92.1991Z" fill="#263238"/>
<path d="M86.8306 91.4979C85.5865 91.5884 85.858 94.0766 87.0116 93.9861C88.1652 93.8956 87.8712 91.4225 86.8306 91.4979Z" fill="#263238"/>
<path d="M86.3556 91.6864C86.152 91.8447 85.971 92.1162 85.7071 92.1765C85.4433 92.2368 85.1567 92.0031 84.9532 91.7769C84.9532 91.7769 84.9079 91.7769 84.9532 91.7769C84.9984 92.2519 85.2321 92.7194 85.7524 92.7344C86.2727 92.7495 86.5064 92.2896 86.5742 91.7995C86.529 91.7392 86.4385 91.6185 86.3556 91.6864Z" fill="#263238"/>
<path d="M92.3575 91.4752C92.3575 91.4752 92.4178 91.4752 92.4178 91.5355C92.4781 92.2895 92.6666 93.1868 93.3905 93.3678V93.413C92.5233 93.3828 92.2821 92.2141 92.3575 91.4752Z" fill="#263238"/>
<path d="M92.9607 90.6007C94.1897 90.382 94.5365 92.8627 93.398 93.0587C92.2594 93.2547 91.9277 90.7892 92.9607 90.6007Z" fill="#263238"/>
<path d="M93.496 90.6911C93.7147 90.7967 93.9409 91.0078 94.1746 90.9852C94.4083 90.9626 94.6119 90.6685 94.7476 90.3895C94.7476 90.3895 94.7476 90.3895 94.7929 90.3895C94.8683 90.857 94.7929 91.3773 94.3405 91.5281C93.8881 91.6789 93.5865 91.3094 93.398 90.8495C93.3678 90.7891 93.4131 90.6459 93.496 90.6911Z" fill="#263238"/>
<path d="M89.0323 98.6986C89.2283 98.872 89.4319 99.1057 89.7109 99.1133C89.9989 99.0871 90.2786 99.0024 90.5328 98.8645C90.5328 98.8645 90.578 98.8645 90.5328 98.8645C90.4326 99.0231 90.2914 99.1516 90.1242 99.2366C89.957 99.3215 89.7699 99.3597 89.5827 99.347C89.4386 99.3158 89.3056 99.246 89.198 99.145C89.0905 99.0441 89.0123 98.9159 88.972 98.774C88.972 98.774 88.972 98.676 89.0323 98.6986Z" fill="#263238"/>
<path d="M91.905 95.5318C91.905 95.5318 92.2066 96.6552 92.2745 97.1981C92.2745 97.2509 92.1538 97.2886 91.9653 97.3263C91.5098 97.4672 91.0243 97.4805 90.5617 97.3649C90.0991 97.2492 89.6771 97.009 89.3414 96.6703C89.3414 96.6251 89.3414 96.5572 89.4168 96.5874C90.1656 96.9757 91.0202 97.1106 91.8522 96.9719C91.8522 96.8211 91.2717 95.0567 91.3546 95.0417C91.7807 95.0278 92.2067 95.0709 92.6213 95.1698C92.0709 92.8023 91.1133 90.5403 90.6232 88.1727C90.6232 88.0898 90.7288 88.0445 90.759 88.1199C91.8313 90.5112 92.6598 93.0045 93.2321 95.5619C93.2999 95.8635 92.1388 95.5921 91.905 95.5318Z" fill="#263238"/>
<path d="M91.89 97.1302C91.6438 97.61 91.2775 98.0178 90.8269 98.314C90.5766 98.4697 90.2841 98.5434 89.9899 98.5251C89.3565 98.4723 89.2359 97.9144 89.2359 97.4167C89.2555 97.1608 89.3035 96.908 89.3792 96.6627C90.1439 97.0848 91.0246 97.2488 91.89 97.1302Z" fill="#263238"/>
<path d="M90.8268 98.314C90.5766 98.4697 90.284 98.5434 89.9899 98.5251C89.3565 98.4723 89.2359 97.9144 89.2359 97.4167C89.5637 97.3622 89.9003 97.4214 90.1897 97.5847C90.4791 97.7479 90.7039 98.0053 90.8268 98.314Z" fill="#FF9ABB"/>
<path d="M78.7252 96.1199C80.859 96.1199 80.7157 91.2189 80.7157 91.2189C80.7157 91.2189 89.4319 88.4366 89.1605 81.07C90.7054 83.8656 93.2681 85.9584 96.316 86.9135C96.316 86.9135 94.8758 78.9965 88.3387 78.3405C88.3387 78.3405 80.0974 76.5988 76.5687 83.4451C73.04 90.2914 77.2926 96.1425 78.7252 96.1199Z" fill="#263238"/>
<path d="M89.1153 80.5272C89.3754 81.6333 89.3985 82.7819 89.1831 83.8976C88.9873 85.0326 88.5558 86.114 87.9164 87.0719C87.7582 87.3118 87.5844 87.541 87.3962 87.7581L87.1322 88.0974C87.0342 88.2029 86.9287 88.301 86.8231 88.399C86.7176 88.497 86.416 88.7986 86.2048 88.9871L85.5112 89.4998C85.3981 89.5828 85.285 89.6657 85.1643 89.7411L84.7949 89.9522L84.0409 90.3669C83.5281 90.5931 83.0003 90.7892 82.4725 90.9777C82.9551 90.6836 83.4527 90.4423 83.9202 90.1483L84.6139 89.6808L84.9532 89.447C85.0663 89.3641 85.1643 89.2736 85.2699 89.1831L85.8957 88.6553C86.0993 88.4668 86.2802 88.2633 86.4687 88.0672L86.7552 87.7732L87.0041 87.4489C87.1757 87.2403 87.3344 87.0212 87.4791 86.793C88.0908 85.8719 88.5373 84.8513 88.7986 83.777C88.9336 83.2447 89.0269 82.7027 89.0776 82.1559C89.1334 81.6148 89.146 81.0702 89.1153 80.5272Z" fill="#263238"/>
<path d="M75.4 89.4169L74.8722 90.4876L78.4009 93.0662L79.5319 90.661L75.4 89.4169ZM78.1521 91.9654L75.7167 90.382L75.8298 90.1332L78.5668 91.1209L78.1521 91.9654Z" fill="#3E64FF"/>
<path d="M75.5508 87.5243L75.4678 88.7157L79.7129 89.7788L79.8561 87.1172L75.5508 87.5243ZM79.0644 88.8438L76.2068 88.301V88.022L79.1172 87.9089L79.0644 88.8438Z" fill="#3E64FF"/>
<path d="M80.3613 95.1623C80.3613 95.1623 77.5036 91.8975 76.0032 92.9531C74.5027 94.0087 76.908 98.9247 78.8608 99.4148C79.1072 99.4969 79.3676 99.528 79.6264 99.5063C79.8851 99.4845 80.1367 99.4104 80.366 99.2884C80.5952 99.1664 80.7972 98.999 80.9597 98.7965C81.1222 98.594 81.2418 98.3606 81.3113 98.1104L80.3613 95.1623Z" fill="#EB9481"/>
<path d="M76.7271 94.348C76.7271 94.348 76.7271 94.3857 76.7271 94.3932C77.3636 94.629 77.9435 94.9958 78.4292 95.4698C78.915 95.9439 79.2958 96.5147 79.547 97.1453C79.4564 97.0218 79.3399 96.9195 79.2058 96.8455C79.0716 96.7716 78.923 96.7277 78.7702 96.7169C78.6174 96.7061 78.4641 96.7288 78.3209 96.7832C78.1777 96.8377 78.048 96.9226 77.941 97.0322C77.941 97.0322 77.941 97.1076 77.9862 97.1001C78.2086 97.0004 78.4565 96.9722 78.6955 97.0195C78.9346 97.0668 79.1531 97.1871 79.3208 97.364C79.606 97.6632 79.8588 97.9917 80.0748 98.3442C80.1427 98.4573 80.3538 98.3442 80.2935 98.2386C80.1125 96.5119 78.5517 94.3178 76.7271 94.348Z" fill="#263238"/>
<path d="M71.8185 110.989C62.2276 127.532 47.8941 165.503 45.3003 170.932C43.5435 174.619 62.8158 184.338 63.6376 181.654C64.6781 178.223 78.0541 133.993 78.9287 114.261C79.3359 105.123 74.8873 105.696 71.8185 110.989Z" fill="#EB9481"/>
<path d="M55.796 190.098C56.8139 189.209 57.304 189.737 56.8441 192.089C56.3841 194.442 52.6594 203.399 55.8865 204.417C59.1136 205.435 64.1805 192.775 64.648 188.802C65.1155 184.828 64.3916 178.246 64.3916 178.246C62.9062 180.523 58.812 185.68 55.796 190.098Z" fill="#EB9481"/>
<path d="M61.451 203.927L37.323 199.584C36.569 199.523 36.1091 199.026 36.2372 198.468L38.4465 188.606C38.5673 188.314 38.782 188.071 39.0566 187.915C39.3311 187.76 39.6497 187.7 39.962 187.746L64.09 192.066C64.844 192.134 65.3039 192.632 65.1758 193.182L62.9665 203.045C62.8529 203.343 62.6405 203.593 62.3647 203.754C62.0889 203.914 61.7664 203.975 61.451 203.927Z" fill="#A6A6A6"/>
<path d="M61.73 202.766L37.5567 198.423C36.8027 198.355 36.3503 197.857 36.471 197.307L38.6877 187.444C38.7999 187.147 39.0109 186.897 39.2854 186.736C39.56 186.576 39.8813 186.514 40.1957 186.562L64.369 190.905C65.123 190.966 65.5754 191.463 65.4547 192.014L63.2606 201.884C63.1453 202.184 62.9303 202.435 62.6517 202.596C62.373 202.757 62.0476 202.816 61.73 202.766Z" fill="#C7C7C7"/>
<path d="M61.2776 199.637C60.7196 199.425 60.1918 199.637 60.1013 200.104C60.0892 200.372 60.1663 200.637 60.3204 200.856C60.4746 201.076 60.6971 201.238 60.9534 201.318C61.5113 201.529 62.0391 201.318 62.1296 200.858C62.1434 200.589 62.0672 200.322 61.9129 200.101C61.7586 199.88 61.5351 199.717 61.2776 199.637Z" fill="#263238"/>
<path d="M46.5896 169.198C41.666 175.833 37.3079 183.644 37.2023 192.277C37.1704 193.236 37.4597 194.178 38.0242 194.954C37.9111 198.815 39.6981 200.036 39.6981 200.036C40.6934 203.663 42.7141 204.658 42.7141 204.658C42.7141 204.658 43.0006 207.772 45.1947 207.727C47.3889 207.682 48.5953 202.577 50.4727 198.852C54.8686 190.302 62.861 180.59 64.369 178.253L46.5896 169.198Z" fill="#EB9481"/>
<path d="M48.158 187.867C46.8465 190.355 45.7053 192.93 44.7424 195.572C43.8658 198.536 43.2105 201.56 42.782 204.62C42.782 204.64 42.774 204.66 42.7599 204.674C42.7457 204.688 42.7266 204.696 42.7066 204.696C42.6866 204.696 42.6674 204.688 42.6532 204.674C42.6391 204.66 42.6312 204.64 42.6312 204.62C42.8712 198.641 44.7434 192.842 48.0449 187.852C48.1203 187.693 48.256 187.746 48.158 187.867Z" fill="#263238"/>
<path d="M43.3851 184.466C42.3145 187.007 40.4596 191.478 39.7886 200.044C39.7886 200.044 39.7433 200.044 39.7358 200.044C39.4424 194.607 40.664 189.196 43.2645 184.413C43.3474 184.263 43.4605 184.293 43.3851 184.466Z" fill="#263238"/>
<path d="M40.7914 182.687C39.1326 187.075 38.635 190.053 38.0469 194.932H37.9941C38.0846 189.314 38.7481 187.278 40.6482 182.604C40.716 182.468 40.8517 182.513 40.7914 182.687Z" fill="#263238"/>
</svg>
