<svg width="50" height="50" viewBox="0 0 50 50" fill="none" xmlns="http://www.w3.org/2000/svg">
<path d="M13.7762 13.6125L10.5446 10.3809L10.5582 33.7402L10.5969 34.832C10.6129 35.3457 10.7082 35.9254 10.8672 36.5262L36.4735 45.5555L42.8742 42.7195L42.8766 42.7117L13.7762 13.6125Z" fill="#00D2B8"/>
<path d="M10.8672 36.5263L10.8687 36.5278C10.8672 36.5173 10.8617 36.5056 10.8617 36.4946C10.8617 36.5056 10.8633 36.5157 10.8672 36.5263ZM42.8742 42.7196L36.4734 45.5556L10.8687 36.5278C11.3578 38.4044 12.4406 40.5138 13.6058 41.6673L21.9621 49.9759L40.5422 50.0001L42.8765 42.7118L42.8742 42.7196Z" fill="#55DDCA"/>
<path d="M0.592525 25.4133C-0.234818 26.2965 0.176119 28.1184 1.50815 29.4606L7.25385 35.2539L10.8671 36.5262C10.7081 35.9254 10.6128 35.3457 10.5968 34.832L10.5582 33.7402L10.5445 10.3809L0.592525 25.4133Z" fill="#0081C6"/>
<path d="M36.6836 10.6809C36.0828 10.5274 35.5067 10.4325 34.9844 10.4161L33.8305 10.3762L10.5446 10.3793L42.8797 42.7118H42.8824L45.7223 36.3047L36.6836 10.6809Z" fill="#0079B3"/>
<path d="M36.6543 10.6746C36.6668 10.6773 36.6766 10.6808 36.6848 10.682L36.6836 10.6808C36.6766 10.6773 36.6668 10.6773 36.6543 10.6746ZM41.8199 13.4242C40.6465 12.241 38.5648 11.1656 36.6848 10.682L45.7223 36.3046L42.8824 42.7117H42.8797L49.8195 40.4953L49.8344 21.4687L41.8199 13.4242Z" fill="#00A4E4"/>
<path d="M35.4176 7.08952L29.6258 1.3403C28.2863 0.0133464 26.4637 -0.399544 25.5828 0.425456L10.5446 10.3794L33.8305 10.3762L34.9844 10.4161C35.5067 10.4325 36.0828 10.5274 36.6836 10.6809L35.4176 7.08952Z" fill="#00D2B8"/>
</svg>
