<svg width="50" height="50" viewBox="0 0 50 50" fill="none" xmlns="http://www.w3.org/2000/svg">
<path d="M9.0625 38.4376L9.32812 38.0673L21.8594 14.2954L21.8859 14.0439L16.3625 3.66887C16.2614 3.47915 16.1032 3.32602 15.9102 3.23116C15.7173 3.13629 15.4994 3.1045 15.2874 3.14026C15.0755 3.17602 14.8801 3.27754 14.7289 3.43045C14.5778 3.58335 14.4786 3.77991 14.4453 3.99231L9.0625 38.4376Z" fill="#FFC24A"/>
<path d="M9.21875 38.1563L9.41875 37.7657L21.8203 14.2407L16.3109 3.82504C16.2201 3.64391 16.073 3.49708 15.8917 3.40657C15.7104 3.31606 15.5046 3.28673 15.3052 3.32298C15.1059 3.35923 14.9236 3.45911 14.7858 3.60765C14.6479 3.75619 14.5619 3.94539 14.5406 4.14692L9.21875 38.1563Z" fill="#FFA712"/>
<path d="M25.9125 21.8906L30.025 17.6718L25.911 9.82652C25.8204 9.65768 25.6858 9.51655 25.5214 9.41816C25.357 9.31978 25.169 9.26782 24.9774 9.26782C24.7858 9.26782 24.5978 9.31978 24.4334 9.41816C24.269 9.51655 24.1343 9.65768 24.0438 9.82652L21.8453 14.0171V14.375L25.9125 21.8906Z" fill="#F4BD62"/>
<path d="M25.8391 21.7188L29.8375 17.625L25.8391 10C25.7736 9.83499 25.6618 9.69239 25.5172 9.58944C25.3725 9.4865 25.2012 9.42759 25.0238 9.41983C24.8464 9.41206 24.6706 9.45578 24.5175 9.54569C24.3644 9.63561 24.2405 9.7679 24.1609 9.9266L21.9516 14.1907L21.8859 14.4078L25.8391 21.7188Z" fill="#FFA50E"/>
<path d="M9.06561 38.439L9.18593 38.3171L9.62186 38.1405L25.6531 22.1687L25.8562 21.6155L21.8578 13.9937L9.06561 38.439Z" fill="#F6820C"/>
<path d="M26.425 46.4938L40.9375 38.4016L36.7906 12.8844C36.7609 12.7045 36.6822 12.5363 36.5631 12.3982C36.4441 12.2601 36.2893 12.1575 36.1157 12.1017C35.9421 12.0458 35.7566 12.0389 35.5793 12.0816C35.4021 12.1243 35.24 12.215 35.1109 12.3438L9.0625 38.4375L23.4891 46.4922C23.9376 46.7425 24.4426 46.8739 24.9562 46.8739C25.4699 46.8739 25.9749 46.7425 26.4234 46.4922" fill="#FDE068"/>
<path d="M40.8047 38.3344L36.6922 13.0094C36.6849 12.8373 36.6268 12.6713 36.5251 12.5323C36.4235 12.3933 36.2829 12.2876 36.1211 12.2286C35.9593 12.1695 35.7837 12.1598 35.6164 12.2006C35.4491 12.2414 35.2976 12.3309 35.1813 12.4578L9.21875 38.3891L23.4859 46.3578C23.9309 46.6061 24.4319 46.7364 24.9414 46.7364C25.4509 46.7364 25.9519 46.6061 26.3969 46.3578L40.8047 38.3344Z" fill="#FCCA3F"/>
<path d="M26.425 46.2501C25.9765 46.5003 25.4714 46.6317 24.9578 46.6317C24.4442 46.6317 23.9391 46.5003 23.4906 46.2501L9.18125 38.3157L9.0625 38.4375L23.4891 46.4922C23.9376 46.7425 24.4426 46.8739 24.9562 46.8739C25.4699 46.8739 25.9749 46.7425 26.4234 46.4922L40.9375 38.4016L40.9016 38.1829L26.425 46.2501Z" fill="#EEAB37"/>
</svg>
