<svg width="40" height="40" viewBox="0 0 40 40" fill="none" xmlns="http://www.w3.org/2000/svg">
<path d="M20 3.3335C10.81 3.3335 3.33334 10.8102 3.33334 20.0002C3.33334 29.1902 10.81 36.6668 20 36.6668C29.19 36.6668 36.6667 29.1902 36.6667 20.0002C36.6667 10.8102 29.19 3.3335 20 3.3335ZM21.6667 28.1918V30.0002H18.3333V28.2002C14.435 27.5885 13.3333 24.8635 13.3333 23.3335H16.6667C16.685 23.5718 16.9317 25.0002 20 25.0002C22.3 25.0002 23.3333 24.0252 23.3333 23.3335C23.3333 22.7935 23.3333 21.6668 20 21.6668C14.2 21.6668 13.3333 18.5335 13.3333 16.6668C13.3333 14.5202 15.0483 12.3602 18.3333 11.8085V10.0202H21.6667V11.8685C24.5567 12.5518 25.6667 14.9568 25.6667 16.6668H24L22.3333 16.6968C22.31 16.0635 21.975 15.0002 20 15.0002C17.835 15.0002 16.6667 15.8602 16.6667 16.6668C16.6667 17.2902 16.6667 18.3335 20 18.3335C25.8 18.3335 26.6667 21.4668 26.6667 23.3335C26.6667 25.4802 24.9517 27.6402 21.6667 28.1918Z" fill="#3E64FF"/>
</svg>
