<svg width="50" height="40" viewBox="0 0 50 40" fill="none" xmlns="http://www.w3.org/2000/svg">
<path d="M33.9609 5H27.25C26.625 5 26.0234 5.23438 25.5625 5.65625L17.8828 12.6875C17.875 12.6953 17.8672 12.7109 17.8594 12.7187C16.5625 13.9375 16.5859 15.8828 17.6953 17.0937C18.6875 18.1797 20.7734 18.4687 22.0781 17.3047C22.0859 17.2969 22.1016 17.2969 22.1094 17.2891L28.3516 11.5703C28.8594 11.1094 29.6562 11.1406 30.1172 11.6484C30.5859 12.1562 30.5469 12.9453 30.0391 13.4141L28 15.2812L39.375 24.5156C39.6016 24.7031 39.8047 24.9062 39.9922 25.1172V10L35.7266 5.73438C35.2656 5.26563 34.625 5 33.9609 5ZM42.5 10.0156V27.5078C42.5 28.8906 43.6172 30.0078 45 30.0078H50V10.0156H42.5ZM46.25 27.5078C45.5625 27.5078 45 26.9453 45 26.2578C45 25.5703 45.5625 25.0078 46.25 25.0078C46.9375 25.0078 47.5 25.5703 47.5 26.2578C47.5 26.9453 46.9375 27.5078 46.25 27.5078ZM0 30H5C6.38281 30 7.5 28.8828 7.5 27.5V10.0156H0V30ZM3.75 25.0078C4.4375 25.0078 5 25.5703 5 26.2578C5 26.9453 4.4375 27.5078 3.75 27.5078C3.0625 27.5078 2.5 26.9453 2.5 26.2578C2.5 25.5625 3.0625 25.0078 3.75 25.0078ZM37.8047 26.4609L26.1406 16.9922L23.7969 19.1406C21.4766 21.2578 17.9219 21.0547 15.8516 18.7969C13.75 16.5 13.9141 12.9453 16.1953 10.8516L22.5859 5H16.0391C15.375 5 14.7422 5.26563 14.2734 5.73438L10 10V27.4922H11.4297L18.5 33.8906C20.6406 35.6328 23.7891 35.3047 25.5312 33.1641L25.5469 33.1484L26.9453 34.3594C28.1875 35.375 30.0234 35.1797 31.0312 33.9375L33.4844 30.9219L33.9062 31.2656C34.9766 32.1328 36.5547 31.9766 37.4219 30.8984L38.1641 29.9844C39.0391 28.9062 38.875 27.3359 37.8047 26.4609Z" fill="#3E64FF"/>
</svg>
