<svg width="40" height="40" viewBox="0 0 40 40" fill="none" xmlns="http://www.w3.org/2000/svg">
<path d="M33.3333 10.0002H28.3333V6.66683C28.3333 4.8285 26.8383 3.3335 25 3.3335H15C13.1616 3.3335 11.6666 4.8285 11.6666 6.66683V10.0002H6.66665C4.82831 10.0002 3.33331 11.4952 3.33331 13.3335V18.3335H36.6666V13.3335C36.6666 11.4952 35.1716 10.0002 33.3333 10.0002ZM15 6.66683H25V10.0002H15V6.66683ZM23.3333 23.3335H16.6666V20.0002H3.33331V31.6668C3.33331 33.5052 4.82831 35.0002 6.66665 35.0002H33.3333C35.1716 35.0002 36.6666 33.5052 36.6666 31.6668V20.0002H23.3333V23.3335Z" fill="#3E64FF"/>
</svg>
