<svg width="50" height="52" viewBox="0 0 50 52" fill="none" xmlns="http://www.w3.org/2000/svg">
<g clip-path="url(#clip0_144_63)">
<path d="M49.9719 11.7434C49.9904 11.8125 50 11.8838 50 11.9555V23.0977C50 23.3888 49.8457 23.6576 49.5951 23.8024L40.3223 29.187V39.8588C40.3223 40.0016 40.2851 40.1419 40.2144 40.2656C40.1437 40.3894 40.042 40.4922 39.9195 40.5638L20.5625 51.8015C20.5182 51.8267 20.4699 51.8428 20.4215 51.8603C20.4033 51.8663 20.3863 51.8775 20.3672 51.8826C20.2319 51.9186 20.0896 51.9186 19.9543 51.8826C19.932 51.8767 19.9119 51.8643 19.8908 51.8562C19.8465 51.8399 19.8002 51.8257 19.758 51.8015L0.404883 40.5636C0.281903 40.4924 0.179715 40.3897 0.108629 40.266C0.037543 40.1423 7.33131e-05 40.0018 0 39.8588L0 6.43226C0 6.35899 0.0101562 6.28788 0.028125 6.21894C0.0341797 6.1955 0.0482422 6.17423 0.0564453 6.15079C0.0714844 6.10825 0.0857422 6.06452 0.107812 6.02493C0.122852 5.99853 0.144922 5.97726 0.163086 5.95284C0.186328 5.92034 0.207422 5.88685 0.23457 5.85829C0.257812 5.83505 0.288086 5.81772 0.314258 5.79743C0.343555 5.773 0.369531 5.74661 0.402734 5.72731H0.403711L10.0807 0.108551C10.2032 0.0374311 10.3421 0 10.4835 0C10.6249 0 10.7638 0.0374311 10.8863 0.108551L20.5633 5.72731H20.5652C20.5975 5.74779 20.6248 5.773 20.6539 5.79644C20.6801 5.81673 20.7094 5.83505 20.7324 5.8575C20.7607 5.88685 20.7809 5.92053 20.8049 5.95284C20.8221 5.97726 20.8453 5.99853 20.8594 6.02493C20.8824 6.0655 20.8955 6.10825 20.9117 6.15099C20.9197 6.17423 20.9338 6.1955 20.9398 6.21993C20.9584 6.28906 20.968 6.36056 20.9682 6.43226V27.3099L29.0318 22.6273V11.9545C29.0318 11.8836 29.042 11.8113 29.0602 11.7434C29.0672 11.7189 29.0803 11.6977 29.0883 11.6744C29.1045 11.6317 29.1186 11.5877 29.1406 11.5484C29.1557 11.522 29.1777 11.5007 29.1951 11.4763C29.2191 11.4438 29.2393 11.4103 29.2674 11.3817C29.2908 11.3585 29.3199 11.3411 29.3461 11.3209C29.3764 11.2964 29.4025 11.27 29.4348 11.2507H29.4357L39.1137 5.63197C39.2362 5.56076 39.3751 5.52327 39.5165 5.52327C39.6579 5.52327 39.7968 5.56076 39.9193 5.63197L49.5963 11.2507C49.6305 11.271 49.6566 11.2964 49.6869 11.3197C49.7119 11.3402 49.7412 11.3585 49.7645 11.3807C49.7926 11.4103 49.8127 11.4438 49.8367 11.4763C49.8551 11.5007 49.8771 11.522 49.8914 11.5484C49.9145 11.5877 49.9275 11.6317 49.9436 11.6744C49.9527 11.6977 49.9658 11.7189 49.9719 11.7434ZM48.3869 22.6275V13.362L45.0004 15.328L40.3221 18.0446V27.3101L48.3879 22.6275H48.3869ZM38.71 39.3886V30.1167L34.108 32.7673L20.9672 40.3309V49.6898L38.71 39.3882V39.3886ZM1.61309 7.83862V39.3886L19.3539 49.689V40.3319L10.0859 35.0421L10.083 35.0401L10.0791 35.0382C10.0479 35.0198 10.0215 34.9935 9.99238 34.9712C9.96699 34.9507 9.93789 34.9346 9.91582 34.9121L9.91387 34.9091C9.8877 34.8837 9.86953 34.8522 9.84746 34.8239C9.82715 34.7963 9.80313 34.773 9.78691 34.7447L9.78594 34.7415C9.76777 34.7112 9.75664 34.6746 9.74356 34.6401C9.73047 34.6096 9.71348 34.581 9.70527 34.5487V34.5477C9.69531 34.5091 9.69336 34.4683 9.68926 34.4287C9.68535 34.3984 9.67715 34.3679 9.67715 34.3373V12.5214L4.99961 9.80359L1.61309 7.83981V7.83862ZM10.4846 1.75167L2.42168 6.43226L10.4826 11.1127L18.5443 6.43108L10.4826 1.75167H10.4846ZM14.6775 30.9619L19.3549 28.2465V7.83862L15.9688 9.80478L11.29 12.5212V32.9288L14.6775 30.9619ZM39.5164 7.27509L31.4547 11.9555L39.5164 16.6361L47.5771 11.9545L39.5166 7.27509H39.5164ZM38.7098 18.0446L34.0314 15.328L30.6451 13.362V22.6275L35.3225 25.3431L38.71 27.3101V18.0446H38.7098ZM20.1596 38.9246L31.9844 32.1165L37.8953 28.7145L29.8395 24.037L20.5643 29.4222L12.1107 34.3303L20.1596 38.9246Z" fill="#FF2D20"/>
</g>
<defs>
<clipPath id="clip0_144_63">
<rect width="50" height="52" fill="white"/>
</clipPath>
</defs>
</svg>
