<svg width="50" height="50" viewBox="0 0 50 50" fill="none" xmlns="http://www.w3.org/2000/svg">
<path d="M29.1666 31.0834H16.875C15.0834 31.0834 14.0416 32.1875 14.0416 33.7709C14.0416 35.1875 15 36.1875 16.375 36.1875C17.9791 36.1875 18.8959 35.0834 18.9791 33.5H22.5416C22.3541 37.375 19.9375 39.4375 16.3334 39.4375C12.9584 39.4375 10.4375 37.1459 10.4375 33.7291C10.4375 30.1666 13.0834 27.6875 17.0625 27.6875H29.2291C33.3334 27.6875 36.4584 24.6666 36.4584 20.6041C36.4584 16.5 33.6666 13.6041 29.6875 13.6041C25.75 13.6041 22.5625 16.4791 22.5625 21.7916V25.2709H18.9584V21.7916C18.9584 14.75 23.4791 10.1875 29.75 10.1875C35.7291 10.1875 40.0834 14.4791 40.0834 20.5625C40.125 26.6459 35.4584 31.0834 29.1666 31.0834ZM25 50C38.9791 50 50 38.9375 50 25C50 11.0625 38.9791 0 25 0C11.0209 0 0 11.1041 0 25C0 38.9375 11.0209 50 25 50Z" fill="#169CEE"/>
</svg>
